<svg xmlns="http://www.w3.org/2000/svg" width="256" height="497" viewBox="0 0 256 497">
  <g id="Сгруппировать_47" data-name="Сгруппировать 47" transform="translate(-2562 1937)">
    <path id="Прямоугольник_6" data-name="Прямоугольник 6" d="M0,0H256a0,0,0,0,1,0,0V96a32,32,0,0,1-32,32H32A32,32,0,0,1,0,96V0A0,0,0,0,1,0,0Z" transform="translate(2562 -1568)" fill="#8d48e4"/>
    <path id="Контур_27" data-name="Контур 27" d="M32,0H224a32,32,0,0,1,32,32V319L128.492,218.765,0,319V32A32,32,0,0,1,32,0Z" transform="translate(2562 -1937)" fill="#1bbcee"/>
  </g>
</svg>
