<svg xmlns="http://www.w3.org/2000/svg" xmlns:xlink="http://www.w3.org/1999/xlink" width="156.779" height="156.779" viewBox="0 0 156.779 156.779">
  <defs>
    <linearGradient id="linear-gradient" x1="0.5" x2="0.5" y2="1" gradientUnits="objectBoundingBox">
      <stop offset="0" stop-color="#fe5505"/>
      <stop offset="1" stop-color="#ca3a00"/>
    </linearGradient>
    <linearGradient id="linear-gradient-2" x1="0.5" x2="0.5" y2="1" gradientUnits="objectBoundingBox">
      <stop offset="0" stop-color="#02309c"/>
      <stop offset="1" stop-color="#07acd9"/>
    </linearGradient>
    <linearGradient id="linear-gradient-3" x1="0.386" y1="1" x2="0.374" gradientUnits="objectBoundingBox">
      <stop offset="0" stop-color="#01652a"/>
      <stop offset="1" stop-color="#18d704"/>
    </linearGradient>
    <linearGradient id="linear-gradient-4" x1="0.611" x2="0.648" y2="1" gradientUnits="objectBoundingBox">
      <stop offset="0" stop-color="#de1f05"/>
      <stop offset="1" stop-color="#8f0300"/>
    </linearGradient>
  </defs>
  <g id="Сгруппировать_86" data-name="Сгруппировать 86" transform="translate(-2650.569 -1345.008)">
    <g id="Сгруппировать_80" data-name="Сгруппировать 80" transform="translate(2305.5 933.683)">
      <path id="Контур_379" data-name="Контур 379" d="M56-130.9C40-112.7,32.8-93.2,35.9-76.1,40-53,59.9-35.7,84-34.3c8.3.5,18.5-1.4,25-4.7l4-2-4.4-4.7-4.5-4.7-5.4,1.7c-7.6,2.4-19.2,2.2-26.2-.4A39.906,39.906,0,0,1,48.4-75.9c-2.6-10.4-.3-21.5,6.8-32.6,5.4-8.5,8.8-15.6,8.8-18.6s-1.9-8.9-2.8-8.9C60.8-136,58.5-133.7,56-130.9Z" transform="translate(364.849 547.325)" fill="url(#linear-gradient)"/>
      <path id="Контур_380" data-name="Контур 380" d="M92.2-39.321c16-18.2,23.2-37.7,20.1-54.8-4.1-23.1-24-40.4-48.1-41.8-8.3-.5-18.5,1.4-25,4.7l-4,2,4.4,4.7,4.5,4.7,5.4-1.7c7.6-2.4,19.2-2.2,26.2.4a39.906,39.906,0,0,1,24.1,26.8c2.6,10.4.3,21.5-6.8,32.6-5.4,8.5-8.8,15.6-8.8,18.6s1.9,8.9,2.8,8.9C87.4-34.221,89.7-36.521,92.2-39.321Z" transform="translate(333.849 602.325)" fill="url(#linear-gradient-2)"/>
      <path id="Контур_381" data-name="Контур 381" d="M56-130.9C40-112.7,32.8-93.2,35.9-76.1,40-53,59.9-35.7,84-34.3c8.3.5,18.5-1.4,25-4.7l4-2-4.4-4.7-4.5-4.7-5.4,1.7c-7.6,2.4-19.2,2.2-26.2-.4A39.906,39.906,0,0,1,48.4-75.9c-2.6-10.4-.3-21.5,6.8-32.6,5.4-8.5,8.8-15.6,8.8-18.6s-1.9-8.9-2.8-8.9C60.8-136,58.5-133.7,56-130.9Z" transform="translate(481.069 548.299) rotate(-90)" fill="url(#linear-gradient-3)"/>
      <path id="Контур_382" data-name="Контур 382" d="M20.8,5.1C4.8,23.3-2.4,42.8.7,59.9c4.1,23.1,24,40.4,48.1,41.8,8.3.5,18.5-1.4,25-4.7l4-2-4.4-4.7-4.5-4.7-5.4,1.7c-7.6,2.4-19.2,2.2-26.2-.4A39.906,39.906,0,0,1,13.2,60.1c-2.6-10.4-.3-21.5,6.8-32.6,5.4-8.5,8.8-15.6,8.8-18.6S26.9,0,26,0C25.6,0,23.3,2.3,20.8,5.1Z" transform="translate(501.849 467.299) rotate(90)" fill="url(#linear-gradient-4)"/>
    </g>
  </g>
</svg>
