<svg xmlns="http://www.w3.org/2000/svg" xmlns:xlink="http://www.w3.org/1999/xlink" width="908.345" height="200.216" viewBox="0 0 908.345 200.216">
  <defs>
    <linearGradient id="linear-gradient" x1="0.5" x2="0.5" y2="1" gradientUnits="objectBoundingBox">
      <stop offset="0" stop-color="#f54f5b"/>
      <stop offset="0.271" stop-color="#de60a1"/>
      <stop offset="0.529" stop-color="#c372ed"/>
      <stop offset="0.797" stop-color="#6c98eb"/>
      <stop offset="1" stop-color="#14c0e9"/>
    </linearGradient>
  </defs>
  <g id="Кванториум_SPACE" data-name="Кванториум SPACE" transform="translate(661.345 -1254.662)">
    <text id="Кванториум" transform="translate(-421 1361.662)" fill="#444" font-size="111" font-family="GoogleSans-Bold, Google Sans" font-weight="700"><tspan x="0" y="0">Кванториум</tspan></text>
    <path id="SPACE" d="M45.153,6.83H20.487v8.109H43.994q5.489,0,7.521,1.889,1.889,1.925,1.889,7v5.186q0,5.1-1.889,7.022-2.032,1.889-7.521,1.889H20.7q-5.525,0-7.45-1.888-1.96-1.87-1.96-7.018V28.008l7.735-1.6v4.446H45.669V22.246H22.162q-5.454,0-7.378-1.891-1.96-1.873-1.96-7.01V9.171q0-5.137,1.96-7.01Q16.69.253,22.162.253H43.549q5.329,0,7.378,1.836,1.96,1.836,1.96,6.416v.8l-7.735,1.836Zm70.6-.071H96.039v10H115.75a5.337,5.337,0,0,0,3.137-.659,2.884,2.884,0,0,0,.8-2.335V9.752a2.884,2.884,0,0,0-.8-2.335A5.337,5.337,0,0,0,115.75,6.758ZM87.431,37.929V.253h32.187q4.438,0,6.576,1.693,1.96,1.729,1.96,5.614v8.394q0,3.814-1.96,5.543-2.085,1.764-6.576,1.764H96.039V37.929Zm70.936-15.042h16.486L166.69,7.56Zm-16.86,15.042L162.733.253h8.483l21.6,37.676h-9.856l-4.527-8.252H154.571l-4.384,8.252ZM257.943,6.972h-23.65V30.854h23.65V22.745l8.769,1.818v4.456q0,5.115-1.908,7.022-2,1.889-7.435,1.889h-22.5q-5.42,0-7.453-1.889-1.89-1.925-1.89-7.022V9.164q0-5.079,1.89-7Q229.429.253,234.868.253h22.5q5.438,0,7.435,1.907,1.908,1.907,1.908,7v3.582l-8.769,1.39ZM300.2,37.929V.253h38.567V6.669h-29.8v8.412h17.377V21.5H308.972v9.357h30.155v7.075Z" transform="translate(-422.954 1393.409)" fill="#888"/>
    <path id="Пересечение_6" data-name="Пересечение 6" d="M96.538,235.913h0c-41.408-57.785-46.965-133.579-17-199l0,.042c70.757-7,139.211,26.022,180.946,84.612l.027,0-.011.027.1.138-.132-.063c-27.678,59.173-82.593,100.056-146.5,111.319-5.679,1-11.466,2.384-17.275,2.911l-.076.132C96.595,235.99,96.566,235.951,96.538,235.913Zm38.037-65.632-37.808,65.5c4.035-2.376,59.578-35.961,88.955-101.6l74.6-12.578c-5.4-2.527-87.913-40.367-142.794-18.914L79.546,36.965C79.744,39.409,87.6,132.745,134.575,170.281Z" transform="translate(-721.949 1218.848)" fill="url(#linear-gradient)"/>
  </g>
</svg>
