<svg xmlns="http://www.w3.org/2000/svg" width="668" height="180.676" viewBox="0 0 668 180.676">
  <g id="Сгруппировать_69" data-name="Сгруппировать 69" transform="translate(1375.655 -1229.784)">
    <g id="Кванториум_SPACE" data-name="Кванториум SPACE" transform="translate(-954.655 -24.878)">
      <text id="Кванториум" transform="translate(-421 1361.662)" fill="#444" font-size="111" font-family="GoogleSans-Bold, Google Sans" font-weight="700"><tspan x="0" y="0">Кванториум</tspan></text>
      <path id="SPACE" d="M25.427,37.929,10.9.253h9.054l9.553,25.272,10-25.272h6.131l10.23,25.272L64.992.253H72.8L58.273,37.929H52.356L42,11.873,31.487,37.929ZM106.076,9.164q0-5.079,1.89-7Q109.98.253,115.418.253h27.76q5.491,0,7.363,1.907,1.979,1.871,1.979,7V29.018q0,5.151-1.979,7.022-1.89,1.889-7.363,1.889h-27.76q-5.42,0-7.452-1.889-1.89-1.925-1.89-7.022Zm8.769,21.69h28.908V6.972H114.844Zm100.592-24.1H195.725V17.273h19.711a5.337,5.337,0,0,0,3.137-.659,2.951,2.951,0,0,0,.8-2.335V9.752a2.884,2.884,0,0,0-.8-2.335A5.337,5.337,0,0,0,215.436,6.758Zm-28.32,31.171V.253H219.3q4.438,0,6.576,1.693,1.96,1.729,1.96,5.614V16.4q0,3.8-1.96,5.543-2.067,1.747-6.576,1.747H214.42L231.8,37.929H219.232l-15.185-14.24h-8.323v14.24Zm73.876,0V.253h8.84v15.7L290.7.253h12.707L278.44,18l28.034,19.925h-14.1L269.832,21.355V37.929ZM365.665,6.83H341v8.109h23.508q5.489,0,7.521,1.889,1.889,1.925,1.889,7v5.186q0,5.1-1.889,7.022-2.032,1.889-7.521,1.889H341.213q-5.525,0-7.45-1.888-1.96-1.87-1.96-7.018V28.008l7.735-1.6v4.446h26.644V22.246H342.675q-5.454,0-7.378-1.891-1.96-1.873-1.96-7.01V9.171q0-5.137,1.96-7.01Q337.2.253,342.675.253h21.387q5.329,0,7.378,1.836Q373.4,3.924,373.4,8.5v.8l-7.735,1.836Zm71.328-.071H417.282v10h19.711a5.337,5.337,0,0,0,3.137-.659,2.884,2.884,0,0,0,.8-2.335V9.752a2.884,2.884,0,0,0-.8-2.335A5.337,5.337,0,0,0,436.993,6.758Zm-28.32,31.171V.253h32.187q4.438,0,6.576,1.693,1.96,1.729,1.96,5.614v8.394q0,3.814-1.96,5.543-2.085,1.764-6.576,1.764H417.282V37.929ZM480.34,22.887h16.486L488.663,7.56ZM463.48,37.929,484.706.253h8.483l21.6,37.676h-9.856l-4.527-8.252H476.544l-4.384,8.252ZM580.646,6.972H557V30.854h23.65V22.745l8.769,1.818v4.456q0,5.115-1.908,7.022-2,1.889-7.435,1.889h-22.5q-5.42,0-7.453-1.889-1.89-1.925-1.89-7.022V9.164q0-5.079,1.89-7Q552.132.253,557.571.253h22.5q5.438,0,7.435,1.907,1.908,1.907,1.908,7v3.582l-8.769,1.39Zm42.99,30.957V.253H662.2V6.669h-29.8v8.412h17.377V21.5H632.405v9.357H662.56v7.075Z" transform="translate(-422.954 1397.409)" fill="#888"/>
    </g>
  </g>
</svg>
