<svg xmlns="http://www.w3.org/2000/svg" xmlns:xlink="http://www.w3.org/1999/xlink" width="225" height="225" viewBox="0 0 225 225">
  <defs>
    <linearGradient id="linear-gradient" x1="0.5" x2="0.5" y2="1" gradientUnits="objectBoundingBox">
      <stop offset="0" stop-color="#fe5505"/>
      <stop offset="1" stop-color="#ca3a00"/>
    </linearGradient>
    <linearGradient id="linear-gradient-2" x1="0.5" x2="0.5" y2="1" gradientUnits="objectBoundingBox">
      <stop offset="0" stop-color="#02309c"/>
      <stop offset="1" stop-color="#07acd9"/>
    </linearGradient>
    <linearGradient id="linear-gradient-3" x1="0.386" y1="1" x2="0.374" gradientUnits="objectBoundingBox">
      <stop offset="0" stop-color="#01652a"/>
      <stop offset="1" stop-color="#18d704"/>
    </linearGradient>
    <linearGradient id="linear-gradient-4" x1="0.611" x2="0.648" y2="1" gradientUnits="objectBoundingBox">
      <stop offset="0" stop-color="#de1f05"/>
      <stop offset="1" stop-color="#8f0300"/>
    </linearGradient>
    <linearGradient id="linear-gradient-5" x1="-0.032" y1="0.463" x2="0.961" y2="0.532" xlink:href="#linear-gradient-3"/>
    <linearGradient id="linear-gradient-6" x1="1" y1="0.5" x2="0" y2="0.5" gradientUnits="objectBoundingBox">
      <stop offset="0" stop-color="#ca3a00"/>
      <stop offset="1" stop-color="#fe5505"/>
    </linearGradient>
    <linearGradient id="linear-gradient-7" y1="1" x2="0.518" y2="0" xlink:href="#linear-gradient-2"/>
    <linearGradient id="linear-gradient-8" x1="0.5" x2="0.5" y2="1" xlink:href="#linear-gradient-4"/>
  </defs>
  <g id="Сгруппировать_82" data-name="Сгруппировать 82" transform="translate(-2626 -1311)">
    <g id="Сгруппировать_81" data-name="Сгруппировать 81">
      <circle id="Эллипс_74" data-name="Эллипс 74" cx="74" cy="74" r="74" transform="translate(2626 1311)" fill="#fff"/>
      <ellipse id="Эллипс_75" data-name="Эллипс 75" cx="74.5" cy="74" rx="74.5" ry="74" transform="translate(2702 1311)" fill="#fff"/>
      <ellipse id="Эллипс_77" data-name="Эллипс 77" cx="74.5" cy="74" rx="74.5" ry="74" transform="translate(2702 1388)" fill="#fff"/>
      <ellipse id="Эллипс_78" data-name="Эллипс 78" cx="74.5" cy="74" rx="74.5" ry="74" transform="translate(2626 1388)" fill="#fff"/>
    </g>
    <g id="Сгруппировать_80" data-name="Сгруппировать 80" transform="translate(2315.5 933.683)">
      <path id="Контур_365" data-name="Контур 365" d="M56-130.9C40-112.7,32.8-93.2,35.9-76.1,40-53,59.9-35.7,84-34.3c8.3.5,18.5-1.4,25-4.7l4-2-4.4-4.7-4.5-4.7-5.4,1.7c-7.6,2.4-19.2,2.2-26.2-.4A39.906,39.906,0,0,1,48.4-75.9c-2.6-10.4-.3-21.5,6.8-32.6,5.4-8.5,8.8-15.6,8.8-18.6s-1.9-8.9-2.8-8.9C60.8-136,58.5-133.7,56-130.9Z" transform="translate(294.849 617.325)"/>
      <path id="Контур_366" data-name="Контур 366" d="M92.2-39.321c16-18.2,23.2-37.7,20.1-54.8-4.1-23.1-24-40.4-48.1-41.8-8.3-.5-18.5,1.4-25,4.7l-4,2,4.4,4.7,4.5,4.7,5.4-1.7c7.6-2.4,19.2-2.2,26.2.4a39.906,39.906,0,0,1,24.1,26.8c2.6,10.4.3,21.5-6.8,32.6-5.4,8.5-8.8,15.6-8.8,18.6s1.9,8.9,2.8,8.9C87.4-34.221,89.7-36.521,92.2-39.321Z" transform="translate(403.849 532.325)"/>
      <path id="Контур_367" data-name="Контур 367" d="M56-130.9C40-112.7,32.8-93.2,35.9-76.1,40-53,59.9-35.7,84-34.3c8.3.5,18.5-1.4,25-4.7l4-2-4.4-4.7-4.5-4.7-5.4,1.7c-7.6,2.4-19.2,2.2-26.2-.4A39.906,39.906,0,0,1,48.4-75.9c-2.6-10.4-.3-21.5,6.8-32.6,5.4-8.5,8.8-15.6,8.8-18.6s-1.9-8.9-2.8-8.9C60.8-136,58.5-133.7,56-130.9Z" transform="translate(551.069 618.299) rotate(-90)"/>
      <path id="Контур_368" data-name="Контур 368" d="M20.8,5.1C4.8,23.3-2.4,42.8.7,59.9c4.1,23.1,24,40.4,48.1,41.8,8.3.5,18.5-1.4,25-4.7l4-2-4.4-4.7-4.5-4.7-5.4,1.7c-7.6,2.4-19.2,2.2-26.2-.4A39.906,39.906,0,0,1,13.2,60.1c-2.6-10.4-.3-21.5,6.8-32.6,5.4-8.5,8.8-15.6,8.8-18.6S26.9,0,26,0C25.6,0,23.3,2.3,20.8,5.1Z" transform="translate(431.849 397.299) rotate(90)"/>
      <path id="Контур_369" data-name="Контур 369" d="M154.5-230.6c-8.2,1.9-17.5,5.5-17.5,6.8,0,.6.7.7,1.8.3,10.2-4.3,16.5-5.8,25.7-6.3,19.3-.8,33.6,4.8,47.5,18.8,12.6,12.6,18,25.1,18.1,41.5.1,19.5-7.4,33.7-29.4,55.9-12.6,12.7-16.7,18.4-6.5,9.1,15.7-14.3,27.4-28.9,32.7-40.8,14.7-32.5-3.9-72-39.2-83.3C177.6-231.8,163.4-232.6,154.5-230.6Z" transform="translate(294.849 617.325)"/>
      <path id="Контур_370" data-name="Контур 370" d="M76-230.5c-19.9,3.6-38.5,19-46.4,38.5-3.6,8.9-5.9,22-5.1,28.9,1.4,12.1,6.4,27.7,9.5,29.6,1.6,1,1.2-1-1.5-6.3a62.241,62.241,0,0,1-5.2-38.4c5.3-25.4,23.6-44.8,47.4-50.2,22.8-5.1,42.7,3,69.7,28.5,4.9,4.6,9.3,8.5,9.7,8.7,5.1,2-15.4-17.4-27.6-26.1-9.4-6.7-20-11.5-29.2-13.3C88.4-232.3,85.9-232.3,76-230.5Z" transform="translate(294.849 617.497)"/>
      <path id="Контур_371" data-name="Контур 371" d="M54.4-142.8c-13.5,13.7-18.9,20.7-23.9,30.6a55.987,55.987,0,0,0-5,38.1C33-38.6,70.1-16,105.4-25.5c7.2-1.9,15.5-5.6,14-6.1-.6-.3-3.3.5-6,1.6C86-18.2,53-28.1,36.4-53.1,24.5-71,22.8-92,31.7-110.8c4-8.5,13.8-20.9,25.4-32.3C63.1-149,68-154,68-154.4,68-156.2,65.3-153.9,54.4-142.8Z" transform="translate(295.492 617.325)"/>
      <path id="Контур_372" data-name="Контур 372" d="M222-121.9a66.156,66.156,0,0,0,2.9,7c11.8,26.3,5.8,54.4-15.9,74.6C199.9-31.8,182.4-25,169.5-25c-16.6,0-34.1-9.3-56-29.5-5.4-5-10.2-9.2-10.6-9.3-2.5-1,1.3,3.2,10.4,11.6,13.3,12.1,20.4,17.3,30.4,22.3,17.2,8.6,35.1,8.5,53-.1,7.2-3.5,10.3-5.8,16.8-12.4,18.8-19,24.1-44.4,14.5-69.8C226.2-117.1,222.1-123.7,222-121.9Z" transform="translate(294.124 617.5)"/>
      <path id="Контур_373" data-name="Контур 373" d="M124.8-160.3c-.4,3.8-5.3,5.1-7.8,2l-1.8-2.1-3.6,1.9a18.421,18.421,0,0,0-3.6,2.2c0,.1.4,1.3.9,2.6.8,2,.5,2.9-1.4,4.7s-2.7,2-4.3,1.1c-2.8-1.5-2.7-1.5-5,2.3l-2,3.4,2.3,2.2c2,1.9,2.1,2.5,1.2,5-.8,2-1.9,3-3.7,3.2-2.2.3-2.5.8-2.8,4.4-.3,3.9-.1,4.2,2.6,4.7,4,.8,5.2,5,2.3,8.1l-2,2.2,2,3.3c1.7,2.8,2.4,3.2,4.7,2.6,3.5-.7,7.7,3.1,6.2,5.5-1.6,2.4-1.2,3.6,1.8,5.1,1.5.7,3,1.5,3.4,1.7.3.2,1.5-.6,2.5-1.7,2.7-2.9,7.7-1.6,8.1,2.2.3,2.5.7,2.7,4.7,2.7s4.4-.2,4.7-2.7c.4-3.8,5.6-5.2,7.9-2.2,1.5,2.1,1.7,2.1,5,.4,1.9-1,3.5-1.9,3.7-2a9.082,9.082,0,0,0-.7-2.8c-.8-2-.6-2.9,1.3-4.6s2.8-2,4.8-1.2c2.3.9,2.7.6,4.7-2.9l2.2-3.9L161-114c-2-1.1-2.6-4.5-1.2-6.7a6.686,6.686,0,0,1,3.5-1.8c2.3-.6,2.7-1.2,2.7-4.5s-.4-3.9-2.7-4.5c-4.7-1.1-6-6-2.3-8.3l2.1-1.3-2.2-3.9c-2-3.5-2.4-3.7-4.5-2.8-2,1-2.8.8-4.9-1.2-1.9-1.7-2.2-2.7-1.5-4.1,1.5-2.7,1.3-3.3-2.5-5.3-3.4-1.9-3.5-1.9-5.2.3-2.6,3-7.7,1.6-8.1-2.2-.3-2.5-.7-2.7-4.7-2.7S125.1-162.8,124.8-160.3Zm15.2,9.4c8.4,4.6,12.7,10.2,14.9,19.2,3.8,15.8-11.8,32.4-28.3,30.2-13.4-1.7-22.6-12.3-22.6-25.9,0-11,6.5-20.1,17.3-24.3C125.2-153.3,136.6-152.7,140-150.9Z" transform="translate(295.541 616.462)"/>
      <path id="Контур_374" data-name="Контур 374" d="M122.9-147.7c-8.8,3.3-13.7,9.3-14.6,18-1,9.5,2.6,16.8,10.4,21.4,9.7,5.7,22.9,2.5,29.1-7,2.3-3.6,2.7-5.3,2.7-11.8,0-6.6-.4-8.1-2.7-11.7C142.5-146.7,131.2-150.8,122.9-147.7Zm9.1,3.1c0,2.2,1.7,2.8,3.9,1.4,2.4-1.4,4.6,0,4.6,3,0,1,.9,1.8,2.3,2,2.5.4,4.8,3.7,3.2,4.7-1.5,1-1.2,3.5.5,3.5q1.5,0,1.5,3t-1.5,3c-1.7,0-2,2.5-.5,3.5,1.6,1-.7,4.3-3.2,4.7-1.4.2-2.3,1-2.3,2.1,0,2.3-3.3,4.3-4.7,2.9-1.3-1.3-3.8-.4-3.8,1.4,0,.8-1,1.4-2.5,1.4s-2.5-.6-2.5-1.4c0-1.8-2.5-2.7-3.8-1.4-1.4,1.4-4.7-.6-4.7-2.9a2.529,2.529,0,0,0-2-2.2c-3-.5-4.5-3.1-3.1-5.4.9-1.4.8-2-.6-2.8-2.2-1.2-2.4-5.9-.3-5.9,1.7,0,2-2.5.5-3.5-1.6-1,.7-4.3,3.2-4.7,1.4-.2,2.3-1,2.3-2,0-3,2.2-4.4,4.6-3,2.2,1.4,3.9.8,3.9-1.4,0-.8,1-1.4,2.5-1.4S132-145.4,132-144.6Z" transform="translate(295.541 616.462)"/>
      <path id="Объединение_57" data-name="Объединение 57" d="M8.467,23.039a15.012,15.012,0,0,1,.547-4.028A11.917,11.917,0,0,1,9.5,17.242c1.1-3.2,1-3.4-4.6-8.8-5.5-5.2-5.6-5.5-4-7.4,1.7-1.8,1.9-1.7,7.5,3.8l5.7,5.6,2.167-.563a15,15,0,1,1-7.8,13.16Z" transform="matrix(-0.998, 0.07, -0.07, -0.998, 398.555, 462.179)"/>
      <path id="Объединение_58" data-name="Объединение 58" d="M-1982.66,21.619c4.214-4.025,6.055-5.915,6.667-7.384a9.453,9.453,0,0,1-1.262-4.734,9.5,9.5,0,0,1,9.5-9.5,9.5,9.5,0,0,1,9.5,9.5,9.5,9.5,0,0,1-9.5,9.5,9.459,9.459,0,0,1-4.667-1.223l-1.238-.158-6.9,6.9c-3.9,3.8-7.6,6.9-8.2,7C-1991.56,31.519-1989.66,28.518-1982.66,21.619Z" transform="translate(2444.273 429.462)"/>
      <path id="Объединение_59" data-name="Объединение 59" d="M7.341,21.619c4.214-4.025,6.055-5.915,6.667-7.384a9.5,9.5,0,1,1,3.571,3.542l-1.238-.158-6.9,6.9c-3.9,3.8-7.6,6.9-8.2,7C-1.56,31.519.34,28.518,7.341,21.619Z" transform="translate(394.896 552.255) rotate(180)"/>
      <path id="Объединение_60" data-name="Объединение 60" d="M8.467,23.039a15.012,15.012,0,0,1,.547-4.028A11.917,11.917,0,0,1,9.5,17.242c1.1-3.2,1-3.4-4.6-8.8-5.5-5.2-5.6-5.5-4-7.4,1.7-1.8,1.9-1.7,7.5,3.8l5.7,5.6,2.167-.563a15,15,0,1,1-7.8,13.16Z" transform="translate(452.028 516.476)"/>
      <path id="Контур_379" data-name="Контур 379" d="M56-130.9C40-112.7,32.8-93.2,35.9-76.1,40-53,59.9-35.7,84-34.3c8.3.5,18.5-1.4,25-4.7l4-2-4.4-4.7-4.5-4.7-5.4,1.7c-7.6,2.4-19.2,2.2-26.2-.4A39.906,39.906,0,0,1,48.4-75.9c-2.6-10.4-.3-21.5,6.8-32.6,5.4-8.5,8.8-15.6,8.8-18.6s-1.9-8.9-2.8-8.9C60.8-136,58.5-133.7,56-130.9Z" transform="translate(294.849 617.325)" fill="url(#linear-gradient)"/>
      <path id="Контур_380" data-name="Контур 380" d="M92.2-39.321c16-18.2,23.2-37.7,20.1-54.8-4.1-23.1-24-40.4-48.1-41.8-8.3-.5-18.5,1.4-25,4.7l-4,2,4.4,4.7,4.5,4.7,5.4-1.7c7.6-2.4,19.2-2.2,26.2.4a39.906,39.906,0,0,1,24.1,26.8c2.6,10.4.3,21.5-6.8,32.6-5.4,8.5-8.8,15.6-8.8,18.6s1.9,8.9,2.8,8.9C87.4-34.221,89.7-36.521,92.2-39.321Z" transform="translate(403.849 532.325)" fill="url(#linear-gradient-2)"/>
      <path id="Контур_381" data-name="Контур 381" d="M56-130.9C40-112.7,32.8-93.2,35.9-76.1,40-53,59.9-35.7,84-34.3c8.3.5,18.5-1.4,25-4.7l4-2-4.4-4.7-4.5-4.7-5.4,1.7c-7.6,2.4-19.2,2.2-26.2-.4A39.906,39.906,0,0,1,48.4-75.9c-2.6-10.4-.3-21.5,6.8-32.6,5.4-8.5,8.8-15.6,8.8-18.6s-1.9-8.9-2.8-8.9C60.8-136,58.5-133.7,56-130.9Z" transform="translate(551.069 618.299) rotate(-90)" fill="url(#linear-gradient-3)"/>
      <path id="Контур_382" data-name="Контур 382" d="M20.8,5.1C4.8,23.3-2.4,42.8.7,59.9c4.1,23.1,24,40.4,48.1,41.8,8.3.5,18.5-1.4,25-4.7l4-2-4.4-4.7-4.5-4.7-5.4,1.7c-7.6,2.4-19.2,2.2-26.2-.4A39.906,39.906,0,0,1,13.2,60.1c-2.6-10.4-.3-21.5,6.8-32.6,5.4-8.5,8.8-15.6,8.8-18.6S26.9,0,26,0C25.6,0,23.3,2.3,20.8,5.1Z" transform="translate(431.849 397.299) rotate(90)" fill="url(#linear-gradient-4)"/>
      <path id="Контур_383" data-name="Контур 383" d="M154.5-230.6c-8.2,1.9-17.5,5.5-17.5,6.8,0,.6.7.7,1.8.3,10.2-4.3,16.5-5.8,25.7-6.3,19.3-.8,33.6,4.8,47.5,18.8,12.6,12.6,18,25.1,18.1,41.5.1,19.5-7.4,33.7-29.4,55.9-12.6,12.7-16.7,18.4-6.5,9.1,15.7-14.3,27.4-28.9,32.7-40.8,14.7-32.5-3.9-72-39.2-83.3C177.6-231.8,163.4-232.6,154.5-230.6Z" transform="translate(294.849 617.325)" fill="#042b9d"/>
      <path id="Контур_384" data-name="Контур 384" d="M76-230.5c-19.9,3.6-38.5,19-46.4,38.5-3.6,8.9-5.9,22-5.1,28.9,1.4,12.1,6.4,27.7,9.5,29.6,1.6,1,1.2-1-1.5-6.3a62.241,62.241,0,0,1-5.2-38.4c5.3-25.4,23.6-44.8,47.4-50.2,22.8-5.1,42.7,3,69.7,28.5,4.9,4.6,9.3,8.5,9.7,8.7,5.1,2-15.4-17.4-27.6-26.1-9.4-6.7-20-11.5-29.2-13.3C88.4-232.3,85.9-232.3,76-230.5Z" transform="translate(294.849 617.497)" fill="#042b9d"/>
      <path id="Контур_385" data-name="Контур 385" d="M54.4-142.8c-13.5,13.7-18.9,20.7-23.9,30.6a55.987,55.987,0,0,0-5,38.1C33-38.6,70.1-16,105.4-25.5c7.2-1.9,15.5-5.6,14-6.1-.6-.3-3.3.5-6,1.6C86-18.2,53-28.1,36.4-53.1,24.5-71,22.8-92,31.7-110.8c4-8.5,13.8-20.9,25.4-32.3C63.1-149,68-154,68-154.4,68-156.2,65.3-153.9,54.4-142.8Z" transform="translate(295.492 617.325)" fill="#042b9d"/>
      <path id="Контур_386" data-name="Контур 386" d="M222-121.9a66.156,66.156,0,0,0,2.9,7c11.8,26.3,5.8,54.4-15.9,74.6C199.9-31.8,182.4-25,169.5-25c-16.6,0-34.1-9.3-56-29.5-5.4-5-10.2-9.2-10.6-9.3-2.5-1,1.3,3.2,10.4,11.6,13.3,12.1,20.4,17.3,30.4,22.3,17.2,8.6,35.1,8.5,53-.1,7.2-3.5,10.3-5.8,16.8-12.4,18.8-19,24.1-44.4,14.5-69.8C226.2-117.1,222.1-123.7,222-121.9Z" transform="translate(294.124 617.5)" fill="#042b9d"/>
      <path id="Контур_387" data-name="Контур 387" d="M124.8-160.3c-.4,3.8-5.3,5.1-7.8,2l-1.8-2.1-3.6,1.9a18.421,18.421,0,0,0-3.6,2.2c0,.1.4,1.3.9,2.6.8,2,.5,2.9-1.4,4.7s-2.7,2-4.3,1.1c-2.8-1.5-2.7-1.5-5,2.3l-2,3.4,2.3,2.2c2,1.9,2.1,2.5,1.2,5-.8,2-1.9,3-3.7,3.2-2.2.3-2.5.8-2.8,4.4-.3,3.9-.1,4.2,2.6,4.7,4,.8,5.2,5,2.3,8.1l-2,2.2,2,3.3c1.7,2.8,2.4,3.2,4.7,2.6,3.5-.7,7.7,3.1,6.2,5.5-1.6,2.4-1.2,3.6,1.8,5.1,1.5.7,3,1.5,3.4,1.7.3.2,1.5-.6,2.5-1.7,2.7-2.9,7.7-1.6,8.1,2.2.3,2.5.7,2.7,4.7,2.7s4.4-.2,4.7-2.7c.4-3.8,5.6-5.2,7.9-2.2,1.5,2.1,1.7,2.1,5,.4,1.9-1,3.5-1.9,3.7-2a9.082,9.082,0,0,0-.7-2.8c-.8-2-.6-2.9,1.3-4.6s2.8-2,4.8-1.2c2.3.9,2.7.6,4.7-2.9l2.2-3.9L161-114c-2-1.1-2.6-4.5-1.2-6.7a6.686,6.686,0,0,1,3.5-1.8c2.3-.6,2.7-1.2,2.7-4.5s-.4-3.9-2.7-4.5c-4.7-1.1-6-6-2.3-8.3l2.1-1.3-2.2-3.9c-2-3.5-2.4-3.7-4.5-2.8-2,1-2.8.8-4.9-1.2-1.9-1.7-2.2-2.7-1.5-4.1,1.5-2.7,1.3-3.3-2.5-5.3-3.4-1.9-3.5-1.9-5.2.3-2.6,3-7.7,1.6-8.1-2.2-.3-2.5-.7-2.7-4.7-2.7S125.1-162.8,124.8-160.3Zm15.2,9.4c8.4,4.6,12.7,10.2,14.9,19.2,3.8,15.8-11.8,32.4-28.3,30.2-13.4-1.7-22.6-12.3-22.6-25.9,0-11,6.5-20.1,17.3-24.3C125.2-153.3,136.6-152.7,140-150.9Z" transform="translate(295.541 616.462)" fill="#042b9d"/>
      <path id="Контур_388" data-name="Контур 388" d="M122.9-147.7c-8.8,3.3-13.7,9.3-14.6,18-1,9.5,2.6,16.8,10.4,21.4,9.7,5.7,22.9,2.5,29.1-7,2.3-3.6,2.7-5.3,2.7-11.8,0-6.6-.4-8.1-2.7-11.7C142.5-146.7,131.2-150.8,122.9-147.7Zm9.1,3.1c0,2.2,1.7,2.8,3.9,1.4,2.4-1.4,4.6,0,4.6,3,0,1,.9,1.8,2.3,2,2.5.4,4.8,3.7,3.2,4.7-1.5,1-1.2,3.5.5,3.5q1.5,0,1.5,3t-1.5,3c-1.7,0-2,2.5-.5,3.5,1.6,1-.7,4.3-3.2,4.7-1.4.2-2.3,1-2.3,2.1,0,2.3-3.3,4.3-4.7,2.9-1.3-1.3-3.8-.4-3.8,1.4,0,.8-1,1.4-2.5,1.4s-2.5-.6-2.5-1.4c0-1.8-2.5-2.7-3.8-1.4-1.4,1.4-4.7-.6-4.7-2.9a2.529,2.529,0,0,0-2-2.2c-3-.5-4.5-3.1-3.1-5.4.9-1.4.8-2-.6-2.8-2.2-1.2-2.4-5.9-.3-5.9,1.7,0,2-2.5.5-3.5-1.6-1,.7-4.3,3.2-4.7,1.4-.2,2.3-1,2.3-2,0-3,2.2-4.4,4.6-3,2.2,1.4,3.9.8,3.9-1.4,0-.8,1-1.4,2.5-1.4S132-145.4,132-144.6Z" transform="translate(295.541 616.462)" fill="#042b9d"/>
      <path id="Контур_389" data-name="Контур 389" d="M157.6-100.2c-1.6,1.9-1.5,2.2,4,7.4,5.6,5.4,5.7,5.6,4.6,8.8-2.8,8,4.511,7.982,11.511,11.682,6.5,3.5,6.117,5.064,11.117-.936,2.6-3-2.845-1.2-2.668-6.628-.059-3.832-1.821-.517-4.221-3.017-4.2-4.3.262-10.8-6.138-9.2l-5,1.3-5.7-5.6C159.5-101.9,159.3-102,157.6-100.2Z" transform="matrix(-0.998, 0.07, -0.07, -0.998, 547.814, 350.252)" fill="#042b9d"/>
      <path id="Контур_394" data-name="Контур 394" d="M15,0A15,15,0,1,1,0,15,15,15,0,0,1,15,0Z" transform="matrix(-0.998, 0.07, -0.07, -0.998, 389.548, 454.75)" fill="url(#linear-gradient-5)"/>
      <path id="Контур_390" data-name="Контур 390" d="M175.7-185c-2.8,2.3-3.6,5.1-2.6,9.2.7,2.5,0,3.5-6.7,9.9-7,6.9-8.9,9.9-6.1,9.9.6-.1,4.3-3.2,8.2-7l6.9-6.9,4.7.6c4.2.5,5.1.2,7.3-2a9.512,9.512,0,0,0,.1-13.2A8.961,8.961,0,0,0,175.7-185Z" transform="translate(295.214 616.981)" fill="#042b9d"/>
      <path id="Контур_393" data-name="Контур 393" d="M9.5,0A9.5,9.5,0,1,1,0,9.5,9.5,9.5,0,0,1,9.5,0Z" transform="translate(467.019 429.462)" fill="url(#linear-gradient-6)"/>
      <path id="Контур_391" data-name="Контур 391" d="M175.7-185c-2.8,2.3-3.6,5.1-2.6,9.2.7,2.5,0,3.5-6.7,9.9-7,6.9-8.9,9.9-6.1,9.9.6-.1,4.3-3.2,8.2-7l6.9-6.9,4.7.6c4.2.5,5.1.2,7.3-2a9.512,9.512,0,0,0,.1-13.2A8.961,8.961,0,0,0,175.7-185Z" transform="translate(553.955 364.736) rotate(180)" fill="#042b9d"/>
      <ellipse id="Эллипс_72" data-name="Эллипс 72" cx="9.5" cy="9.5" rx="9.5" ry="9.5" transform="translate(382.151 552.255) rotate(180)" fill="url(#linear-gradient-7)"/>
      <path id="Контур_392" data-name="Контур 392" d="M157.6-100.2c-1.6,1.9-1.5,2.2,4,7.4,5.6,5.4,5.7,5.6,4.6,8.8-2.8,8,4.511,7.982,11.511,11.682,6.5,3.5,6.117,5.064,11.117-.936,2.6-3-2.845-1.2-2.668-6.628-.059-3.832-1.821-.517-4.221-3.017-4.2-4.3.262-10.8-6.138-9.2l-5,1.3-5.7-5.6C159.5-101.9,159.3-102,157.6-100.2Z" transform="translate(295.325 617.718)" fill="#042b9d"/>
      <ellipse id="Эллипс_73" data-name="Эллипс 73" cx="15" cy="15" rx="15" ry="15" transform="translate(460.495 524.515)" fill="url(#linear-gradient-8)"/>
    </g>
  </g>
</svg>
