<svg id="Capa_1" enable-background="new 0 0 512 512" height="512" viewBox="0 0 512 512" width="512" xmlns="http://www.w3.org/2000/svg"><g><path d="m422.518 512h-333.036c-4.309 0-7.802-3.493-7.802-7.802v-348.77h348.64v348.77c0 4.309-3.493 7.802-7.802 7.802z" fill="#f6f1f1"/><path d="m81.68 155.428v18.284h310.353c9.676 0 17.52 7.844 17.52 17.52v320.768h12.965c4.309 0 7.802-3.493 7.802-7.802v-348.77z" fill="#efe7e4"/><path d="m352.731 0h-263.249c-4.309 0-7.802 3.493-7.802 7.802v147.625h348.64v-106.73z" fill="#78d0b1"/><path d="m370.304 61.369 30.893 20.529c5.219 3.468 8.356 9.319 8.356 15.586v57.944h20.767v-106.731z" fill="#66b49d"/><path d="m352.731 0 15.701 59.105c.932 3.507 4.549 5.576 8.044 4.602l53.845-15.01z" fill="#5493a2"/><g><g><path d="m323.557 324.024c-11.524 0-23.035-.001-34.443-.002-4.267 0-7.725-3.46-7.725-7.727s3.46-7.725 7.726-7.725h.001c31.125.002 63.06.003 93.758-.006h.002c4.267 0 7.725 3.458 7.726 7.724s-3.457 7.727-7.724 7.728c-19.449.006-39.399.008-59.321.008z" fill="#78d0b1"/></g><g><path d="m266.259 324.019-20.767-.003c-4.267-.001-7.726-3.461-7.725-7.727s3.46-7.725 7.726-7.725h.001l20.765.003c4.268 0 7.726 3.459 7.726 7.726.001 4.268-3.458 7.726-7.726 7.726z" fill="#78d0b1"/></g><g><path d="m196.618 324.023c-8.889 0-17.781-.002-26.291-.007-4.267-.002-7.725-3.464-7.722-7.73s3.461-7.722 7.726-7.722h.004c17.015.01 35.555.01 52.552 0h.004c4.266 0 7.724 3.457 7.726 7.722.002 4.267-3.455 7.728-7.722 7.73-8.5.005-17.387.007-26.277.007z" fill="#78d0b1"/></g><g><path d="m382.877 366.401c-.009 0-.016 0-.024 0-14.693-.044-29.385-.073-44.077-.093-4.268-.006-7.722-3.469-7.716-7.736.006-4.264 3.464-7.716 7.726-7.716h.01c14.7.019 29.402.048 44.104.093 4.268.013 7.716 3.483 7.703 7.75-.014 4.258-3.471 7.702-7.726 7.702z" fill="#78d0b1"/></g><g><path d="m243.585 366.323c-4.263 0-7.721-3.453-7.726-7.716-.006-4.268 3.449-7.73 7.716-7.736 23.894-.031 47.787-.043 71.681-.035 4.267.002 7.724 3.463 7.722 7.73-.002 4.266-3.461 7.722-7.726 7.722-.001 0-.002 0-.004 0-23.883-.008-47.769.004-71.653.035-.003 0-.007 0-.01 0z" fill="#78d0b1"/></g><g><path d="m196.842 366.401c-4.259 0-7.716-3.448-7.726-7.709-.01-4.267 3.442-7.733 7.709-7.743 7.541-.017 15.082-.031 22.623-.044h.014c4.261 0 7.718 3.451 7.726 7.713.008 4.267-3.446 7.732-7.713 7.739-7.539.013-15.077.027-22.615.044-.006 0-.012 0-.018 0z" fill="#78d0b1"/></g><g><path d="m129.123 366.401c-4.234 0-7.686-3.412-7.724-7.655-.04-4.268 3.388-7.759 7.654-7.798 14.965-.137 29.515-.137 44.483 0 4.267.039 7.694 3.53 7.654 7.798-.039 4.242-3.491 7.655-7.724 7.655-.025 0-.048 0-.072 0-14.873-.137-29.331-.137-44.198 0-.025 0-.049 0-.073 0z" fill="#78d0b1"/></g><g><path d="m382.877 408.785c-.015 0-.03 0-.045 0-19.345-.112-39.037-.18-58.529-.203-4.268-.005-7.722-3.469-7.717-7.735.005-4.265 3.464-7.717 7.726-7.717h.009c19.515.023 39.231.092 58.6.203 4.268.025 7.706 3.504 7.682 7.771-.026 4.251-3.48 7.681-7.726 7.681z" fill="#78d0b1"/></g><g><path d="m233.399 408.785c-4.246 0-7.701-3.43-7.725-7.682-.024-4.267 3.415-7.746 7.682-7.771 22.202-.127 44.914-.198 67.506-.211h.004c4.266 0 7.724 3.456 7.726 7.722s-3.455 7.728-7.722 7.73c-22.564.013-45.25.085-67.426.211-.015.001-.03.001-.045.001z" fill="#78d0b1"/></g><g><path d="m210.769 408.785c-.027 0-.054 0-.081 0-27.525-.286-54.178-.286-81.482 0-.027 0-.055 0-.082 0-4.23 0-7.68-3.406-7.724-7.646-.045-4.267 3.378-7.762 7.645-7.807 27.412-.286 54.171-.286 81.803 0 4.267.044 7.69 3.539 7.646 7.806-.045 4.24-3.495 7.647-7.725 7.647z" fill="#78d0b1"/></g><g><path d="m250.619 451.169c-4.221 0-7.67-3.393-7.724-7.627-.055-4.267 3.36-7.771 7.627-7.825 33.578-.433 67.743-.433 101.547 0 4.267.054 7.682 3.557 7.627 7.824-.054 4.268-3.578 7.71-7.824 7.627-33.671-.429-67.703-.429-101.151 0-.034.001-.068.001-.102.001z" fill="#78d0b1"/></g><g><path d="m227.608 451.169c-.034 0-.068 0-.103-.001-11.875-.155-23.919-.255-35.796-.298-4.267-.015-7.714-3.487-7.698-7.755.016-4.258 3.472-7.698 7.726-7.698h.029c11.925.043 24.017.144 35.941.3 4.267.055 7.681 3.559 7.625 7.826-.056 4.233-3.504 7.626-7.724 7.626z" fill="#78d0b1"/></g><g><path d="m129.122 451.169c-4.219 0-7.668-3.391-7.724-7.624-.057-4.267 3.356-7.772 7.623-7.828 12.644-.169 25.564-.273 38.4-.309h.023c4.257 0 7.714 3.445 7.726 7.704.012 4.268-3.437 7.736-7.704 7.748-12.783.036-25.648.14-38.239.307-.035.002-.07.002-.105.002z" fill="#78d0b1"/></g><g><g><g><path d="m155.577 275.309h-6.304c-10.764 0-19.521-8.758-19.521-19.521v-10.009c0-1.284-.376-2.525-1.088-3.593l-5.968-8.953c-1.73-2.596-1.73-5.977.001-8.571l5.967-8.951c.712-1.068 1.088-2.311 1.088-3.595v-10.008c0-10.764 8.757-19.521 19.521-19.521h6.304c4.267 0 7.726 3.459 7.726 7.726 0 4.268-3.459 7.726-7.726 7.726h-6.304c-2.243 0-4.068 1.825-4.068 4.068v10.008c0 4.344-1.274 8.551-3.683 12.166l-3.111 4.665 3.111 4.666c2.409 3.613 3.683 7.82 3.683 12.165v10.009c0 2.243 1.825 4.068 4.068 4.068h6.304c4.267 0 7.726 3.459 7.726 7.726s-3.459 7.729-7.726 7.729z" fill="#78d0b1"/></g><g><path d="m231.765 275.309h-6.304c-4.267 0-7.726-3.459-7.726-7.726s3.459-7.726 7.726-7.726h6.304c2.243 0 4.068-1.825 4.068-4.068v-10.009c0-4.345 1.274-8.552 3.684-12.166l3.11-4.665-3.11-4.665c-2.41-3.615-3.684-7.822-3.684-12.166v-10.008c0-2.243-1.825-4.068-4.068-4.068h-6.304c-4.267 0-7.726-3.459-7.726-7.726 0-4.268 3.459-7.726 7.726-7.726h6.304c10.764 0 19.521 8.758 19.521 19.521v10.008c0 1.284.376 2.526 1.089 3.595l5.967 8.951c1.73 2.595 1.731 5.976.001 8.571l-5.968 8.952c-.712 1.068-1.088 2.31-1.088 3.594v10.009c-.001 10.761-8.758 19.518-19.522 19.518z" fill="#78d0b1"/></g></g><g><g><path d="m166.213 254.512h-1.977c-4.267 0-7.726-3.459-7.726-7.726 0-4.268 3.459-7.726 7.726-7.726h1.977c4.267 0 7.726 3.459 7.726 7.726.001 4.268-3.458 7.726-7.726 7.726z" fill="#78d0b1"/></g><g><path d="m191.507 254.512h-1.977c-4.267 0-7.726-3.459-7.726-7.726 0-4.268 3.459-7.726 7.726-7.726h1.977c4.267 0 7.726 3.459 7.726 7.726.001 4.268-3.459 7.726-7.726 7.726z" fill="#78d0b1"/></g><g><path d="m216.801 254.512h-1.977c-4.267 0-7.726-3.459-7.726-7.726 0-4.268 3.459-7.726 7.726-7.726h1.977c4.267 0 7.726 3.459 7.726 7.726.001 4.268-3.458 7.726-7.726 7.726z" fill="#78d0b1"/></g></g></g></g><g><g><g><path d="m156.029 121.733c-24.272 0-44.019-19.746-44.019-44.019 0-24.272 19.747-44.018 44.019-44.018 8.82 0 17.333 2.602 24.617 7.522 3.536 2.389 4.466 7.192 2.076 10.728-2.389 3.535-7.192 4.463-10.727 2.076-4.719-3.189-10.24-4.874-15.966-4.874-15.752 0-28.566 12.814-28.566 28.565s12.815 28.566 28.566 28.566c5.895 0 10.868-1.767 14.779-5.249.764-.68 1.491-1.431 2.163-2.232 2.74-3.271 7.613-3.701 10.884-.959 3.271 2.74 3.7 7.614.959 10.884-1.152 1.375-2.407 2.67-3.729 3.847-6.73 5.995-15.394 9.163-25.056 9.163z" fill="#5493a2"/></g></g><g><g><path d="m224.372 121.733c-11.877 0-23.473-4.971-31.019-13.298-2.866-3.161-2.626-8.047.536-10.913 3.162-2.865 8.048-2.625 10.913.537 4.666 5.148 11.981 8.221 19.569 8.221 7.72 0 13.184-4.761 14.006-9.363.804-4.504-2.978-8.653-10.377-11.382-11.215-4.136-21.172-8.568-21.59-8.755-.372-.166-.73-.361-1.072-.584-7.209-4.701-10.924-12.946-9.693-21.518 1.316-9.171 8.044-16.649 17.556-19.515 19.146-5.766 34.922 7.249 35.585 7.806 3.266 2.745 3.688 7.62.943 10.886-2.736 3.257-7.587 3.685-10.853.97-.251-.202-10.266-8.164-21.217-4.865-5.401 1.627-6.497 5.376-6.718 6.913-.347 2.419.552 4.656 2.419 6.082 2.372 1.04 10.857 4.713 19.988 8.08 17.534 6.468 21.953 19.013 20.241 28.597-2.286 12.807-14.573 22.101-29.217 22.101z" fill="#5493a2"/></g></g><g><g><path d="m291.536 121.733c-11.877 0-23.473-4.971-31.019-13.298-2.865-3.162-2.625-8.048.537-10.913 3.16-2.863 8.047-2.627 10.913.537 4.665 5.148 11.981 8.221 19.568 8.221 7.72 0 13.184-4.761 14.006-9.363.804-4.504-2.978-8.653-10.377-11.382-11.215-4.136-21.172-8.568-21.59-8.755-.372-.166-.73-.361-1.071-.584-7.21-4.701-10.925-12.946-9.694-21.518 1.317-9.171 8.044-16.649 17.557-19.515 19.137-5.765 34.921 7.249 35.583 7.806 3.267 2.746 3.688 7.62.943 10.886-2.736 3.256-7.587 3.686-10.853.97-.253-.204-10.265-8.167-21.216-4.865-5.401 1.627-6.497 5.376-6.718 6.913-.347 2.419.552 4.656 2.419 6.082 2.371 1.04 10.856 4.713 19.988 8.08 17.533 6.468 21.953 19.013 20.241 28.597-2.286 12.807-14.573 22.101-29.217 22.101z" fill="#5493a2"/></g></g></g></g></svg>