<svg id="Capa_1" enable-background="new 0 0 512 512" height="512" viewBox="0 0 512 512" width="512" xmlns="http://www.w3.org/2000/svg"><g><path d="m422.518 512h-333.036c-4.309 0-7.802-3.493-7.802-7.802v-348.77h348.64v348.77c0 4.309-3.493 7.802-7.802 7.802z" fill="#f6f1f1"/><path d="m81.68 155.428v18.284h310.353c9.676 0 17.52 7.844 17.52 17.52v320.768h12.965c4.309 0 7.802-3.493 7.802-7.802v-348.77z" fill="#efe7e4"/><path d="m352.731 0h-263.249c-4.309 0-7.802 3.493-7.802 7.802v147.625h348.64v-106.73z" fill="#78d0b1"/><path d="m370.304 61.369 30.893 20.529c5.219 3.468 8.356 9.319 8.356 15.586v57.944h20.767v-106.731z" fill="#66b49d"/><path d="m352.731 0 15.701 59.105c.932 3.507 4.549 5.576 8.044 4.602l53.845-15.01z" fill="#5493a2"/><g><g><g><path d="m119.736 121.733c-4.267 0-7.726-3.459-7.726-7.726v-72.586c0-4.268 3.459-7.726 7.726-7.726s7.726 3.459 7.726 7.726v72.586c0 4.267-3.459 7.726-7.726 7.726z" fill="#5493a2"/></g></g><g><g><path d="m177.305 121.733c-24.272 0-44.019-19.746-44.019-44.019s19.746-44.019 44.019-44.019c8.819 0 17.331 2.601 24.617 7.522 3.536 2.388 4.466 7.191 2.077 10.727-2.388 3.536-7.189 4.465-10.727 2.077-4.721-3.189-10.242-4.874-15.967-4.874-15.752 0-28.566 12.815-28.566 28.566s12.814 28.566 28.566 28.566c5.896 0 10.869-1.767 14.78-5.249.763-.679 1.491-1.432 2.164-2.234 2.74-3.269 7.615-3.697 10.885-.956 3.27 2.742 3.697 7.616.955 10.885-1.152 1.374-2.406 2.667-3.726 3.843-6.731 5.997-15.396 9.165-25.058 9.165z" fill="#5493a2"/></g></g><g><path d="m252.783 121.733c-24.272 0-44.019-19.746-44.019-44.019s19.747-44.019 44.019-44.019c24.273 0 44.019 19.746 44.019 44.019s-19.746 44.019-44.019 44.019zm0-72.586c-15.752 0-28.566 12.815-28.566 28.566s12.815 28.566 28.566 28.566 28.566-12.815 28.566-28.566-12.814-28.566-28.566-28.566z" fill="#5493a2"/></g></g><path d="m356.401 441.794h-200.802c-4.241 0-7.679-3.438-7.679-7.679v-200.803c0-4.241 3.438-7.679 7.679-7.679h200.803c4.241 0 7.679 3.438 7.679 7.679v200.803c0 4.241-3.438 7.679-7.68 7.679z" fill="#78d0b1"/><path d="m356.401 225.633h-23.121c4.241 0 7.679 3.438 7.679 7.679v200.803c0 4.241-3.438 7.679-7.679 7.679h23.122c4.241 0 7.679-3.438 7.679-7.679v-200.803c0-4.241-3.438-7.679-7.68-7.679z" fill="#66b49d"/><g><path d="m287.696 324.794-23.7-41.049c-3.554-6.156-12.439-6.156-15.993 0l-23.7 41.049c-2.9 5.023-9.657 6.16-14.041 2.363l-14.888-12.893c-5.98-5.179-15.279-.931-15.279 6.98v57.823c0 5.1 4.134 9.234 9.234 9.234h133.341c5.1 0 9.234-4.134 9.234-9.234v-57.823c0-7.911-9.298-12.159-15.279-6.98l-14.888 12.893c-4.383 3.797-11.141 2.659-14.041-2.363z" fill="#f6e266"/><g fill="#f1d333"><path d="m267.53 324.794c2.9 5.022 9.657 6.16 14.041 2.363l4.993-4.324-22.568-39.088c-3.554-6.156-12.439-6.156-15.993 0l-2.087 3.614z"/><path d="m316.626 314.263-5.214 4.515c.208.773.326 1.595.326 2.465v57.823c0 5.099-4.134 9.234-9.234 9.234h20.167c5.1 0 9.234-4.134 9.234-9.234v-57.823c-.001-7.911-9.299-12.159-15.279-6.98z"/></g><g><path d="m256 366.403c-4.267 0-7.726-3.459-7.726-7.726v-10.628c0-4.268 3.459-7.726 7.726-7.726s7.727 3.459 7.727 7.726v10.628c0 4.267-3.46 7.726-7.727 7.726z" fill="#78d0b1"/></g></g></g></svg>