<svg id="Capa_1" enable-background="new 0 0 512 512" height="512" viewBox="0 0 512 512" width="512" xmlns="http://www.w3.org/2000/svg"><g><path d="m422.518 512h-333.036c-4.309 0-7.802-3.493-7.802-7.802v-348.77h348.64v348.77c0 4.309-3.493 7.802-7.802 7.802z" fill="#f6f1f1"/><path d="m81.68 155.428v18.284h310.353c9.676 0 17.52 7.844 17.52 17.52v320.768h12.965c4.309 0 7.802-3.493 7.802-7.802v-348.77z" fill="#efe7e4"/><path d="m352.731 0h-263.249c-4.309 0-7.802 3.493-7.802 7.802v147.625h348.64v-106.73z" fill="#f6e266"/><path d="m370.304 61.369 30.893 20.529c5.219 3.468 8.356 9.319 8.356 15.586v57.944h20.767v-106.731z" fill="#f1d333"/><path d="m352.731 0 15.701 59.105c.932 3.507 4.549 5.576 8.044 4.602l53.845-15.01z" fill="#ecc32e"/><g><path d="m359.423 408.118h-206.846c-5.493 0-9.946-4.453-9.946-9.946v-128.917c0-5.493 4.453-9.946 9.946-9.946h206.846c5.493 0 9.946 4.453 9.946 9.946v128.918c0 5.492-4.453 9.945-9.946 9.945z" fill="#f6e781"/><path d="m359.423 259.309h-22.895c5.493 0 9.946 4.453 9.946 9.946v128.918c0 5.493-4.453 9.946-9.946 9.946h22.895c5.493 0 9.946-4.453 9.946-9.946v-128.918c0-5.493-4.453-9.946-9.946-9.946z" fill="#f6e266"/><path d="m294.384 307.487c-2.22-3.646-6.975-4.799-10.618-2.581-3.645 2.219-4.801 6.973-2.581 10.618l56.38 92.595h18.092z" fill="#f1d333"/><path d="m228.234 304.906c-3.643-2.217-8.397-1.063-10.618 2.581l-61.273 100.631h18.092l56.38-92.595c2.22-3.645 1.064-8.398-2.581-10.617z" fill="#f1d333"/><path d="m369.369 294.093-113.369 29.157-113.369-29.157v-24.838c0-5.493 4.453-9.946 9.946-9.946h206.846c5.493 0 9.946 4.453 9.946 9.946z" fill="#f6e266"/><path d="m359.423 259.309h-22.895c5.493 0 9.946 4.453 9.946 9.946v30.726l22.895-5.888v-24.838c0-5.493-4.453-9.946-9.946-9.946z" fill="#f1d333"/></g><g><g><g><path d="m209.61 121.733c-4.03 0-7.594-2.56-8.877-6.384-.031-.091-.059-.182-.087-.274l-13.47-45.655-8.192 45.392c-.758 4.2-4.785 6.988-8.976 6.231-4.199-.758-6.989-4.777-6.231-8.976l12.758-70.684c.821-4.265 4.345-7.379 8.588-7.663 4.244-.291 8.15 2.331 9.505 6.362.03.091.059.182.087.275l14.797 50.155 14.276-50.076c.026-.089.053-.178.081-.267 1.313-4.042 5.218-6.699 9.435-6.46 4.243.239 7.801 3.315 8.651 7.479l13.531 70.801c.801 4.192-1.948 8.238-6.139 9.039-4.184.805-8.238-1.946-9.039-6.138l-8.699-45.521-13.006 45.622c-.026.089-.052.177-.081.266-1.249 3.852-4.811 6.455-8.86 6.476-.018 0-.036 0-.052 0z" fill="#ecc32e"/></g></g><g><g><path d="m277.945 121.737c-7.979 0-8.453-.081-9.007-.177-3.708-.638-6.418-3.852-6.418-7.615v-72.523c0-4.268 3.459-7.726 7.726-7.726s7.726 3.459 7.726 7.726v64.858c4.876-.003 11.495-.027 17.647-.061h.044c4.246 0 7.701 3.431 7.725 7.683.024 4.267-3.417 7.745-7.683 7.77-8.258.045-13.891.065-17.76.065z" fill="#ecc32e"/></g></g><g><g><path d="m150.041 121.402h-30.305c-4.268 0-7.726-3.459-7.726-7.726v-71.923c0-4.268 3.459-7.726 7.726-7.726h30.305c4.268 0 7.726 3.459 7.726 7.726s-3.459 7.726-7.726 7.726h-22.578v56.47h22.578c4.268 0 7.726 3.459 7.726 7.726 0 4.268-3.459 7.727-7.726 7.727z" fill="#ecc32e"/></g><g><path d="m147.806 85.44h-28.07c-4.268 0-7.726-3.459-7.726-7.726s3.459-7.726 7.726-7.726h28.07c4.268 0 7.726 3.459 7.726 7.726s-3.458 7.726-7.726 7.726z" fill="#ecc32e"/></g></g></g></g></svg>