<svg id="Capa_1" enable-background="new 0 0 512 512" height="512" viewBox="0 0 512 512" width="512" xmlns="http://www.w3.org/2000/svg"><g><path d="m422.518 512h-333.036c-4.309 0-7.802-3.493-7.802-7.802v-348.77h348.64v348.77c0 4.309-3.493 7.802-7.802 7.802z" fill="#f6f1f1"/><path d="m81.68 155.428v18.284h310.353c9.676 0 17.52 7.844 17.52 17.52v320.768h12.965c4.309 0 7.802-3.493 7.802-7.802v-348.77z" fill="#efe7e4"/><path d="m352.731 0h-263.249c-4.309 0-7.802 3.493-7.802 7.802v147.625h348.64v-106.73z" fill="#78d0b1"/><path d="m370.304 61.369 30.893 20.529c5.219 3.468 8.356 9.319 8.356 15.586v57.944h20.767v-106.731z" fill="#66b49d"/><path d="m352.731 0 15.701 59.105c.932 3.507 4.549 5.576 8.044 4.602l53.845-15.01z" fill="#5493a2"/><g><g><g><path d="m210.882 121.737c-7.979 0-8.453-.082-9.007-.177-3.708-.637-6.418-3.853-6.418-7.615v-72.524c0-4.267 3.459-7.726 7.726-7.726s7.726 3.459 7.726 7.726v64.859c4.876-.003 11.495-.027 17.647-.061h.044c4.246 0 7.701 3.431 7.725 7.683.024 4.267-3.417 7.745-7.683 7.77-8.258.046-13.892.065-17.76.065z" fill="#5493a2"/></g></g><g><g><path d="m274.81 121.733c-11.878 0-23.474-4.971-31.02-13.298-2.865-3.162-2.625-8.048.537-10.913 3.16-2.864 8.047-2.626 10.913.537 4.665 5.148 11.981 8.221 19.569 8.221 7.72 0 13.183-4.761 14.005-9.363.804-4.505-2.978-8.653-10.376-11.382-11.215-4.137-21.172-8.569-21.591-8.756-.372-.166-.73-.361-1.071-.584-7.21-4.7-10.925-12.946-9.694-21.518 1.317-9.171 8.044-16.648 17.557-19.514 19.141-5.766 34.922 7.248 35.585 7.805 3.266 2.745 3.688 7.619.943 10.886-2.737 3.257-7.587 3.686-10.853.971-.247-.2-10.263-8.163-21.217-4.866-5.401 1.627-6.497 5.377-6.717 6.913-.348 2.419.551 4.655 2.418 6.082 2.372 1.04 10.858 4.714 19.99 8.082 17.533 6.467 21.952 19.012 20.24 28.596-2.288 12.806-14.576 22.101-29.218 22.101z" fill="#5493a2"/></g></g><g><g><path d="m177.104 121.733c-2.431 0-4.822-1.143-6.326-3.281l-51.061-72.585c-2.456-3.49-1.617-8.31 1.873-10.765 3.494-2.455 8.311-1.615 10.765 1.874l51.061 72.585c2.456 3.49 1.617 8.31-1.873 10.765-1.352.95-2.904 1.407-4.439 1.407z" fill="#5493a2"/></g><g><path d="m122.363 121.733c-1.537 0-3.09-.458-4.443-1.41-3.489-2.458-4.324-7.278-1.866-10.766l51.134-72.585c2.456-3.488 7.275-4.324 10.766-1.867 3.489 2.458 4.324 7.278 1.866 10.766l-51.133 72.585c-1.505 2.136-3.896 3.277-6.324 3.277z" fill="#5493a2"/></g></g></g><g><path d="m127.333 209.973h50.531v250.56h-50.531z" fill="#78d0b1"/><path d="m177.865 209.973h201.077v49.483h-201.077z" fill="#78d0b1"/><path d="m177.865 259.456h202.126v201.077h-202.126z" fill="#efe7e4"/><g><path d="m379.991 468.259h-252.657c-4.268 0-7.726-3.459-7.726-7.726v-250.56c0-4.267 3.459-7.726 7.726-7.726h252.657c4.268 0 7.726 3.459 7.726 7.726v250.56c0 4.267-3.459 7.726-7.726 7.726zm-244.931-15.453h237.204v-235.107h-237.204z" fill="#66b49d"/></g><g><g><path d="m127.334 468.259c-4.268 0-7.726-3.459-7.726-7.726v-250.56c0-4.267 3.459-7.726 7.726-7.726s7.726 3.459 7.726 7.726v250.56c0 4.267-3.459 7.726-7.726 7.726z" fill="#66b49d"/></g><g><path d="m177.865 468.259c-4.268 0-7.726-3.459-7.726-7.726v-250.56c0-4.267 3.459-7.726 7.726-7.726 4.268 0 7.726 3.459 7.726 7.726v250.56c0 4.267-3.459 7.726-7.726 7.726z" fill="#66b49d"/></g><g><path d="m228.396 468.259c-4.268 0-7.726-3.459-7.726-7.726v-250.56c0-4.267 3.459-7.726 7.726-7.726 4.268 0 7.726 3.459 7.726 7.726v250.56c0 4.267-3.458 7.726-7.726 7.726z" fill="#66b49d"/></g><g><path d="m278.927 468.259c-4.268 0-7.726-3.459-7.726-7.726v-250.56c0-4.267 3.459-7.726 7.726-7.726 4.268 0 7.726 3.459 7.726 7.726v250.56c.001 4.267-3.458 7.726-7.726 7.726z" fill="#66b49d"/></g><g><path d="m329.458 468.259c-4.268 0-7.726-3.459-7.726-7.726v-250.56c0-4.267 3.459-7.726 7.726-7.726 4.268 0 7.726 3.459 7.726 7.726v250.56c.001 4.267-3.458 7.726-7.726 7.726z" fill="#66b49d"/></g><g><path d="m379.991 468.259c-4.268 0-7.726-3.459-7.726-7.726v-250.56c0-4.267 3.459-7.726 7.726-7.726s7.726 3.459 7.726 7.726v250.56c0 4.267-3.459 7.726-7.726 7.726z" fill="#66b49d"/></g></g><g><g><path d="m378.941 267.182h-250.559c-4.268 0-7.726-3.459-7.726-7.726s3.459-7.726 7.726-7.726h250.559c4.268 0 7.726 3.459 7.726 7.726.001 4.268-3.458 7.726-7.726 7.726z" fill="#66b49d"/></g><g><path d="m378.941 317.714h-250.559c-4.268 0-7.726-3.459-7.726-7.726s3.459-7.726 7.726-7.726h250.559c4.268 0 7.726 3.459 7.726 7.726s-3.458 7.726-7.726 7.726z" fill="#66b49d"/></g><g><path d="m378.941 368.245h-250.559c-4.268 0-7.726-3.459-7.726-7.726s3.459-7.726 7.726-7.726h250.559c4.268 0 7.726 3.459 7.726 7.726s-3.458 7.726-7.726 7.726z" fill="#66b49d"/></g><g><path d="m378.941 418.776h-250.559c-4.268 0-7.726-3.459-7.726-7.726s3.459-7.726 7.726-7.726h250.559c4.268 0 7.726 3.459 7.726 7.726s-3.458 7.726-7.726 7.726z" fill="#66b49d"/></g></g></g></g></svg>