<svg id="Capa_1" enable-background="new 0 0 512 512" height="512" viewBox="0 0 512 512" width="512" xmlns="http://www.w3.org/2000/svg"><g><path d="m422.518 512h-333.036c-4.309 0-7.802-3.493-7.802-7.802v-348.77h348.64v348.77c0 4.309-3.493 7.802-7.802 7.802z" fill="#f6f1f1"/><path d="m81.68 155.428v18.284h310.353c9.676 0 17.52 7.844 17.52 17.52v320.768h12.965c4.309 0 7.802-3.493 7.802-7.802v-348.77z" fill="#efe7e4"/><path d="m352.731 0h-263.249c-4.309 0-7.802 3.493-7.802 7.802v147.625h348.64v-106.73z" fill="#dd636e"/><path d="m370.304 61.369 30.893 20.529c5.219 3.468 8.356 9.319 8.356 15.586v57.944h20.767v-106.731z" fill="#da4a54"/><path d="m352.731 0 15.701 59.105c.932 3.507 4.549 5.576 8.044 4.602l53.845-15.01z" fill="#d82e3d"/><g><g><g><path d="m183.458 121.733c-4.268 0-7.726-3.459-7.726-7.726v-72.586c0-4.268 3.459-7.726 7.726-7.726s7.726 3.459 7.726 7.726v72.586c.001 4.267-3.458 7.726-7.726 7.726z" fill="#d82e3d"/></g><g><path d="m233.689 121.733c-4.268 0-7.726-3.459-7.726-7.726v-72.586c0-4.268 3.459-7.726 7.726-7.726 4.268 0 7.726 3.459 7.726 7.726v72.586c0 4.267-3.459 7.726-7.726 7.726z" fill="#d82e3d"/></g><g><path d="m233.689 84.195h-50.23c-4.268 0-7.726-3.459-7.726-7.726 0-4.268 3.459-7.726 7.726-7.726h50.23c4.268 0 7.726 3.459 7.726 7.726 0 4.268-3.459 7.726-7.726 7.726z" fill="#d82e3d"/></g></g><g><g><path d="m119.736 121.733c-4.268 0-7.726-3.459-7.726-7.726v-72.586c0-4.268 3.459-7.726 7.726-7.726 4.268 0 7.726 3.459 7.726 7.726v72.586c0 4.267-3.458 7.726-7.726 7.726z" fill="#d82e3d"/></g><g><path d="m119.877 90.206c-2.032 0-3.983-.801-5.43-2.229-1.458-1.441-2.284-3.4-2.297-5.45 0 0-.141-41.079-.141-41.081-.006-2.053.805-4.024 2.255-5.479s3.419-2.272 5.472-2.272h20.211c15.776 0 28.611 12.655 28.611 28.21s-12.835 28.21-28.611 28.21c-5.597 0-20.019.091-20.022.091-.016 0-.032 0-.048 0zm7.609-41.059c.013 4.712.051 21.053.074 25.561 4.375-.023 9.527-.046 12.387-.046 7.133 0 13.158-5.842 13.158-12.758s-6.025-12.758-13.158-12.758h-12.461z" fill="#d82e3d"/></g></g><g><g><path d="m260.555 121.733c-4.268 0-7.726-3.459-7.726-7.726v-72.586c0-4.268 3.459-7.726 7.726-7.726s7.726 3.459 7.726 7.726v72.586c0 4.267-3.458 7.726-7.726 7.726z" fill="#d82e3d"/></g><g><path d="m260.696 90.206c-2.032 0-3.983-.801-5.43-2.229-1.458-1.441-2.284-3.4-2.297-5.45 0 0-.091-14.906-.091-20.622 0-4.677-.05-20.458-.05-20.46-.006-2.053.805-4.024 2.255-5.479s3.419-2.272 5.472-2.272h20.21c15.777 0 28.612 12.655 28.612 28.21s-12.835 28.21-28.612 28.21c-5.597 0-20.021.091-20.021.091-.016.001-.032.001-.048.001zm7.608-41.059c.013 4.712.027 10.284.027 12.758 0 2.933.024 8.296.047 12.804 4.374-.023 9.527-.046 12.386-.046 7.133 0 13.159-5.842 13.159-12.758s-6.026-12.758-13.159-12.758z" fill="#d82e3d"/></g></g></g><g><g><g><g><g><path d="m231.891 268.671c-1.315 0-2.647-.335-3.865-1.041-3.693-2.139-4.953-6.866-2.814-10.558l16.616-28.685-16.546-27.445c-2.203-3.654-1.027-8.402 2.628-10.606 3.654-2.202 8.403-1.026 10.606 2.628l18.904 31.355c1.455 2.411 1.481 5.425.069 7.861l-18.904 32.636c-1.433 2.474-4.028 3.855-6.694 3.855z" fill="#dd636e"/></g></g><g><g><path d="m148.036 268.671c-2.666 0-5.26-1.381-6.693-3.855l-18.904-32.636c-1.411-2.437-1.385-5.45.069-7.861l18.904-31.355c2.203-3.655 6.955-4.83 10.606-2.628 3.655 2.203 4.831 6.952 2.628 10.606l-16.546 27.445 16.616 28.685c2.139 3.692.879 8.42-2.814 10.558-1.219.705-2.551 1.041-3.866 1.041z" fill="#dd636e"/></g></g></g><g><g><g><path d="m189.963 250.201c-4.268 0-7.726-3.459-7.726-7.726v-15.273c0-4.268 3.459-7.726 7.726-7.726 2.449 0 4.727-.98 6.417-2.76 1.687-1.779 2.546-4.112 2.419-6.57-.238-4.6-4.037-8.275-8.649-8.367-4.483-.073-8.333 3.179-8.951 7.603-.056.408-.086.826-.086 1.244 0 4.268-3.459 7.726-7.726 7.726s-7.726-3.459-7.726-7.726c0-1.132.078-2.27.234-3.381 1.675-12.006 11.977-20.92 24.068-20.92.166 0 .33.001.497.005 12.673.254 23.114 10.363 23.771 23.014.349 6.732-2.01 13.13-6.645 18.011-2.747 2.894-6.166 5.046-9.897 6.303v8.817c.001 4.267-3.458 7.726-7.726 7.726z" fill="#dd636e"/></g></g><g><path d="m189.963 271.573c-4.268 0-7.726-3.459-7.726-7.726v-1.818c0-4.268 3.459-7.726 7.726-7.726s7.726 3.459 7.726 7.726v1.818c.001 4.267-3.458 7.726-7.726 7.726z" fill="#dd636e"/></g></g></g><g><path d="m323.557 324.024c-11.524 0-23.035-.001-34.443-.002-4.267 0-7.725-3.46-7.725-7.727s3.46-7.725 7.726-7.725h.001c31.124.002 63.059.003 93.758-.006h.002c4.267 0 7.725 3.458 7.726 7.724s-3.457 7.727-7.724 7.728c-19.449.006-39.399.008-59.321.008z" fill="#dd636e"/></g><g><path d="m266.259 324.019h-.001l-20.766-.003c-4.268-.001-7.726-3.461-7.725-7.727s3.46-7.725 7.726-7.725h.001l20.766.003c4.268.001 7.726 3.461 7.725 7.727s-3.459 7.725-7.726 7.725z" fill="#dd636e"/></g><g><path d="m196.618 324.023c-8.889 0-17.781-.002-26.291-.007-4.268-.002-7.724-3.464-7.722-7.73s3.462-7.722 7.726-7.722h.004c17.014.01 35.554.01 52.552 0h.004c4.266 0 7.724 3.457 7.726 7.722.002 4.267-3.455 7.728-7.722 7.73-8.5.005-17.387.007-26.277.007z" fill="#dd636e"/></g><g><path d="m382.877 366.401c-.009 0-.016 0-.024 0-14.693-.044-29.385-.073-44.077-.093-4.268-.006-7.722-3.469-7.716-7.736.006-4.264 3.464-7.716 7.726-7.716h.01c14.7.019 29.402.048 44.104.093 4.268.013 7.716 3.483 7.703 7.75-.014 4.258-3.471 7.702-7.726 7.702z" fill="#dd636e"/></g><g><path d="m243.585 366.323c-4.263 0-7.72-3.453-7.726-7.716-.006-4.268 3.449-7.73 7.716-7.736 23.894-.031 47.788-.044 71.681-.035 4.267.002 7.724 3.463 7.722 7.73-.002 4.266-3.461 7.722-7.726 7.722-.001 0-.002 0-.004 0-23.883-.009-47.769.005-71.653.035-.003 0-.007 0-.01 0z" fill="#dd636e"/></g><g><path d="m196.842 366.401c-4.26 0-7.716-3.448-7.726-7.709-.01-4.267 3.442-7.733 7.709-7.743 7.541-.017 15.083-.032 22.624-.044h.012c4.262 0 7.719 3.451 7.726 7.714.007 4.267-3.447 7.731-7.714 7.738-7.537.012-15.074.027-22.614.044-.005 0-.012 0-.017 0z" fill="#dd636e"/></g><g><path d="m129.123 366.401c-4.234 0-7.686-3.412-7.725-7.655-.039-4.268 3.388-7.759 7.655-7.798 14.964-.137 29.514-.137 44.484 0 4.267.039 7.694 3.53 7.655 7.798-.039 4.242-3.491 7.655-7.725 7.655-.024 0-.047 0-.072 0-14.873-.137-29.331-.137-44.198 0-.025 0-.049 0-.074 0z" fill="#dd636e"/></g><g><path d="m382.877 408.785c-.015 0-.03 0-.045 0-19.272-.112-38.964-.18-58.529-.204-4.268-.005-7.722-3.469-7.717-7.735.005-4.265 3.464-7.717 7.726-7.717h.01c19.59.024 39.305.093 58.599.204 4.268.025 7.706 3.504 7.682 7.771-.026 4.251-3.48 7.681-7.726 7.681z" fill="#dd636e"/></g><g><path d="m233.399 408.785c-4.246 0-7.701-3.43-7.725-7.682-.024-4.267 3.415-7.746 7.682-7.771 22.201-.127 44.913-.198 67.506-.211h.004c4.266 0 7.724 3.456 7.726 7.722s-3.455 7.728-7.722 7.73c-22.565.013-45.251.085-67.426.211-.015.001-.03.001-.045.001z" fill="#dd636e"/></g><g><path d="m210.769 408.785c-.027 0-.054 0-.081 0-27.526-.286-54.18-.286-81.483 0-.027 0-.055 0-.082 0-4.229 0-7.68-3.406-7.724-7.646-.044-4.267 3.379-7.762 7.646-7.807 27.412-.286 54.171-.286 81.803 0 4.268.044 7.69 3.539 7.647 7.806-.046 4.241-3.496 7.647-7.726 7.647z" fill="#dd636e"/></g><g><path d="m250.618 451.169c-4.221 0-7.669-3.393-7.723-7.627-.055-4.267 3.359-7.771 7.626-7.825 33.58-.433 67.746-.433 101.548 0 4.267.054 7.682 3.557 7.627 7.824-.054 4.268-3.597 7.687-7.824 7.627-33.671-.429-67.702-.429-101.152 0-.034.001-.068.001-.102.001z" fill="#dd636e"/></g><g><path d="m227.608 451.169c-.034 0-.068 0-.103-.001-11.875-.155-23.919-.255-35.796-.298-4.267-.015-7.713-3.487-7.698-7.755.015-4.258 3.472-7.698 7.725-7.698h.029c11.925.043 24.017.144 35.941.3 4.267.055 7.681 3.559 7.625 7.826-.055 4.233-3.502 7.626-7.723 7.626z" fill="#dd636e"/></g><g><path d="m129.122 451.169c-4.219 0-7.667-3.391-7.723-7.624-.057-4.267 3.356-7.772 7.623-7.828 12.611-.168 25.53-.273 38.4-.31h.022c4.258 0 7.714 3.445 7.726 7.704.012 4.267-3.437 7.736-7.704 7.748-12.816.037-25.681.141-38.239.308-.034.002-.07.002-.105.002z" fill="#dd636e"/></g></g></g></svg>