<svg id="Capa_1" enable-background="new 0 0 497 497" height="512" viewBox="0 0 497 497" width="512" xmlns="http://www.w3.org/2000/svg"><g><path d="m410.139 497h-323.278c-4.183 0-7.574-3.391-7.574-7.574v-338.552h338.427v338.552c-.001 4.183-3.392 7.574-7.575 7.574z" fill="#f6f1f1"/><path d="m79.287 150.874v17.748h301.261c9.393 0 17.007 7.614 17.007 17.007v311.371h12.585c4.183 0 7.574-3.391 7.574-7.574v-338.552z" fill="#efe7e4"/><path d="m342.397 0h-255.536c-4.183 0-7.574 3.391-7.574 7.574v143.3h338.427v-103.604z" fill="#e7a561"/><path d="m359.456 59.571 29.988 19.927c5.066 3.367 8.111 9.046 8.111 15.129v56.246h20.159v-103.603z" fill="#e49542"/><path d="m342.397 0 15.241 57.373c.904 3.404 4.416 5.413 7.808 4.467l52.268-14.571z" fill="#e28424"/><g><g><path d="m314.078 314.531c-11.187 0-22.36-.001-33.434-.002-4.142 0-7.499-3.358-7.499-7.501 0-4.142 3.358-7.499 7.5-7.499h.001c30.212.002 61.212.003 91.011-.006h.002c4.142 0 7.499 3.356 7.5 7.498s-3.355 7.501-7.498 7.502c-18.879.006-38.245.008-57.583.008z" fill="#e7a561"/></g><g><path d="m258.459 314.527-20.159-.004c-4.143-.001-7.499-3.36-7.498-7.502s3.358-7.498 7.5-7.498h.002l20.156.004c4.143.001 7.5 3.359 7.499 7.501s-3.359 7.499-7.5 7.499z" fill="#e7a561"/></g><g><path d="m190.858 314.53c-8.629 0-17.26-.003-25.521-.007-4.143-.002-7.498-3.362-7.496-7.504.002-4.141 3.36-7.496 7.5-7.496h.004c16.516.008 34.513.008 51.013 0h.004c4.141 0 7.498 3.355 7.5 7.496.002 4.142-3.354 7.502-7.496 7.504-8.252.004-16.879.007-25.508.007z" fill="#e7a561"/></g><g><path d="m371.659 355.666c-.007 0-.015 0-.022 0-14.262-.042-28.524-.071-42.785-.089-4.143-.005-7.496-3.367-7.491-7.509.005-4.14 3.362-7.491 7.5-7.491h.009c14.271.018 28.541.047 42.812.089 4.142.013 7.489 3.38 7.478 7.522-.013 4.134-3.369 7.478-7.501 7.478z" fill="#e7a561"/></g><g><path d="m236.449 355.591c-4.138 0-7.494-3.352-7.5-7.49-.006-4.143 3.348-7.504 7.49-7.51 23.194-.031 46.387-.045 69.581-.033 4.142.002 7.498 3.361 7.496 7.504-.002 4.141-3.359 7.496-7.5 7.496-.001 0-.002 0-.004 0-23.188-.014-46.369.003-69.554.033-.002 0-.006 0-.009 0z" fill="#e7a561"/></g><g><path d="m191.075 355.666c-4.135 0-7.491-3.348-7.5-7.484-.009-4.142 3.342-7.507 7.484-7.516l21.959-.043h.013c4.137 0 7.493 3.35 7.5 7.487.007 4.142-3.345 7.506-7.487 7.513l-21.953.043c-.005 0-.011 0-.016 0z" fill="#e7a561"/></g><g><path d="m125.34 355.666c-4.11 0-7.461-3.312-7.499-7.431-.038-4.143 3.289-7.531 7.431-7.569 14.525-.133 28.649-.133 43.181 0 4.142.038 7.469 3.427 7.431 7.569-.038 4.118-3.389 7.431-7.499 7.431-.023 0-.046 0-.07 0-14.438-.133-28.472-.133-42.903 0-.025 0-.048 0-.072 0z" fill="#e7a561"/></g><g><path d="m371.66 396.809c-.015 0-.029 0-.044 0-18.778-.108-37.894-.175-56.814-.197-4.143-.005-7.496-3.367-7.491-7.509.005-4.14 3.362-7.491 7.5-7.491h.009c18.943.022 38.082.089 56.883.197 4.143.024 7.48 3.401 7.457 7.543-.026 4.127-3.378 7.457-7.5 7.457z" fill="#e7a561"/></g><g><path d="m226.561 396.809c-4.122 0-7.476-3.329-7.499-7.457-.023-4.142 3.315-7.52 7.457-7.543 21.551-.123 43.598-.192 65.528-.205h.004c4.141 0 7.498 3.354 7.5 7.496s-3.354 7.502-7.496 7.504c-21.904.013-43.925.082-65.45.205-.015 0-.029 0-.044 0z" fill="#e7a561"/></g><g><path d="m125.339 396.809c-4.105 0-7.455-3.307-7.498-7.422-.043-4.142 3.28-7.534 7.422-7.578 26.609-.277 52.584-.277 79.406 0 4.143.043 7.465 3.436 7.423 7.577-.043 4.116-3.393 7.423-7.498 7.423-.026 0-.053 0-.079 0-26.72-.277-52.593-.277-79.096 0-.026 0-.052 0-.08 0z" fill="#e7a561"/></g><g><path d="m243.276 437.951c-4.098 0-7.444-3.294-7.497-7.403-.054-4.142 3.261-7.543 7.402-7.596 32.595-.42 65.76-.42 98.573 0 4.142.053 7.457 3.453 7.403 7.595-.053 4.143-3.491 7.462-7.595 7.403-32.685-.416-65.719-.416-98.188 0-.033.001-.066.001-.098.001z" fill="#e7a561"/></g><g><path d="m220.94 437.951c-.033 0-.066 0-.1-.001-11.527-.15-23.218-.247-34.747-.289-4.142-.015-7.487-3.385-7.473-7.527.015-4.133 3.37-7.473 7.499-7.473h.028c11.575.042 23.313.14 34.888.291 4.142.054 7.456 3.455 7.401 7.597-.053 4.108-3.399 7.402-7.496 7.402z" fill="#e7a561"/></g><g><path d="m125.339 437.951c-4.096 0-7.443-3.293-7.497-7.4-.055-4.143 3.258-7.544 7.399-7.599 12.366-.164 24.908-.265 37.275-.3h.021c4.133 0 7.488 3.344 7.5 7.479.012 4.143-3.337 7.51-7.479 7.521-12.316.035-24.805.135-37.119.298-.032.001-.066.001-.1.001z" fill="#e7a561"/></g><g><g><g><path d="m151.019 267.243h-6.12c-10.448 0-18.949-8.501-18.949-18.949v-9.715c0-1.246-.365-2.453-1.057-3.49l-5.792-8.688c-1.68-2.52-1.68-5.802 0-8.32l5.793-8.688c.69-1.036 1.056-2.243 1.056-3.489v-9.715c0-10.448 8.501-18.949 18.949-18.949h6.12c4.143 0 7.5 3.357 7.5 7.5s-3.357 7.5-7.5 7.5h-6.12c-2.178 0-3.949 1.771-3.949 3.949v9.715c0 4.216-1.236 8.3-3.574 11.809l-3.021 4.529 3.02 4.529c2.339 3.51 3.575 7.594 3.575 11.81v9.715c0 2.178 1.771 3.949 3.949 3.949h6.12c4.143 0 7.5 3.357 7.5 7.5 0 4.141-3.357 7.498-7.5 7.498z" fill="#e7a561"/></g><g><path d="m224.975 267.243h-6.119c-4.143 0-7.5-3.357-7.5-7.5s3.357-7.5 7.5-7.5h6.119c2.178 0 3.949-1.771 3.949-3.949v-9.715c0-4.218 1.236-8.302 3.576-11.811l3.019-4.528-3.019-4.528c-2.34-3.508-3.576-7.592-3.576-11.81v-9.715c0-2.178-1.771-3.949-3.949-3.949h-6.119c-4.143 0-7.5-3.357-7.5-7.5s3.357-7.5 7.5-7.5h6.119c10.448 0 18.949 8.501 18.949 18.949v9.715c0 1.246.365 2.452 1.057 3.488l5.792 8.689c1.68 2.52 1.68 5.801 0 8.32l-5.792 8.689c-.691 1.037-1.057 2.243-1.057 3.489v9.715c0 10.45-8.501 18.951-18.949 18.951z" fill="#e7a561"/></g></g><g><g><path d="m187.757 212.054c-4.143 0-7.5-3.357-7.5-7.5v-6.834c0-4.143 3.357-7.5 7.5-7.5s7.5 3.357 7.5 7.5v6.834c0 4.142-3.357 7.5-7.5 7.5z" fill="#e7a561"/></g><g><path d="m182.119 254.262c-2.018 0-4.029-.809-5.507-2.406-2.813-3.041-2.629-7.786.411-10.599l3.234-2.992v-5.019c0-4.143 3.357-7.5 7.5-7.5s7.5 3.357 7.5 7.5v8.297c0 2.09-.872 4.086-2.406 5.505l-5.641 5.219c-1.443 1.335-3.269 1.995-5.091 1.995z" fill="#e7a561"/></g></g></g></g><g><g><g><path d="m127.645 118.198c-7.273 0-13.513-4.007-16.737-7.251-2.919-2.938-2.904-7.688.033-10.607 2.922-2.903 7.635-2.903 10.559-.015.275.262 4.684 4.368 8.66 2.157 2.091-1.16 3.389-3.443 3.389-5.961v-56.313c0-4.143 3.357-7.5 7.5-7.5s7.5 3.357 7.5 7.5v56.313c0 7.964-4.257 15.273-11.108 19.076-3.352 1.861-6.67 2.601-9.796 2.601z" fill="#e28424"/></g></g><g><g><path d="m189.739 118.166c-11.53 0-22.787-4.825-30.11-12.908-2.781-3.069-2.548-7.812.521-10.594s7.812-2.548 10.594.521c4.528 4.997 11.629 7.98 18.995 7.98 7.494 0 12.797-4.621 13.595-9.089.781-4.372-2.891-8.399-10.072-11.049-10.887-4.015-20.552-8.317-20.958-8.498-.361-.161-.709-.351-1.041-.567-6.998-4.562-10.603-12.566-9.408-20.888 1.278-8.902 7.809-16.16 17.043-18.942 18.579-5.597 33.896 7.037 34.541 7.577 3.171 2.665 3.58 7.396.915 10.567-2.656 3.16-7.362 3.576-10.534.942-.217-.174-9.95-7.932-20.596-4.724-5.243 1.579-6.308 5.219-6.521 6.711-.337 2.348.536 4.52 2.348 5.904 2.302 1.01 10.539 4.575 19.403 7.844 17.02 6.278 21.309 18.456 19.647 27.759-2.22 12.432-14.148 21.454-28.362 21.454z" fill="#e28424"/></g></g></g></g></svg>