<svg id="Capa_1" enable-background="new 0 0 512 512" height="512" viewBox="0 0 512 512" width="512" xmlns="http://www.w3.org/2000/svg"><g><path d="m422.518 512h-333.036c-4.309 0-7.802-3.493-7.802-7.802v-348.77h348.64v348.77c0 4.309-3.493 7.802-7.802 7.802z" fill="#f6f1f1"/><path d="m81.68 155.428v18.284h310.353c9.676 0 17.52 7.844 17.52 17.52v320.768h12.965c4.309 0 7.802-3.493 7.802-7.802v-348.77z" fill="#efe7e4"/><path d="m352.731 0h-263.249c-4.309 0-7.802 3.493-7.802 7.802v147.625h348.64v-106.73z" fill="#e7a561"/><path d="m370.304 61.369 30.893 20.529c5.219 3.468 8.356 9.319 8.356 15.586v57.944h20.767v-106.731z" fill="#e49542"/><path d="m352.731 0 15.701 59.105c.932 3.507 4.549 5.576 8.044 4.602l53.845-15.01z" fill="#e28424"/><g><g><g><g><g><path d="m231.891 268.671c-1.315 0-2.647-.335-3.865-1.041-3.693-2.139-4.953-6.866-2.814-10.558l16.616-28.685-16.546-27.445c-2.203-3.654-1.027-8.402 2.628-10.606 3.654-2.203 8.403-1.026 10.606 2.628l18.904 31.355c1.455 2.411 1.481 5.425.069 7.861l-18.904 32.636c-1.433 2.474-4.028 3.855-6.694 3.855z" fill="#e7a561"/></g></g><g><g><path d="m148.036 268.671c-2.666 0-5.26-1.381-6.693-3.855l-18.904-32.636c-1.411-2.437-1.385-5.45.069-7.861l18.904-31.355c2.203-3.656 6.954-4.83 10.606-2.628 3.655 2.203 4.831 6.952 2.628 10.606l-16.546 27.445 16.616 28.685c2.139 3.692.879 8.42-2.814 10.558-1.219.705-2.551 1.041-3.866 1.041z" fill="#e7a561"/></g></g></g><g><path d="m173.459 270.882c-1.132 0-2.281-.249-3.367-.778-3.839-1.863-5.441-6.485-3.577-10.324l32.129-66.201c1.862-3.839 6.485-5.444 10.324-3.577 3.839 1.863 5.441 6.485 3.577 10.324l-32.129 66.201c-1.335 2.753-4.089 4.355-6.957 4.355z" fill="#e7a561"/></g></g><g><path d="m323.557 324.024c-11.524 0-23.035-.001-34.443-.002-4.267 0-7.725-3.46-7.725-7.727s3.46-7.725 7.726-7.725h.001c31.125.002 63.06.003 93.758-.006h.002c4.267 0 7.725 3.458 7.726 7.724s-3.457 7.727-7.724 7.728c-19.449.006-39.399.008-59.321.008z" fill="#e7a561"/></g><g><path d="m266.259 324.019-20.767-.003c-4.268-.001-7.726-3.461-7.725-7.727s3.46-7.725 7.726-7.725h.001l20.765.003c4.268 0 7.726 3.459 7.726 7.726.001 4.268-3.458 7.726-7.726 7.726z" fill="#e7a561"/></g><g><path d="m196.618 324.023c-8.889 0-17.781-.002-26.291-.007-4.268-.002-7.724-3.464-7.722-7.73s3.462-7.722 7.726-7.722h.004c17.014.01 35.554.01 52.552 0h.004c4.266 0 7.724 3.457 7.726 7.722.002 4.267-3.455 7.728-7.722 7.73-8.5.005-17.387.007-26.277.007z" fill="#e7a561"/></g><g><path d="m382.877 366.401c-.009 0-.016 0-.024 0-14.693-.044-29.385-.073-44.077-.093-4.268-.006-7.722-3.469-7.716-7.736.006-4.264 3.464-7.716 7.726-7.716h.01c14.7.019 29.402.048 44.104.093 4.268.013 7.716 3.483 7.703 7.75-.014 4.258-3.471 7.702-7.726 7.702z" fill="#e7a561"/></g><g><path d="m243.585 366.323c-4.263 0-7.72-3.453-7.726-7.716-.006-4.268 3.449-7.73 7.716-7.736 23.894-.031 47.788-.043 71.681-.035 4.267.002 7.724 3.463 7.722 7.73-.002 4.266-3.461 7.722-7.726 7.722-.001 0-.002 0-.004 0-23.884-.008-47.769.004-71.653.035-.003 0-.007 0-.01 0z" fill="#e7a561"/></g><g><path d="m196.842 366.401c-4.26 0-7.716-3.448-7.726-7.709-.01-4.267 3.442-7.733 7.709-7.743 7.541-.017 15.081-.031 22.623-.044h.013c4.262 0 7.719 3.451 7.726 7.713.007 4.267-3.446 7.732-7.713 7.739-7.537.013-15.075.027-22.615.044-.005 0-.012 0-.017 0z" fill="#e7a561"/></g><g><path d="m129.123 366.401c-4.234 0-7.686-3.412-7.725-7.655-.039-4.268 3.388-7.759 7.655-7.798 14.964-.137 29.514-.137 44.484 0 4.267.039 7.694 3.53 7.655 7.798-.039 4.242-3.491 7.655-7.725 7.655-.024 0-.047 0-.072 0-14.873-.137-29.331-.137-44.198 0-.025 0-.049 0-.074 0z" fill="#e7a561"/></g><g><path d="m382.877 408.785c-.015 0-.03 0-.045 0-19.345-.112-39.037-.18-58.529-.203-4.268-.005-7.722-3.469-7.717-7.735.005-4.265 3.464-7.717 7.726-7.717h.009c19.515.023 39.231.092 58.6.203 4.268.025 7.706 3.504 7.682 7.771-.026 4.251-3.48 7.681-7.726 7.681z" fill="#e7a561"/></g><g><path d="m233.399 408.785c-4.246 0-7.701-3.43-7.725-7.682-.024-4.267 3.415-7.746 7.682-7.771 22.201-.127 44.913-.198 67.506-.211h.004c4.266 0 7.724 3.456 7.726 7.722s-3.455 7.728-7.722 7.73c-22.565.013-45.251.085-67.426.211-.015.001-.03.001-.045.001z" fill="#e7a561"/></g><g><path d="m210.769 408.785c-.027 0-.054 0-.081 0-27.526-.286-54.18-.286-81.483 0-4.308.04-7.763-3.379-7.807-7.646s3.379-7.762 7.646-7.807c27.412-.286 54.171-.286 81.803 0 4.268.044 7.69 3.539 7.647 7.806-.045 4.24-3.495 7.647-7.725 7.647z" fill="#e7a561"/></g><g><path d="m250.618 451.169c-4.221 0-7.669-3.393-7.723-7.627-.055-4.267 3.359-7.771 7.626-7.825 33.58-.433 67.746-.433 101.548 0 4.267.054 7.682 3.557 7.627 7.824-.053 4.268-3.525 7.71-7.824 7.627-33.671-.429-67.702-.429-101.152 0-.034.001-.068.001-.102.001z" fill="#e7a561"/></g><g><path d="m227.608 451.169c-.034 0-.068 0-.103-.001-11.875-.155-23.919-.255-35.796-.298-4.267-.015-7.713-3.487-7.698-7.755.015-4.258 3.472-7.698 7.725-7.698h.029c11.925.043 24.017.144 35.941.3 4.267.055 7.681 3.559 7.625 7.826-.055 4.233-3.502 7.626-7.723 7.626z" fill="#e7a561"/></g><g><path d="m129.122 451.169c-4.219 0-7.667-3.391-7.723-7.624-.057-4.267 3.356-7.772 7.623-7.828 12.644-.169 25.563-.273 38.4-.309h.022c4.258 0 7.714 3.445 7.726 7.704.012 4.268-3.438 7.736-7.704 7.748-12.784.036-25.649.14-38.239.307-.034.002-.07.002-.105.002z" fill="#e7a561"/></g></g><g><g><g><path d="m267.202 118.095c-3.959 0-7.459-2.514-8.721-6.27-.03-.092-.059-.183-.087-.276l-11.195-37.945-6.791 37.626c-.758 4.2-4.781 6.984-8.976 6.231-4.199-.759-6.989-4.777-6.231-8.976l11.479-63.599c.806-4.19 4.269-7.251 8.437-7.53 4.146-.291 8.009 2.292 9.338 6.252.031.091.059.181.087.274l12.558 42.568 12.112-42.489c.026-.09.052-.179.081-.267 1.289-3.972 5.074-6.582 9.271-6.347 4.17.235 7.664 3.258 8.498 7.349l12.176 63.711c.802 4.192-1.947 8.238-6.138 9.039-4.187.812-8.237-1.946-9.039-6.138l-7.216-37.758-10.808 37.914c-.025.09-.052.177-.08.265-1.227 3.786-4.725 6.343-8.704 6.364-.017.002-.034.002-.051.002z" fill="#e28424"/></g></g><g><g><path d="m331.457 118.098c-7.294 0-7.736-.075-8.283-.17-3.708-.636-6.42-3.852-6.42-7.615v-65.254c0-4.268 3.459-7.726 7.726-7.726s7.726 3.459 7.726 7.726v57.582c4.298-.004 9.889-.025 15.1-.054h.044c4.247 0 7.701 3.431 7.725 7.683.024 4.268-3.416 7.745-7.683 7.77-7.385.041-12.445.058-15.935.058z" fill="#e28424"/></g></g><g><g><path d="m119.736 118.095c-4.268 0-7.726-3.459-7.726-7.726v-65.31c0-4.268 3.459-7.726 7.726-7.726 4.268 0 7.726 3.459 7.726 7.726v65.31c0 4.267-3.458 7.726-7.726 7.726z" fill="#e28424"/></g><g><path d="m164.931 118.095c-4.268 0-7.726-3.459-7.726-7.726v-65.31c0-4.268 3.459-7.726 7.726-7.726s7.726 3.459 7.726 7.726v65.31c.001 4.267-3.458 7.726-7.726 7.726z" fill="#e28424"/></g><g><path d="m164.931 84.32h-45.195c-4.268 0-7.726-3.459-7.726-7.726 0-4.268 3.459-7.726 7.726-7.726h45.195c4.268 0 7.726 3.459 7.726 7.726.001 4.267-3.458 7.726-7.726 7.726z" fill="#e28424"/></g></g><g><g><path d="m221.897 52.785h-36.067c-4.268 0-7.726-3.459-7.726-7.726s3.459-7.726 7.726-7.726h36.067c4.268 0 7.726 3.459 7.726 7.726s-3.458 7.726-7.726 7.726z" fill="#e28424"/></g><g><path d="m203.79 118.095c-4.268 0-7.726-3.459-7.726-7.726v-63.225c0-4.268 3.459-7.726 7.726-7.726 4.268 0 7.726 3.459 7.726 7.726v63.224c.001 4.268-3.458 7.727-7.726 7.727z" fill="#e28424"/></g></g></g></g></svg>