<svg id="Capa_1" enable-background="new 0 0 512 512" height="512" viewBox="0 0 512 512" width="512" xmlns="http://www.w3.org/2000/svg"><g><path d="m422.518 512h-333.036c-4.309 0-7.802-3.493-7.802-7.802v-348.77h348.64v348.77c0 4.309-3.493 7.802-7.802 7.802z" fill="#f6f1f1"/><path d="m81.68 155.428v18.284h310.353c9.676 0 17.52 7.844 17.52 17.52v320.768h12.965c4.309 0 7.802-3.493 7.802-7.802v-348.77z" fill="#efe7e4"/><path d="m352.731 0h-263.249c-4.309 0-7.802 3.493-7.802 7.802v147.625h348.64v-106.73z" fill="#ac80dd"/><path d="m370.304 61.369 30.893 20.529c5.219 3.468 8.356 9.319 8.356 15.586v57.944h20.767v-106.731z" fill="#9d66d5"/><path d="m352.731 0 15.701 59.105c.932 3.507 4.549 5.576 8.044 4.602l53.845-15.01z" fill="#8659b9"/><path d="m341.501 463.142h-171.002c-4.196 0-7.597-3.401-7.597-7.597v-243.662c0-4.196 3.401-7.597 7.597-7.597h171.002c4.196 0 7.597 3.401 7.597 7.597v243.662c0 4.196-3.401 7.597-7.597 7.597z" fill="#ac80dd"/><path d="m341.501 204.286h-19.5c4.196 0 7.597 3.401 7.597 7.597v243.662c0 4.196-3.401 7.597-7.597 7.597h19.5c4.196 0 7.597-3.401 7.597-7.597v-243.662c0-4.196-3.401-7.597-7.597-7.597z" fill="#9d66d5"/><g fill="#8659b9"><path d="m283.551 314.763h-55.102c-2.942 0-5.326-2.385-5.326-5.326v-62.892c0-2.942 2.385-5.326 5.326-5.326h55.102c2.942 0 5.326 2.385 5.326 5.326v62.892c0 2.942-2.384 5.326-5.326 5.326z"/><path d="m283.551 426.209h-55.102c-2.942 0-5.326-2.385-5.326-5.326v-62.892c0-2.942 2.385-5.326 5.326-5.326h55.102c2.942 0 5.326 2.385 5.326 5.326v62.892c0 2.941-2.384 5.326-5.326 5.326z"/></g><g><g><g><path d="m192.175 263.769c-4.268 0-7.726-3.459-7.726-7.726v-11.28c0-4.268 3.459-7.726 7.726-7.726 4.268 0 7.726 3.459 7.726 7.726v11.28c0 4.267-3.459 7.726-7.726 7.726z" fill="#8659b9"/></g><g><path d="m192.175 305.425c-4.268 0-7.726-3.459-7.726-7.726v-11.281c0-4.268 3.459-7.726 7.726-7.726 4.268 0 7.726 3.459 7.726 7.726v11.281c0 4.267-3.459 7.726-7.726 7.726z" fill="#8659b9"/></g><g><path d="m192.175 347.08c-4.268 0-7.726-3.459-7.726-7.726v-11.28c0-4.268 3.459-7.726 7.726-7.726 4.268 0 7.726 3.459 7.726 7.726v11.28c0 4.267-3.459 7.726-7.726 7.726z" fill="#8659b9"/></g><g><path d="m192.175 388.736c-4.268 0-7.726-3.459-7.726-7.726v-11.28c0-4.268 3.459-7.726 7.726-7.726 4.268 0 7.726 3.459 7.726 7.726v11.28c0 4.267-3.459 7.726-7.726 7.726z" fill="#8659b9"/></g><g><path d="m192.175 430.392c-4.268 0-7.726-3.459-7.726-7.726v-11.28c0-4.268 3.459-7.726 7.726-7.726 4.268 0 7.726 3.459 7.726 7.726v11.28c0 4.267-3.459 7.726-7.726 7.726z" fill="#8659b9"/></g></g><g><g><path d="m319.826 263.769c-4.268 0-7.726-3.459-7.726-7.726v-11.28c0-4.268 3.459-7.726 7.726-7.726s7.726 3.459 7.726 7.726v11.28c0 4.267-3.459 7.726-7.726 7.726z" fill="#8659b9"/></g><g><path d="m319.826 305.425c-4.268 0-7.726-3.459-7.726-7.726v-11.281c0-4.268 3.459-7.726 7.726-7.726s7.726 3.459 7.726 7.726v11.281c0 4.267-3.459 7.726-7.726 7.726z" fill="#8659b9"/></g><g><path d="m319.826 347.08c-4.268 0-7.726-3.459-7.726-7.726v-11.28c0-4.268 3.459-7.726 7.726-7.726s7.726 3.459 7.726 7.726v11.28c0 4.267-3.459 7.726-7.726 7.726z" fill="#8659b9"/></g><g><path d="m319.826 388.736c-4.268 0-7.726-3.459-7.726-7.726v-11.28c0-4.268 3.459-7.726 7.726-7.726s7.726 3.459 7.726 7.726v11.28c0 4.267-3.459 7.726-7.726 7.726z" fill="#8659b9"/></g><g><path d="m319.826 430.392c-4.268 0-7.726-3.459-7.726-7.726v-11.28c0-4.268 3.459-7.726 7.726-7.726s7.726 3.459 7.726 7.726v11.28c0 4.267-3.459 7.726-7.726 7.726z" fill="#8659b9"/></g></g></g><g><g><g><path d="m176.38 121.735c-3.122 0-6.062-1.906-7.229-5l-21.327-56.512-21.532 56.534c-1.519 3.988-5.984 5.989-9.971 4.47s-5.989-5.983-4.47-9.97l27.256-71.563c.022-.058.045-.117.069-.175 1.446-3.535 4.848-5.821 8.667-5.824h.007c3.816 0 7.217 2.28 8.668 5.81.028.069.055.139.081.208l27.008 71.565c1.507 3.993-.508 8.451-4.5 9.957-.898.339-1.821.5-2.727.5z" fill="#8659b9"/></g><g><path d="m168.016 103.91h-40.444c-4.268 0-7.726-3.459-7.726-7.726 0-4.268 3.459-7.726 7.726-7.726h40.444c4.268 0 7.726 3.459 7.726 7.726s-3.459 7.726-7.726 7.726z" fill="#8659b9"/></g></g><g><g><path d="m248.457 121.733c-4.268 0-7.726-3.459-7.726-7.726v-72.585c0-4.268 3.459-7.726 7.726-7.726s7.726 3.459 7.726 7.726v72.585c.001 4.267-3.458 7.726-7.726 7.726z" fill="#8659b9"/></g></g><g><g><path d="m201.968 121.733c-3.958 0-7.498-2.496-8.825-6.229l-24.835-71.548c-1.399-4.031.734-8.433 4.766-9.832 4.027-1.405 8.433.733 9.832 4.766l18.936 54.55 18.045-54.32c1.345-4.051 5.72-6.242 9.768-4.896 4.049 1.345 6.242 5.718 4.896 9.768l-23.699 71.341c-1.299 3.822-4.836 6.374-8.819 6.401-.021-.001-.043-.001-.065-.001z" fill="#8659b9"/></g></g></g></g></svg>