<svg id="Capa_1" enable-background="new 0 0 512 512" height="512" viewBox="0 0 512 512" width="512" xmlns="http://www.w3.org/2000/svg"><g><path d="m422.518 512h-333.036c-4.309 0-7.802-3.493-7.802-7.802v-348.77h348.64v348.77c0 4.309-3.493 7.802-7.802 7.802z" fill="#f6f1f1"/><path d="m81.68 155.428v18.284h310.353c9.676 0 17.52 7.844 17.52 17.52v320.768h12.965c4.309 0 7.802-3.493 7.802-7.802v-348.77z" fill="#efe7e4"/><path d="m352.731 0h-263.249c-4.309 0-7.802 3.493-7.802 7.802v147.625h348.64v-106.73z" fill="#78d0b1"/><path d="m370.304 61.369 30.893 20.529c5.219 3.468 8.356 9.319 8.356 15.586v57.944h20.767v-106.731z" fill="#66b49d"/><path d="m352.731 0 15.701 59.105c.932 3.507 4.549 5.576 8.044 4.602l53.845-15.01z" fill="#5493a2"/><g><g><g><path d="m184.899 121.733c-4.268 0-7.726-3.459-7.726-7.726v-72.586c0-4.268 3.459-7.726 7.726-7.726s7.726 3.459 7.726 7.726v72.586c0 4.267-3.458 7.726-7.726 7.726z" fill="#5493a2"/></g></g><g><g><path d="m210.848 121.467c-4.268 0-7.726-3.459-7.726-7.726v-72.054c0-4.268 3.459-7.726 7.726-7.726h29.203c4.268 0 7.726 3.459 7.726 7.726s-3.459 7.726-7.726 7.726h-21.477v64.328c0 4.268-3.459 7.726-7.726 7.726z" fill="#5493a2"/></g><g><path d="m237.731 84.758h-26.883c-4.268 0-7.726-3.459-7.726-7.726 0-4.268 3.459-7.726 7.726-7.726h26.883c4.268 0 7.726 3.459 7.726 7.726s-3.458 7.726-7.726 7.726z" fill="#5493a2"/></g></g><g><g><path d="m159.822 49.147h-40.086c-4.268 0-7.726-3.459-7.726-7.726s3.459-7.726 7.726-7.726h40.086c4.268 0 7.726 3.459 7.726 7.726s-3.459 7.726-7.726 7.726z" fill="#5493a2"/></g><g><path d="m139.698 121.733c-4.268 0-7.726-3.459-7.726-7.726v-70.268c0-4.268 3.459-7.726 7.726-7.726s7.726 3.459 7.726 7.726v70.268c0 4.267-3.459 7.726-7.726 7.726z" fill="#5493a2"/></g></g></g><g><path d="m304.143 266.383-4.194-25.068c-.824-4.923-5.084-8.529-10.075-8.529h-67.749c-4.991 0-9.251 3.607-10.075 8.529l-4.194 25.068c-.824 4.923-5.084 8.529-10.075 8.529h-49.61c-5.641 0-10.215 4.573-10.215 10.215v139.301c0 5.641 4.573 10.215 10.215 10.215h215.656c5.641 0 10.215-4.573 10.215-10.215v-139.301c0-5.641-4.573-10.215-10.215-10.215h-49.61c-4.99 0-9.25-3.607-10.074-8.529z" fill="#756e78"/><g fill="#665e66"><path d="m273.988 241.314 4.194 25.068c.823 4.923 5.084 8.529 10.075 8.529h25.961c-4.991 0-9.251-3.607-10.075-8.529l-4.194-25.068c-.824-4.923-5.084-8.529-10.075-8.529h-25.961c4.991 0 9.252 3.607 10.075 8.529z"/><path d="m363.828 274.912h-25.961c5.641 0 10.215 4.573 10.215 10.215v139.301c0 5.641-4.573 10.215-10.215 10.215h25.961c5.642 0 10.215-4.573 10.215-10.215v-139.301c0-5.642-4.574-10.215-10.215-10.215z"/></g><circle cx="256" cy="348.136" fill="#80b4fb" r="51.664"/><path d="m256 296.472c-3.118 0-6.165.292-9.131.821 24.176 4.314 42.533 25.428 42.533 50.843s-18.358 46.529-42.533 50.843c2.965.529 6.013.821 9.131.821 28.533 0 51.663-23.131 51.663-51.664s-23.13-51.664-51.663-51.664z" fill="#61a2f9"/><g><path d="m256 374.123c-14.329 0-25.987-11.658-25.987-25.987s11.658-25.987 25.987-25.987c14.33 0 25.988 11.658 25.988 25.987s-11.658 25.987-25.988 25.987zm0-36.521c-5.809 0-10.534 4.725-10.534 10.534s4.725 10.534 10.534 10.534 10.535-4.725 10.535-10.534-4.726-10.534-10.535-10.534z" fill="#61a2f9"/></g></g></g></svg>