<svg id="Capa_1" enable-background="new 0 0 512 512" height="512" viewBox="0 0 512 512" width="512" xmlns="http://www.w3.org/2000/svg"><g><path d="m422.518 512h-333.036c-4.309 0-7.802-3.493-7.802-7.802v-348.77h348.64v348.77c0 4.309-3.493 7.802-7.802 7.802z" fill="#f6f1f1"/><path d="m81.68 155.428v18.284h310.353c9.676 0 17.52 7.844 17.52 17.52v320.768h12.965c4.309 0 7.802-3.493 7.802-7.802v-348.77z" fill="#efe7e4"/><path d="m352.731 0h-263.249c-4.309 0-7.802 3.493-7.802 7.802v147.625h348.64v-106.73z" fill="#78d0b1"/><path d="m370.304 61.369 30.893 20.529c5.219 3.468 8.356 9.319 8.356 15.586v57.944h20.767v-106.731z" fill="#66b49d"/><path d="m352.731 0 15.701 59.105c.932 3.507 4.549 5.576 8.044 4.602l53.845-15.01z" fill="#5493a2"/><g><g><g><path d="m213.292 121.733c-24.273 0-44.019-19.746-44.019-44.019s19.746-44.019 44.019-44.019c8.819 0 17.331 2.601 24.617 7.522 3.535 2.388 4.466 7.191 2.077 10.727-2.388 3.535-7.191 4.465-10.727 2.077-4.721-3.189-10.242-4.874-15.967-4.874-15.752 0-28.566 12.815-28.566 28.566s12.815 28.566 28.566 28.566c14.069 0 20.808-10.036 22.88-20.84h-13.265c-4.268 0-7.726-3.459-7.726-7.726s3.459-7.726 7.726-7.726h21.713c4.268 0 7.726 3.459 7.726 7.726.002 25.918-16.059 44.02-39.054 44.02z" fill="#5493a2"/></g></g><g><g><path d="m267.476 121.733c-4.268 0-7.726-3.459-7.726-7.726v-72.586c0-4.268 3.459-7.726 7.726-7.726s7.726 3.459 7.726 7.726v72.586c.001 4.267-3.458 7.726-7.726 7.726z" fill="#5493a2"/></g><g><path d="m267.617 90.205c-2.032 0-3.983-.801-5.43-2.229-1.458-1.441-2.284-3.4-2.297-5.45 0 0-.141-41.079-.141-41.081-.006-2.053.805-4.024 2.255-5.479s3.419-2.272 5.472-2.272h20.21c15.777 0 28.612 12.655 28.612 28.21s-12.835 28.21-28.612 28.21c-5.597 0-20.021.091-20.021.091-.016 0-.032 0-.048 0zm7.609-41.058c.013 4.712.051 21.053.074 25.561 4.374-.023 9.527-.046 12.386-.046 7.133 0 13.159-5.842 13.159-12.758s-6.026-12.758-13.159-12.758h-12.46z" fill="#5493a2"/></g></g><g><g><path d="m135.774 85.44c-4.268 0-7.726-3.459-7.726-7.726s3.459-7.726 7.726-7.726c7.971 0 14.456-6.485 14.456-14.457 0-7.971-6.485-14.456-14.456-14.456-6.894 0-12.86 4.897-14.185 11.646-.822 4.187-4.881 6.915-9.07 6.093-4.187-.822-6.914-4.883-6.093-9.07 2.744-13.977 15.088-24.121 29.348-24.121 16.492 0 29.908 13.417 29.908 29.908s-13.416 29.909-29.908 29.909z" fill="#5493a2"/></g><g><path d="m135.774 129.806c-14.839 0-27.572-11.068-29.621-25.747-.191-1.363-.289-2.766-.289-4.162 0-4.268 3.459-7.726 7.726-7.726 4.268 0 7.726 3.459 7.726 7.726 0 .681.047 1.362.14 2.022.989 7.091 7.144 12.435 14.317 12.435 7.971 0 14.456-6.485 14.456-14.457s-6.485-14.457-14.456-14.457c-4.268 0-7.726-3.459-7.726-7.726s3.459-7.726 7.726-7.726c16.492 0 29.908 13.418 29.908 29.909s-13.415 29.909-29.907 29.909z" fill="#5493a2"/></g></g></g><g><path d="m293.708 404.954h-142.39c-2.996 0-5.424-2.429-5.424-5.424v-102.328c0-2.996 2.429-5.424 5.424-5.424h142.39c2.996 0 5.424 2.429 5.424 5.424v102.328c0 2.996-2.429 5.424-5.424 5.424z" fill="#756e78"/><path d="m293.708 291.778h-22.038c2.996 0 5.424 2.429 5.424 5.424v102.328c0 2.996-2.428 5.425-5.424 5.425h22.038c2.996 0 5.424-2.429 5.424-5.425v-102.328c0-2.996-2.428-5.424-5.424-5.424z" fill="#665e66"/><path d="m299.132 328.383v39.965l60.465 34.91c2.893 1.67 6.509-.418 6.509-3.758v-102.268c0-3.341-3.616-5.428-6.509-3.758z" fill="#78d0b1"/><path d="m359.597 293.474-12.508 7.222v95.341l12.508 7.222c2.893 1.67 6.509-.418 6.509-3.759v-102.268c0-3.341-3.616-5.428-6.509-3.758z" fill="#66b49d"/><path d="m222.513 291.778h-44.075v-21.233c0-4.458 3.614-8.071 8.071-8.071h27.932c4.458 0 8.071 3.614 8.071 8.071v21.233z" fill="#78d0b1"/></g></g></svg>