<svg id="Capa_1" enable-background="new 0 0 512 512" height="512" viewBox="0 0 512 512" width="512" xmlns="http://www.w3.org/2000/svg"><g><path d="m422.518 512h-333.036c-4.309 0-7.802-3.493-7.802-7.802v-348.77h348.64v348.77c0 4.309-3.493 7.802-7.802 7.802z" fill="#f6f1f1"/><path d="m81.68 155.428v18.284h310.353c9.676 0 17.52 7.844 17.52 17.52v320.768h12.965c4.309 0 7.802-3.493 7.802-7.802v-348.77z" fill="#efe7e4"/><path d="m352.731 0h-263.249c-4.309 0-7.802 3.493-7.802 7.802v147.625h348.64v-106.73z" fill="#80b4fb"/><path d="m370.304 61.369 30.893 20.529c5.219 3.468 8.356 9.319 8.356 15.586v57.944h20.767v-106.731z" fill="#61a2f9"/><path d="m352.731 0 15.701 59.105c.932 3.507 4.549 5.576 8.044 4.602l53.845-15.01z" fill="#3b66c1"/><g><g><g><path d="m115.758 120.659c-2.039 0-3.995-.806-5.443-2.242-1.455-1.444-2.277-3.406-2.284-5.456l-.143-70.452c-.004-2.052.809-4.021 2.258-5.473 1.45-1.453 3.418-2.269 5.469-2.269h19.95c21.635 0 36.171 17.259 36.171 42.946 0 24.436-14.91 42.431-35.453 42.789-5.675.1-19.893.155-20.496.157-.009 0-.019 0-.029 0zm7.598-70.438c.015 8.653.075 46.624.103 54.948 4.441-.027 9.688-.066 12.555-.117 13.927-.242 20.27-14.341 20.27-27.338 0-13.291-5.443-27.493-20.718-27.493z" fill="#3b66c1"/></g></g><g><g><path d="m311.834 121.733c-24.273 0-44.019-19.746-44.019-44.019s19.746-44.019 44.019-44.019c8.82 0 17.333 2.602 24.617 7.522 3.536 2.389 4.466 7.192 2.077 10.727-2.388 3.536-7.191 4.465-10.727 2.077-4.72-3.189-10.241-4.874-15.967-4.874-15.751 0-28.566 12.815-28.566 28.566s12.815 28.566 28.566 28.566c14.069 0 20.808-10.036 22.88-20.84h-13.265c-4.268 0-7.726-3.459-7.726-7.726 0-4.268 3.459-7.726 7.726-7.726h21.713c4.268 0 7.726 3.459 7.726 7.726.001 25.918-16.059 44.02-39.054 44.02z" fill="#3b66c1"/></g></g><g><g><path d="m196.709 121.732c-3.957 0-7.497-2.496-8.824-6.229-.126-.354-.225-.718-.299-1.088l-14.143-71.495c-.828-4.186 1.894-8.251 6.08-9.078 4.187-.828 8.251 1.894 9.078 6.08l9.419 47.615 14.94-48.267c1.262-4.075 5.592-6.356 9.666-5.097 4.076 1.263 6.358 5.59 5.097 9.666l-22.081 71.34c-.021.067-.043.135-.066.202-1.282 3.771-4.819 6.323-8.802 6.35-.022.001-.044.001-.065.001z" fill="#3b66c1"/></g><g><path d="m243.911 121.732c-3.958 0-7.498-2.496-8.825-6.229-.036-.103-.071-.207-.104-.312l-22.025-71.495c-1.256-4.077 1.031-8.402 5.11-9.659 4.078-1.253 8.402 1.031 9.659 5.11l14.906 48.387 9.451-47.487c.832-4.186 4.901-6.903 9.086-6.069 4.185.833 6.902 4.9 6.069 9.086l-14.198 71.34c-.065.332-.153.659-.263.979-1.282 3.771-4.819 6.323-8.802 6.35-.021-.001-.043-.001-.064-.001z" fill="#3b66c1"/></g></g></g><path d="m430.32 248.283c-67.348.059-143.169.058-210.678-.004v-23.172c0-4.268-3.459-7.726-7.726-7.726h-23.12c.081-18.704.081-42.655.004-61.953h-15.453c.078 19.29.078 43.259-.004 61.953h-23.213c-4.268 0-7.726 3.459-7.726 7.726v23.194c-18.569.037-41.896.035-60.724-.003v15.453c9.665.019 20.51.029 31.295.029 10.232 0 20.389-.009 29.43-.026v23.139c0 4.268 3.459 7.726 7.726 7.726h23.171c.132 69.053.137 147.49.014 217.381h15.453c.123-69.892.118-148.325-.014-217.381h23.162c4.268 0 7.726-3.459 7.726-7.726v-23.161c34.488.032 71.144.048 107.733.048 35.035 0 70-.015 102.944-.044zm-226.13 30.884h-46.333v-46.333h46.333z" fill="#61a2f9"/><g><path d="m181.023 266.062c-4.268 0-7.726-3.459-7.726-7.726v-4.671c0-4.268 3.459-7.726 7.726-7.726s7.726 3.459 7.726 7.726v4.671c0 4.267-3.459 7.726-7.726 7.726z" fill="#e49542"/></g></g></svg>