<svg id="Capa_1" enable-background="new 0 0 512 512" height="512" viewBox="0 0 512 512" width="512" xmlns="http://www.w3.org/2000/svg"><g><path d="m422.518 512h-333.036c-4.309 0-7.802-3.493-7.802-7.802v-348.77h348.64v348.77c0 4.309-3.493 7.802-7.802 7.802z" fill="#f6f1f1"/><path d="m81.68 155.428v18.284h310.353c9.676 0 17.52 7.844 17.52 17.52v320.768h12.965c4.309 0 7.802-3.493 7.802-7.802v-348.77z" fill="#efe7e4"/><path d="m352.731 0h-263.249c-4.309 0-7.802 3.493-7.802 7.802v147.625h348.64v-106.73z" fill="#80b4fb"/><path d="m370.304 61.369 30.893 20.529c5.219 3.468 8.356 9.319 8.356 15.586v57.944h20.767v-106.731z" fill="#61a2f9"/><path d="m352.731 0 15.701 59.105c.932 3.507 4.549 5.576 8.044 4.602l53.845-15.01z" fill="#3b66c1"/><g><g><g><path d="m230.336 121.733c-2.431 0-4.822-1.144-6.326-3.282l-51.061-72.585c-2.456-3.49-1.617-8.31 1.873-10.765 3.494-2.458 8.311-1.615 10.765 1.873l51.061 72.585c2.456 3.49 1.617 8.31-1.873 10.765-1.353.953-2.904 1.409-4.439 1.409z" fill="#3b66c1"/></g><g><path d="m175.594 121.733c-1.537 0-3.09-.458-4.443-1.411-3.489-2.457-4.324-7.278-1.866-10.766l51.134-72.585c2.457-3.488 7.274-4.327 10.766-1.866 3.489 2.457 4.324 7.277 1.866 10.766l-51.134 72.585c-1.504 2.135-3.894 3.277-6.323 3.277z" fill="#3b66c1"/></g></g><g><g><path d="m155.701 49.148h-40.086c-4.268 0-7.726-3.459-7.726-7.726s3.459-7.726 7.726-7.726h40.086c4.268 0 7.726 3.459 7.726 7.726s-3.459 7.726-7.726 7.726z" fill="#3b66c1"/></g><g><path d="m135.577 121.732c-4.268 0-7.726-3.459-7.726-7.726v-70.267c0-4.268 3.459-7.726 7.726-7.726s7.726 3.459 7.726 7.726v70.267c0 4.268-3.458 7.726-7.726 7.726z" fill="#3b66c1"/></g></g><g><g><path d="m288.135 49.148h-40.085c-4.268 0-7.726-3.459-7.726-7.726s3.459-7.726 7.726-7.726h40.085c4.268 0 7.726 3.459 7.726 7.726s-3.458 7.726-7.726 7.726z" fill="#3b66c1"/></g><g><path d="m268.012 121.732c-4.268 0-7.726-3.459-7.726-7.726v-70.267c0-4.268 3.459-7.726 7.726-7.726 4.268 0 7.726 3.459 7.726 7.726v70.267c0 4.268-3.459 7.726-7.726 7.726z" fill="#3b66c1"/></g></g></g><g><path d="m344.091 466.956h-176.182c-4.416 0-7.996-3.58-7.996-7.996v-250.492c0-4.416 3.58-7.996 7.996-7.996h176.183c4.416 0 7.996 3.58 7.996 7.996v250.492c0 4.416-3.58 7.996-7.997 7.996z" fill="#efe7e4"/><path d="m344.091 200.472h-20.735c4.416 0 7.996 3.58 7.996 7.996v250.491c0 4.416-3.58 7.996-7.996 7.996h20.735c4.416 0 7.996-3.58 7.996-7.996v-250.491c.001-4.416-3.58-7.996-7.996-7.996z" fill="#eadfda"/><g><g><path d="m312.532 252.69h-113.064c-4.268 0-7.726-3.459-7.726-7.726s3.459-7.726 7.726-7.726h113.063c4.268 0 7.726 3.459 7.726 7.726s-3.458 7.726-7.725 7.726z" fill="#eadfda"/></g><g><path d="m312.532 288.19h-113.064c-4.268 0-7.726-3.459-7.726-7.726 0-4.268 3.459-7.726 7.726-7.726h113.063c4.268 0 7.726 3.459 7.726 7.726.001 4.267-3.458 7.726-7.725 7.726z" fill="#eadfda"/></g><g><path d="m312.532 323.69h-113.064c-4.268 0-7.726-3.459-7.726-7.726 0-4.268 3.459-7.726 7.726-7.726h113.063c4.268 0 7.726 3.459 7.726 7.726.001 4.267-3.458 7.726-7.725 7.726z" fill="#eadfda"/></g><g><path d="m312.532 359.19h-113.064c-4.268 0-7.726-3.459-7.726-7.726 0-4.268 3.459-7.726 7.726-7.726h113.063c4.268 0 7.726 3.459 7.726 7.726.001 4.267-3.458 7.726-7.725 7.726z" fill="#eadfda"/></g><g><path d="m312.532 394.69h-113.064c-4.268 0-7.726-3.459-7.726-7.726 0-4.268 3.459-7.726 7.726-7.726h113.063c4.268 0 7.726 3.459 7.726 7.726.001 4.267-3.458 7.726-7.725 7.726z" fill="#eadfda"/></g><g><path d="m312.532 430.19h-113.064c-4.268 0-7.726-3.459-7.726-7.726s3.459-7.726 7.726-7.726h113.063c4.268 0 7.726 3.459 7.726 7.726s-3.458 7.726-7.725 7.726z" fill="#eadfda"/></g></g></g></g></svg>