<svg id="Capa_1" enable-background="new 0 0 512 512" height="512" viewBox="0 0 512 512" width="512" xmlns="http://www.w3.org/2000/svg"><g><path d="m422.518 512h-333.036c-4.309 0-7.802-3.493-7.802-7.802v-348.77h348.64v348.77c0 4.309-3.493 7.802-7.802 7.802z" fill="#f6f1f1"/><path d="m81.68 155.428v18.284h310.353c9.676 0 17.52 7.844 17.52 17.52v320.768h12.965c4.309 0 7.802-3.493 7.802-7.802v-348.77z" fill="#efe7e4"/><path d="m352.731 0h-263.249c-4.309 0-7.802 3.493-7.802 7.802v147.625h348.64v-106.73z" fill="#dd636e"/><path d="m370.304 61.369 30.893 20.529c5.219 3.468 8.356 9.319 8.356 15.586v57.944h20.767v-106.731z" fill="#da4a54"/><path d="m352.731 0 15.701 59.105c.932 3.507 4.549 5.576 8.044 4.602l53.845-15.01z" fill="#d82e3d"/><g><g><g><path d="m257.377 122.144c-4.267 0-7.726-3.459-7.726-7.726v-73.408c0-4.267 3.459-7.726 7.726-7.726h29.753c4.268 0 7.726 3.459 7.726 7.726s-3.459 7.726-7.726 7.726h-22.026v65.682c-.001 4.267-3.459 7.726-7.727 7.726z" fill="#d82e3d"/></g><g><path d="m284.766 84.745h-27.389c-4.267 0-7.726-3.459-7.726-7.726s3.459-7.726 7.726-7.726h27.389c4.268 0 7.726 3.459 7.726 7.726s-3.458 7.726-7.726 7.726z" fill="#d82e3d"/></g></g><g><g><path d="m186.959 120.155c-4.267 0-7.726-3.459-7.726-7.726v-70.522c0-4.267 3.459-7.726 7.726-7.726s7.726 3.459 7.726 7.726v70.522c0 4.267-3.459 7.726-7.726 7.726z" fill="#d82e3d"/></g><g><path d="m187.104 121.321c-2.039 0-3.995-.806-5.443-2.243-1.454-1.444-2.276-3.406-2.283-5.456 0 0-.094-26.014-.094-35.988 0-8.182-.052-35.787-.052-35.787-.004-2.052.808-4.021 2.258-5.473 1.449-1.452 3.417-2.268 5.468-2.268h20.324c21.955 0 36.706 17.524 36.706 43.607 0 24.811-15.13 43.084-35.977 43.449-5.782.101-20.266.156-20.879.159-.008 0-.018 0-.028 0zm7.595-71.762c.015 8.809.038 22.673.038 28.075 0 6.475.04 19.721.067 28.196 4.554-.027 9.986-.067 12.939-.119 14.287-.249 20.794-14.688 20.794-27.998 0-13.611-5.584-28.154-21.254-28.154z" fill="#d82e3d"/></g></g><g><g><path d="m125.634 122.415c-4.267 0-7.726-3.459-7.726-7.726v-73.95c0-4.267 3.459-7.726 7.726-7.726s7.726 3.459 7.726 7.726v73.949c0 4.268-3.459 7.727-7.726 7.727z" fill="#d82e3d"/></g><g><path d="m125.777 90.295c-2.032 0-3.983-.8-5.43-2.229-1.458-1.44-2.284-3.401-2.297-5.45 0 0-.092-15.185-.092-21.008 0-4.766-.051-20.844-.051-20.844-.007-2.053.805-4.025 2.255-5.479 1.449-1.454 3.419-2.272 5.472-2.272h20.591c15.992 0 29.004 12.827 29.004 28.595s-13.011 28.595-29.004 28.595c-5.702 0-20.399.092-20.399.092-.016 0-.033 0-.049 0zm7.606-41.829c.014 4.831.028 10.596.028 13.142 0 3.02.025 8.567.049 13.19 4.487-.024 9.819-.048 12.764-.048 7.345 0 13.551-6.019 13.551-13.142s-6.206-13.142-13.551-13.142z" fill="#d82e3d"/></g></g></g><g><g><path d="m361.908 475.02h-211.816c-4.267 0-7.726-3.459-7.726-7.726v-267.16c0-4.267 3.459-7.726 7.726-7.726h211.816c4.268 0 7.726 3.459 7.726 7.726v267.16c0 4.268-3.458 7.726-7.726 7.726zm-204.09-15.452h196.364v-251.708h-196.364z" fill="#dd636e"/></g><g><path d="m361.908 306.449h-99.161c-4.268 0-7.726-3.459-7.726-7.726v-98.589c0-4.267 3.459-7.726 7.726-7.726h99.161c4.268 0 7.726 3.459 7.726 7.726v98.589c0 4.267-3.458 7.726-7.726 7.726zm-91.435-15.453h83.708v-83.136h-83.708z" fill="#dd636e"/></g><g><g><path d="m262.747 239.02h-112.655c-4.267 0-7.726-3.459-7.726-7.726s3.459-7.726 7.726-7.726h112.655c4.268 0 7.726 3.459 7.726 7.726s-3.458 7.726-7.726 7.726z" fill="#dd636e"/></g><g><path d="m262.747 272.735h-112.655c-4.267 0-7.726-3.459-7.726-7.726s3.459-7.726 7.726-7.726h112.655c4.268 0 7.726 3.459 7.726 7.726s-3.458 7.726-7.726 7.726z" fill="#dd636e"/></g><g><path d="m262.747 306.449h-112.655c-4.267 0-7.726-3.459-7.726-7.726s3.459-7.726 7.726-7.726h112.655c4.268 0 7.726 3.459 7.726 7.726s-3.458 7.726-7.726 7.726z" fill="#dd636e"/></g><g><path d="m361.908 340.163h-211.816c-4.267 0-7.726-3.459-7.726-7.726s3.459-7.726 7.726-7.726h211.816c4.268 0 7.726 3.459 7.726 7.726s-3.458 7.726-7.726 7.726z" fill="#dd636e"/></g><g><path d="m361.908 373.878h-211.816c-4.267 0-7.726-3.459-7.726-7.726s3.459-7.726 7.726-7.726h211.816c4.268 0 7.726 3.459 7.726 7.726s-3.458 7.726-7.726 7.726z" fill="#dd636e"/></g><g><path d="m361.908 407.592h-211.816c-4.267 0-7.726-3.459-7.726-7.726s3.459-7.726 7.726-7.726h211.816c4.268 0 7.726 3.459 7.726 7.726s-3.458 7.726-7.726 7.726z" fill="#dd636e"/></g><g><path d="m361.908 441.306h-211.816c-4.267 0-7.726-3.459-7.726-7.726s3.459-7.726 7.726-7.726h211.816c4.268 0 7.726 3.459 7.726 7.726s-3.458 7.726-7.726 7.726z" fill="#dd636e"/></g><g><path d="m361.908 475.02h-211.816c-4.267 0-7.726-3.459-7.726-7.726 0-4.268 3.459-7.726 7.726-7.726h211.816c4.268 0 7.726 3.459 7.726 7.726 0 4.268-3.458 7.726-7.726 7.726z" fill="#dd636e"/></g></g></g></g></svg>