<svg id="Capa_1" enable-background="new 0 0 512 512" height="512" viewBox="0 0 512 512" width="512" xmlns="http://www.w3.org/2000/svg"><g><path d="m422.518 512h-333.036c-4.309 0-7.802-3.493-7.802-7.802v-348.77h348.64v348.77c0 4.309-3.493 7.802-7.802 7.802z" fill="#f6f1f1"/><path d="m81.68 155.428v18.284h310.353c9.676 0 17.52 7.844 17.52 17.52v320.768h12.965c4.309 0 7.802-3.493 7.802-7.802v-348.77z" fill="#efe7e4"/><path d="m352.731 0h-263.249c-4.309 0-7.802 3.493-7.802 7.802v147.625h348.64v-106.73z" fill="#78d0b1"/><path d="m370.304 61.369 30.893 20.529c5.219 3.468 8.356 9.319 8.356 15.586v57.944h20.767v-106.731z" fill="#66b49d"/><path d="m352.731 0 15.701 59.105c.932 3.507 4.549 5.576 8.044 4.602l53.845-15.01z" fill="#5493a2"/><g><g><g><path d="m289.232 121.766c-7.494 0-13.921-4.128-17.242-7.47-3.007-3.027-2.992-7.92.034-10.928 3.009-2.991 7.864-2.991 10.877-.015.283.271 4.825 4.502 8.922 2.222 2.153-1.195 3.491-3.548 3.491-6.142v-58.012c0-4.268 3.459-7.726 7.726-7.726s7.726 3.459 7.726 7.726v58.013c0 8.203-4.384 15.733-11.443 19.653-3.451 1.915-6.871 2.679-10.091 2.679z" fill="#5493a2"/></g></g><g><g><path d="m214.466 82.625c-2.043 0-4.003-.809-5.451-2.25-1.457-1.451-2.276-3.421-2.276-5.476v-33.478c0-4.268 3.459-7.726 7.726-7.726h21.083c13.47 0 24.429 10.959 24.429 24.429s-10.957 24.428-24.427 24.428c-4.567 0-21.049.073-21.049.073-.011 0-.023 0-.035 0zm7.727-33.478v17.993c4.952-.02 10.889-.041 13.357-.041 4.95 0 8.976-4.026 8.976-8.976s-4.026-8.976-8.976-8.976z" fill="#5493a2"/></g><g><path d="m214.466 121.733c-2.043 0-4.003-.809-5.451-2.251-1.457-1.451-2.276-3.421-2.276-5.476v-39.162c0-4.268 3.459-7.726 7.726-7.726h24.766c15.034 0 27.265 12.23 27.265 27.265 0 15.033-12.23 27.264-27.265 27.264-5.343 0-24.729.087-24.731.087-.01-.001-.022-.001-.034-.001zm7.727-39.162v23.676c6.048-.024 13.924-.053 17.039-.053 6.513 0 11.812-5.299 11.812-11.811 0-6.513-5.299-11.812-11.812-11.812z" fill="#5493a2"/></g></g><g><path d="m156.029 121.733c-24.273 0-44.019-19.746-44.019-44.019s19.746-44.019 44.019-44.019 44.019 19.746 44.019 44.019-19.747 44.019-44.019 44.019zm0-72.586c-15.752 0-28.566 12.815-28.566 28.566s12.815 28.566 28.566 28.566 28.566-12.815 28.566-28.566-12.815-28.566-28.566-28.566z" fill="#5493a2"/></g></g><g><g><path d="m299.498 232.906-64.441 111.615c-1.995 3.456.499 7.776 4.489 7.776h128.882c3.991 0 6.485-4.32 4.489-7.776l-64.441-111.615c-1.995-3.455-6.983-3.455-8.978 0z" fill="#78d0b1"/><path d="m299.498 232.906-8.547 14.804 60.383 104.587h17.094c3.991 0 6.485-4.32 4.489-7.776l-64.441-111.615c-1.995-3.456-6.983-3.456-8.978 0z" fill="#66b49d"/></g><circle cx="202.659" cy="311.08" fill="#dd636e" r="68.066"/><path d="m202.659 243.014c-3.936 0-7.787.353-11.54.994 32.093 5.484 56.527 33.416 56.527 67.072s-24.434 61.589-56.527 67.072c3.753.641 7.604.994 11.54.994 37.592 0 68.066-30.474 68.066-68.066s-30.474-68.066-68.066-68.066z" fill="#da4a54"/><g><path d="m314.21 442.297h-110.785c-3.971 0-7.19-3.219-7.19-7.19v-110.786c0-3.971 3.219-7.19 7.19-7.19h110.785c3.971 0 7.19 3.219 7.19 7.19v110.786c.001 3.971-3.218 7.19-7.19 7.19z" fill="#80b4fb"/><path d="m299.714 317.131v125.166h14.496c3.971 0 7.19-3.219 7.19-7.19v-110.786c0-3.971-3.219-7.19-7.19-7.19z" fill="#61a2f9"/></g></g></g></svg>