<svg id="Capa_1" enable-background="new 0 0 512 512" height="512" viewBox="0 0 512 512" width="512" xmlns="http://www.w3.org/2000/svg"><g><path d="m422.518 512h-333.036c-4.309 0-7.802-3.493-7.802-7.802v-348.77h348.64v348.77c0 4.309-3.493 7.802-7.802 7.802z" fill="#f6f1f1"/><path d="m81.68 155.428v18.284h310.353c9.676 0 17.52 7.844 17.52 17.52v320.768h12.965c4.309 0 7.802-3.493 7.802-7.802v-348.77z" fill="#efe7e4"/><path d="m352.731 0h-263.249c-4.309 0-7.802 3.493-7.802 7.802v147.625h348.64v-106.73z" fill="#80b4fb"/><path d="m370.304 61.369 30.893 20.529c5.219 3.468 8.356 9.319 8.356 15.586v57.944h20.767v-106.731z" fill="#61a2f9"/><path d="m352.731 0 15.701 59.105c.932 3.507 4.549 5.576 8.044 4.602l53.845-15.01z" fill="#3b66c1"/><g><g><g><path d="m151.439 119.449c-3.987 0-7.512-2.533-8.781-6.316-.03-.091-.058-.18-.086-.272l-12.041-40.815-7.313 40.517c-.758 4.2-4.78 6.989-8.976 6.231-4.199-.759-6.989-4.777-6.231-8.976l11.955-66.235c.812-4.218 4.298-7.298 8.493-7.579 4.193-.28 8.061 2.306 9.4 6.292.03.091.059.182.087.275l13.391 45.39 12.917-45.311c.026-.091.053-.18.082-.27 1.299-3.998 5.124-6.621 9.335-6.386 4.196.237 7.712 3.281 8.551 7.399l12.68 66.347c.801 4.192-1.948 8.238-6.139 9.039-4.186.811-8.238-1.946-9.039-6.138l-7.768-40.646-11.626 40.782c-.025.09-.052.178-.081.266-1.235 3.811-4.758 6.384-8.764 6.405-.015.001-.031.001-.046.001z" fill="#3b66c1"/></g></g><g><g><path d="m309.565 119.449c-3.915 0-7.418-2.471-8.728-6.165l-23.272-67.045c-1.399-4.031.734-8.433 4.766-9.832 4.029-1.405 8.433.733 9.832 4.766l17.274 49.763 16.458-49.54c1.345-4.05 5.721-6.241 9.768-4.896 4.049 1.345 6.242 5.718 4.896 9.768l-22.208 66.851c-1.282 3.779-4.781 6.305-8.721 6.332-.023-.002-.044-.002-.065-.002z" fill="#3b66c1"/></g></g><g><path d="m237.475 119.448c-23.012 0-41.734-18.722-41.734-41.734s18.722-41.734 41.734-41.734 41.734 18.722 41.734 41.734-18.721 41.734-41.734 41.734zm0-68.016c-14.492 0-26.282 11.79-26.282 26.282s11.79 26.282 26.282 26.282 26.282-11.79 26.282-26.282-11.79-26.282-26.282-26.282z" fill="#3b66c1"/></g></g><g><circle cx="256" cy="333.714" fill="#80b4fb" r="110.819"/><path d="m279.275 293.4h-46.55l-23.275 40.314 23.275 40.314h46.55l23.275-40.314z" fill="#3b66c1"/><path d="m374.546 333.713c0-65.404-53.22-118.545-118.546-118.545-65.255 0-118.545 53.087-118.545 118.545 0 65.515 53.338 118.546 118.545 118.546 65.251.001 118.546-53.085 118.546-118.546zm-31.353 54.944c-4.702-8.144-45.092-78.102-50.535-87.531h61.153c3.423 10.247 5.282 21.204 5.282 32.588 0 20.183-5.835 39.027-15.9 54.943zm-68.378-22.356h-37.629l-18.815-32.588 18.815-32.588h37.629l.345.598 18.469 31.99zm72.377-80.628h-101.085l30.579-52.966c30.603 6.258 56.306 26.121 70.506 52.966zm-91.192-55.052c1.34 0 2.672.034 3.999.085-4.95 8.574-46.354 80.289-50.549 87.555l-30.546-52.907c18.899-21.291 46.455-34.733 77.096-34.733zm-87.193 48.15c5.167 8.949 45.717 79.184 50.536 87.53h-61.154c-3.423-10.247-5.282-21.204-5.282-32.588 0-20.183 5.835-39.026 15.9-54.942zm-3.999 102.983h101.085l-30.581 52.967c-30.602-6.259-56.304-26.122-70.504-52.967zm91.192 55.053c-1.34 0-2.672-.034-3.999-.085 5.165-8.945 45.751-79.244 50.55-87.556l30.546 52.908c-18.9 21.291-46.456 34.733-77.097 34.733z" fill="#61a2f9"/></g></g></svg>