<svg id="Capa_1" enable-background="new 0 0 512 512" height="512" viewBox="0 0 512 512" width="512" xmlns="http://www.w3.org/2000/svg"><g><path d="m422.518 512h-333.036c-4.309 0-7.802-3.493-7.802-7.802v-348.77h348.64v348.77c0 4.309-3.493 7.802-7.802 7.802z" fill="#f6f1f1"/><path d="m81.68 155.428v18.284h310.353c9.676 0 17.52 7.844 17.52 17.52v320.768h12.965c4.309 0 7.802-3.493 7.802-7.802v-348.77z" fill="#efe7e4"/><path d="m352.731 0h-263.249c-4.309 0-7.802 3.493-7.802 7.802v147.625h348.64v-106.73z" fill="#f6e266"/><path d="m370.304 61.369 30.893 20.529c5.219 3.468 8.356 9.319 8.356 15.586v57.944h20.767v-106.731z" fill="#f1d333"/><path d="m352.731 0 15.701 59.105c.932 3.507 4.549 5.576 8.044 4.602l53.845-15.01z" fill="#ecc32e"/><g><g><g><path d="m156.029 121.733c-24.273 0-44.019-19.746-44.019-44.019s19.746-44.019 44.019-44.019c8.819 0 17.331 2.601 24.617 7.522 3.535 2.388 4.466 7.191 2.077 10.727-2.389 3.535-7.191 4.465-10.727 2.077-4.721-3.189-10.242-4.874-15.967-4.874-15.752 0-28.566 12.815-28.566 28.566s12.815 28.566 28.566 28.566c5.895 0 10.868-1.767 14.78-5.249.762-.678 1.49-1.431 2.166-2.235 2.742-3.27 7.615-3.697 10.884-.953 3.27 2.742 3.696 7.616.953 10.884-1.154 1.376-2.406 2.669-3.724 3.842-6.733 5.997-15.398 9.165-25.059 9.165z" fill="#ecc32e"/></g></g><g><g><path d="m218.995 93.49c-4.268 0-7.726-3.459-7.726-7.726v-40.011c0-4.268 3.459-7.726 7.726-7.726 4.268 0 7.726 3.459 7.726 7.726v40.011c0 4.267-3.459 7.726-7.726 7.726z" fill="#ecc32e"/></g><g><path d="m238.762 73.247h-40.012c-4.268 0-7.726-3.459-7.726-7.726 0-4.268 3.459-7.726 7.726-7.726h40.012c4.268 0 7.726 3.459 7.726 7.726.001 4.267-3.458 7.726-7.726 7.726z" fill="#ecc32e"/></g></g><g><g><path d="m283.862 93.49c-4.268 0-7.726-3.459-7.726-7.726v-40.011c0-4.268 3.459-7.726 7.726-7.726s7.726 3.459 7.726 7.726v40.011c0 4.267-3.459 7.726-7.726 7.726z" fill="#ecc32e"/></g><g><path d="m303.63 73.247h-40.012c-4.268 0-7.726-3.459-7.726-7.726 0-4.268 3.459-7.726 7.726-7.726h40.012c4.268 0 7.726 3.459 7.726 7.726.001 4.267-3.458 7.726-7.726 7.726z" fill="#ecc32e"/></g></g></g><g><g><g><g><path d="m150.272 279.072c-24.273 0-44.019-19.746-44.019-44.019s19.746-44.019 44.019-44.019c8.82 0 17.333 2.602 24.617 7.522 3.536 2.389 4.466 7.192 2.077 10.727-2.388 3.536-7.191 4.465-10.727 2.077-4.72-3.189-10.241-4.874-15.967-4.874-15.752 0-28.566 12.815-28.566 28.566s12.815 28.566 28.566 28.566c5.896 0 10.869-1.767 14.78-5.249.762-.678 1.49-1.431 2.165-2.235 2.742-3.271 7.616-3.696 10.885-.954s3.696 7.616.954 10.885c-1.154 1.375-2.407 2.668-3.725 3.842-6.731 5.996-15.396 9.165-25.059 9.165z" fill="#f6e266"/></g></g><g><path d="m208.409 231.488c-4.268 0-7.726-3.459-7.726-7.726v-6.633c0-4.268 3.459-7.726 7.726-7.726 4.268 0 7.726 3.459 7.726 7.726v6.633c0 4.267-3.458 7.726-7.726 7.726z" fill="#f6e266"/></g><g><path d="m203.761 265.578c-1.673 0-3.357-.54-4.774-1.655-3.353-2.639-3.932-7.497-1.293-10.85l2.988-3.797v-3.187c0-4.268 3.459-7.726 7.726-7.726 4.268 0 7.726 3.459 7.726 7.726v5.863c0 1.733-.582 3.417-1.655 4.779l-4.643 5.899c-1.522 1.937-3.788 2.948-6.075 2.948z" fill="#f6e266"/></g><g><path d="m226.199 279.073c-1.436 0-2.886-.399-4.182-1.235-3.586-2.313-4.617-7.096-2.303-10.681l44.624-69.157c2.314-3.586 7.096-4.615 10.681-2.303 3.586 2.313 4.617 7.096 2.303 10.681l-44.624 69.157c-1.478 2.289-3.963 3.538-6.499 3.538z" fill="#f6e266"/></g></g><g><g><path d="m323.557 324.024c-11.524 0-23.035-.001-34.443-.002-4.267 0-7.725-3.46-7.725-7.727s3.46-7.725 7.726-7.725h.001c31.124.002 63.059.003 93.758-.006h.002c4.267 0 7.725 3.458 7.726 7.724.001 4.267-3.457 7.727-7.724 7.728-19.449.006-39.399.008-59.321.008z" fill="#f6e266"/></g><g><path d="m266.259 324.019h-.001l-20.766-.003c-4.268-.001-7.726-3.461-7.725-7.727.001-4.267 3.46-7.725 7.726-7.725h.001l20.766.003c4.268.001 7.726 3.461 7.725 7.727s-3.459 7.725-7.726 7.725z" fill="#f6e266"/></g><g><path d="m196.618 324.023c-8.889 0-17.781-.003-26.291-.007-4.268-.002-7.724-3.464-7.722-7.73s3.462-7.722 7.726-7.722h.004c17.014.008 35.554.008 52.552 0h.004c4.266 0 7.724 3.457 7.726 7.722.002 4.267-3.455 7.728-7.722 7.73-8.5.004-17.387.007-26.277.007z" fill="#f6e266"/></g><g><path d="m382.877 366.401c-.009 0-.016 0-.024 0-14.693-.044-29.385-.073-44.077-.093-4.268-.006-7.722-3.469-7.716-7.736.006-4.264 3.464-7.716 7.726-7.716h.01c14.7.019 29.402.048 44.104.093 4.268.013 7.716 3.483 7.703 7.75-.014 4.258-3.471 7.702-7.726 7.702z" fill="#f6e266"/></g><g><path d="m243.585 366.323c-4.263 0-7.72-3.453-7.726-7.716-.006-4.268 3.449-7.73 7.716-7.736 23.894-.031 47.788-.045 71.681-.035 4.267.002 7.724 3.463 7.722 7.73-.002 4.266-3.461 7.722-7.726 7.722-.001 0-.002 0-.004 0-23.883-.009-47.769.004-71.653.035-.003 0-.007 0-.01 0z" fill="#f6e266"/></g><g><path d="m196.842 366.401c-4.26 0-7.716-3.448-7.726-7.709-.01-4.267 3.442-7.733 7.709-7.743 7.541-.017 15.081-.031 22.623-.044h.013c4.262 0 7.719 3.451 7.726 7.713.007 4.267-3.446 7.732-7.713 7.739-7.537.013-15.075.027-22.615.044-.005 0-.012 0-.017 0z" fill="#f6e266"/></g><g><path d="m129.123 366.401c-4.234 0-7.686-3.412-7.725-7.655-.039-4.268 3.388-7.759 7.655-7.798 14.964-.137 29.514-.137 44.484 0 4.267.039 7.694 3.53 7.655 7.798-.039 4.242-3.491 7.655-7.725 7.655-.024 0-.047 0-.072 0-14.873-.137-29.331-.137-44.198 0-.025 0-.049 0-.074 0z" fill="#f6e266"/></g><g><path d="m382.877 408.785c-.015 0-.03 0-.045 0-19.272-.112-38.964-.18-58.529-.204-4.268-.005-7.722-3.469-7.717-7.735.005-4.265 3.464-7.717 7.726-7.717h.01c19.59.024 39.305.093 58.599.204 4.268.025 7.706 3.504 7.682 7.771-.026 4.251-3.48 7.681-7.726 7.681z" fill="#f6e266"/></g><g><path d="m233.399 408.785c-4.246 0-7.701-3.43-7.725-7.682-.024-4.267 3.415-7.746 7.682-7.771 22.201-.127 44.913-.198 67.506-.211h.004c4.266 0 7.724 3.456 7.726 7.722.002 4.267-3.455 7.728-7.722 7.73-22.565.013-45.251.085-67.426.211-.015.001-.03.001-.045.001z" fill="#f6e266"/></g><g><path d="m129.122 408.785c-4.229 0-7.68-3.406-7.724-7.646-.044-4.267 3.379-7.762 7.646-7.807 27.412-.286 54.171-.286 81.803 0 4.268.044 7.69 3.539 7.647 7.806-.044 4.24-3.495 7.647-7.724 7.647-.027 0-.054 0-.081 0-27.526-.286-54.18-.286-81.483 0-.028 0-.055 0-.084 0z" fill="#f6e266"/></g><g><path d="m250.618 451.169c-4.221 0-7.669-3.393-7.723-7.627-.055-4.267 3.359-7.771 7.626-7.825 33.578-.433 67.744-.433 101.548 0 4.267.054 7.682 3.557 7.627 7.824-.054 4.268-3.597 7.717-7.824 7.627-33.671-.429-67.702-.429-101.152 0-.034.001-.068.001-.102.001z" fill="#f6e266"/></g><g><path d="m227.608 451.169c-.034 0-.068 0-.103-.001-11.875-.155-23.919-.255-35.796-.298-4.267-.015-7.713-3.487-7.698-7.755.015-4.258 3.472-7.698 7.725-7.698h.029c11.925.043 24.017.144 35.941.3 4.267.055 7.681 3.559 7.625 7.826-.055 4.233-3.502 7.626-7.723 7.626z" fill="#f6e266"/></g><g><path d="m129.122 451.169c-4.219 0-7.667-3.391-7.723-7.624-.057-4.267 3.356-7.772 7.623-7.828 12.644-.169 25.563-.273 38.4-.309h.022c4.258 0 7.714 3.445 7.726 7.704.012 4.268-3.438 7.736-7.704 7.749-12.784.036-25.649.14-38.239.307-.034.001-.07.001-.105.001z" fill="#f6e266"/></g></g></g></g></svg>