<svg id="Capa_1" enable-background="new 0 0 512 512" height="512" viewBox="0 0 512 512" width="512" xmlns="http://www.w3.org/2000/svg"><g><path d="m422.518 512h-333.036c-4.309 0-7.802-3.493-7.802-7.802v-348.77h348.64v348.77c0 4.309-3.493 7.802-7.802 7.802z" fill="#f6f1f1"/><path d="m81.68 155.428v18.284h310.353c9.676 0 17.52 7.844 17.52 17.52v320.768h12.965c4.309 0 7.802-3.493 7.802-7.802v-348.77z" fill="#efe7e4"/><path d="m352.731 0h-263.249c-4.309 0-7.802 3.493-7.802 7.802v147.625h348.64v-106.73z" fill="#80b4fb"/><path d="m370.304 61.369 30.893 20.529c5.219 3.468 8.356 9.319 8.356 15.586v57.944h20.767v-106.731z" fill="#61a2f9"/><path d="m352.731 0 15.701 59.105c.932 3.507 4.549 5.576 8.044 4.602l53.845-15.01z" fill="#3b66c1"/><g id="XMLID_1_"><g><g><path d="m115.853 120.655c-4.254 0-7.71-3.441-7.725-7.698 0 0-.093-25.528-.093-35.322 0-8.032-.051-35.125-.051-35.125-.004-2.052.809-4.021 2.258-5.473 1.45-1.452 3.418-2.268 5.469-2.268h19.955c21.634 0 36.169 17.26 36.169 42.948 0 24.431-14.907 42.423-35.448 42.783-5.682.103-19.902.153-20.505.155-.01 0-.02 0-.029 0zm7.597-70.433c.015 8.652.037 22.139.037 27.413 0 6.322.038 19.209.066 27.531 4.44-.026 9.689-.064 12.557-.116 13.928-.244 20.27-14.339 20.27-27.332 0-13.292-5.443-27.495-20.716-27.495h-12.214z" fill="#3b66c1"/></g><g><path d="m314.442 121.737c-24.273 0-44.02-19.747-44.02-44.02s19.747-44.02 44.02-44.02c8.808 0 17.316 2.598 24.604 7.512 3.538 2.386 4.472 7.188 2.086 10.726-2.385 3.537-7.188 4.47-10.725 2.086-4.725-3.187-10.245-4.871-15.964-4.871-15.753 0-28.567 12.815-28.567 28.567s12.815 28.567 28.567 28.567c5.887 0 10.859-1.768 14.776-5.256.791-.705 1.512-1.448 2.138-2.203 2.726-3.285 7.598-3.735 10.88-1.011 3.284 2.725 3.736 7.597 1.011 10.88-1.118 1.346-2.378 2.647-3.747 3.869-6.743 6.004-15.406 9.174-25.059 9.174z" fill="#3b66c1"/></g><g><path d="m221.107 121.737c-24.273 0-44.019-19.747-44.019-44.02s19.746-44.02 44.019-44.02 44.02 19.747 44.02 44.02-19.747 44.02-44.02 44.02zm0-72.587c-15.752 0-28.566 12.815-28.566 28.567s12.815 28.567 28.566 28.567c15.753 0 28.567-12.815 28.567-28.567s-12.814-28.567-28.567-28.567z" fill="#3b66c1"/></g></g></g><g><g><g><path d="m140.947 264.942c-3.763 0-7.129-2.373-8.389-5.923-.126-.354-.225-.717-.299-1.087l-10.157-51.346c-.828-4.186 1.894-8.251 6.08-9.079 4.19-.826 8.251 1.895 9.078 6.08l5.094 25.749 8.183-26.439c1.262-4.076 5.59-6.357 9.666-5.096 4.076 1.262 6.358 5.589 5.097 9.665l-15.858 51.234c-.021.068-.043.137-.066.204-1.219 3.585-4.583 6.01-8.369 6.035-.02.003-.041.003-.06.003z" fill="#80b4fb"/></g><g><path d="m174.846 264.942c-3.763 0-7.129-2.373-8.389-5.923-.036-.103-.071-.207-.104-.311l-15.818-51.346c-1.256-4.078 1.031-8.402 5.11-9.658 4.076-1.255 8.403 1.031 9.659 5.109l8.169 26.519 5.107-25.657c.833-4.185 4.902-6.901 9.086-6.07 4.185.833 6.902 4.901 6.069 9.086l-10.196 51.234c-.065.333-.154.66-.263.981-1.219 3.585-4.582 6.01-8.369 6.035-.021.001-.041.001-.061.001z" fill="#80b4fb"/></g></g><g><path d="m382.319 212.814h-120.918c-4.268 0-7.726-3.459-7.726-7.726s3.459-7.726 7.726-7.726h120.918c4.268 0 7.726 3.459 7.726 7.726s-3.459 7.726-7.726 7.726z" fill="#80b4fb"/></g><g><path d="m382.319 255.689h-172.427c-4.268 0-7.726-3.459-7.726-7.726s3.459-7.726 7.726-7.726h172.427c4.268 0 7.726 3.459 7.726 7.726s-3.459 7.726-7.726 7.726z" fill="#80b4fb"/></g><g><path d="m382.319 298.565h-252.637c-4.268 0-7.726-3.459-7.726-7.726s3.459-7.726 7.726-7.726h252.637c4.268 0 7.726 3.459 7.726 7.726s-3.459 7.726-7.726 7.726z" fill="#80b4fb"/></g><g><path d="m382.319 341.44h-252.637c-4.268 0-7.726-3.459-7.726-7.726s3.459-7.726 7.726-7.726h252.637c4.268 0 7.726 3.459 7.726 7.726s-3.459 7.726-7.726 7.726z" fill="#80b4fb"/></g><g><path d="m382.319 384.315h-252.637c-4.268 0-7.726-3.459-7.726-7.726s3.459-7.726 7.726-7.726h252.637c4.268 0 7.726 3.459 7.726 7.726s-3.459 7.726-7.726 7.726z" fill="#80b4fb"/></g><g><path d="m382.319 427.19h-252.637c-4.268 0-7.726-3.459-7.726-7.726 0-4.268 3.459-7.726 7.726-7.726h252.637c4.268 0 7.726 3.459 7.726 7.726 0 4.268-3.459 7.726-7.726 7.726z" fill="#80b4fb"/></g><g><path d="m382.319 470.067h-252.637c-4.268 0-7.726-3.459-7.726-7.726s3.459-7.726 7.726-7.726h252.637c4.268 0 7.726 3.459 7.726 7.726s-3.459 7.726-7.726 7.726z" fill="#80b4fb"/></g></g></g></svg>