<svg id="Capa_1" enable-background="new 0 0 512 512" height="512" viewBox="0 0 512 512" width="512" xmlns="http://www.w3.org/2000/svg"><g><path d="m422.518 512h-333.036c-4.309 0-7.802-3.493-7.802-7.802v-348.77h348.64v348.77c0 4.309-3.493 7.802-7.802 7.802z" fill="#f6f1f1"/><path d="m81.68 155.428v18.284h310.353c9.676 0 17.52 7.844 17.52 17.52v320.768h12.965c4.309 0 7.802-3.493 7.802-7.802v-348.77z" fill="#efe7e4"/><path d="m352.731 0h-263.249c-4.309 0-7.802 3.493-7.802 7.802v147.625h348.64v-106.73z" fill="#ac80dd"/><path d="m370.304 61.369 30.893 20.529c5.219 3.468 8.356 9.319 8.356 15.586v57.944h20.767v-106.731z" fill="#9d66d5"/><path d="m352.731 0 15.701 59.105c.932 3.507 4.549 5.576 8.044 4.602l53.845-15.01z" fill="#8659b9"/><g><g><g><path d="m284.896 121.732c-24.273 0-44.019-19.746-44.019-44.019 0-24.272 19.746-44.018 44.019-44.018 8.82 0 17.333 2.602 24.617 7.522 3.536 2.389 4.466 7.192 2.077 10.727-2.388 3.536-7.191 4.465-10.727 2.077-4.72-3.189-10.241-4.874-15.967-4.874-15.752 0-28.566 12.814-28.566 28.565s12.815 28.566 28.566 28.566c14.07 0 20.809-10.036 22.881-20.84h-13.266c-4.268 0-7.726-3.459-7.726-7.726 0-4.268 3.459-7.726 7.726-7.726h21.714c4.268 0 7.726 3.459 7.726 7.726.001 25.919-16.059 44.02-39.055 44.02z" fill="#8659b9"/></g></g><g><g><path d="m144.366 121.732c-11.876 0-23.473-4.971-31.019-13.297-2.866-3.162-2.626-8.048.535-10.913 3.162-2.866 8.046-2.627 10.913.535 4.667 5.149 11.983 8.222 19.57 8.222 7.72 0 13.183-4.761 14.005-9.363.805-4.504-2.978-8.653-10.376-11.382-11.215-4.136-21.172-8.568-21.591-8.755-.372-.166-.73-.361-1.071-.584-7.21-4.701-10.925-12.946-9.694-21.518 1.317-9.171 8.044-16.649 17.557-19.515 19.137-5.766 34.922 7.249 35.585 7.806 3.267 2.745 3.688 7.62.943 10.886-2.736 3.256-7.586 3.684-10.852.971-.223-.179-10.249-8.171-21.218-4.866-5.401 1.627-6.497 5.377-6.718 6.913-.347 2.419.552 4.656 2.419 6.082 2.372 1.04 10.858 4.713 19.99 8.08 17.533 6.468 21.952 19.013 20.24 28.597-2.288 12.808-14.575 22.101-29.218 22.101z" fill="#8659b9"/></g></g><g><g><path d="m210.197 121.732c-3.958 0-7.498-2.496-8.825-6.229l-24.835-71.548c-1.399-4.031.734-8.433 4.766-9.832 4.027-1.403 8.433.733 9.832 4.766l18.936 54.55 18.045-54.32c1.345-4.05 5.721-6.242 9.768-4.896 4.049 1.345 6.242 5.718 4.896 9.768l-23.699 71.341c-1.299 3.822-4.836 6.374-8.819 6.401-.022-.001-.044-.001-.065-.001z" fill="#8659b9"/></g></g></g><g><g><path d="m342.651 428.092h-173.302c-4.268 0-7.726-3.459-7.726-7.726v-173.304c0-4.268 3.459-7.726 7.726-7.726h173.302c4.268 0 7.726 3.459 7.726 7.726v173.303c0 4.268-3.459 7.727-7.726 7.727zm-165.576-15.453h157.849v-157.85h-157.849z" fill="#8659b9"/></g><g fill="#ac80dd"><path d="m187.878 270.067h-37.058c-2.472 0-4.475-2.004-4.475-4.475v-37.058c0-2.472 2.004-4.475 4.475-4.475h37.058c2.472 0 4.475 2.004 4.475 4.475v37.058c0 2.471-2.003 4.475-4.475 4.475z"/><path d="m361.18 270.067h-37.058c-2.472 0-4.475-2.004-4.475-4.475v-37.058c0-2.472 2.004-4.475 4.475-4.475h37.058c2.472 0 4.475 2.004 4.475 4.475v37.058c0 2.471-2.004 4.475-4.475 4.475z"/><path d="m187.878 443.369h-37.058c-2.472 0-4.475-2.004-4.475-4.475v-37.058c0-2.472 2.004-4.475 4.475-4.475h37.058c2.472 0 4.475 2.004 4.475 4.475v37.058c0 2.471-2.003 4.475-4.475 4.475z"/><path d="m361.18 443.369h-37.058c-2.472 0-4.475-2.004-4.475-4.475v-37.058c0-2.472 2.004-4.475 4.475-4.475h37.058c2.472 0 4.475 2.004 4.475 4.475v37.058c0 2.471-2.004 4.475-4.475 4.475z"/></g><g><g><path d="m256 359.745c-4.268 0-7.726-3.459-7.726-7.726v-36.612c0-4.268 3.459-7.726 7.726-7.726s7.726 3.459 7.726 7.726v36.612c0 4.268-3.459 7.726-7.726 7.726z" fill="#8659b9"/></g><g><path d="m274.305 341.44h-36.612c-4.268 0-7.726-3.459-7.726-7.726s3.459-7.726 7.726-7.726h36.612c4.268 0 7.726 3.459 7.726 7.726s-3.458 7.726-7.726 7.726z" fill="#8659b9"/></g></g></g></g></svg>