<svg id="Capa_1" enable-background="new 0 0 512 512" height="512" viewBox="0 0 512 512" width="512" xmlns="http://www.w3.org/2000/svg"><g><path d="m422.518 512h-333.036c-4.309 0-7.802-3.493-7.802-7.802v-348.77h348.64v348.77c0 4.309-3.493 7.802-7.802 7.802z" fill="#f6f1f1"/><path d="m81.68 155.428v18.284h310.353c9.676 0 17.52 7.844 17.52 17.52v320.768h12.965c4.309 0 7.802-3.493 7.802-7.802v-348.77z" fill="#efe7e4"/><path d="m352.731 0h-263.249c-4.309 0-7.802 3.493-7.802 7.802v147.625h348.64v-106.73z" fill="#80b4fb"/><path d="m370.304 61.369 30.893 20.529c5.219 3.468 8.356 9.319 8.356 15.586v57.944h20.767v-106.731z" fill="#61a2f9"/><path d="m352.731 0 15.701 59.105c.932 3.507 4.549 5.576 8.044 4.602l53.845-15.01z" fill="#3b66c1"/><g><g><g><path d="m127.918 121.766c-7.492 0-13.92-4.128-17.24-7.47-3.007-3.027-2.992-7.919.035-10.927 3.01-2.992 7.864-2.992 10.876-.015.286.272 4.819 4.498 8.921 2.222 2.154-1.195 3.491-3.549 3.491-6.142v-58.013c0-4.267 3.459-7.726 7.726-7.726s7.726 3.459 7.726 7.726v58.013c0 8.204-4.385 15.734-11.444 19.652-3.451 1.917-6.87 2.68-10.091 2.68z" fill="#3b66c1"/></g></g><g><g><path d="m271.533 121.733c-24.273 0-44.019-19.747-44.019-44.019s19.746-44.019 44.019-44.019c8.82 0 17.333 2.601 24.617 7.522 3.536 2.389 4.466 7.192 2.077 10.728-2.389 3.535-7.192 4.466-10.727 2.077-4.72-3.189-10.241-4.874-15.967-4.874-15.752 0-28.566 12.814-28.566 28.566s12.815 28.566 28.566 28.566c14.069 0 20.808-10.037 22.88-20.84h-13.265c-4.268 0-7.726-3.459-7.726-7.726s3.459-7.726 7.726-7.726h21.713c4.268 0 7.726 3.459 7.726 7.726.001 25.918-16.059 44.019-39.054 44.019z" fill="#3b66c1"/></g></g><g><g><path d="m172.285 121.733c-4.268 0-7.726-3.459-7.726-7.726v-72.586c0-4.267 3.459-7.726 7.726-7.726s7.726 3.459 7.726 7.726v72.585c.001 4.267-3.458 7.727-7.726 7.727z" fill="#3b66c1"/></g><g><path d="m172.426 90.205c-2.032 0-3.983-.8-5.43-2.229-1.458-1.44-2.284-3.4-2.297-5.45 0 0-.091-14.906-.091-20.621 0-4.678-.05-20.458-.05-20.459-.006-2.053.805-4.025 2.255-5.479s3.419-2.272 5.472-2.272h20.21c15.777 0 28.612 12.655 28.612 28.21s-12.835 28.21-28.612 28.21c-5.597 0-20.021.091-20.021.091-.016-.001-.032-.001-.048-.001zm7.609-41.057c.013 4.712.027 10.283.027 12.757 0 2.932.024 8.295.047 12.803 4.374-.023 9.527-.046 12.386-.046 7.133 0 13.159-5.842 13.159-12.757s-6.026-12.757-13.159-12.757z" fill="#3b66c1"/></g></g></g><g><path d="m370.208 422.588h-228.416c-4.635 0-8.392-3.757-8.392-8.392v-160.965c0-4.635 3.757-8.392 8.392-8.392h228.416c4.635 0 8.392 3.757 8.392 8.392v160.965c-.001 4.635-3.758 8.392-8.392 8.392z" fill="#80b4fb"/><path d="m357.839 244.84v177.748h12.368c4.635 0 8.392-3.757 8.392-8.392v-160.965c0-4.635-3.757-8.392-8.392-8.392h-12.368z" fill="#61a2f9"/><path d="m133.401 414.196v-23.932l82.619-64.846c3.546-2.783 8.698-2.038 11.309 1.636l67.919 95.534h-153.456c-4.634 0-8.391-3.757-8.391-8.392z" fill="#78d0b1"/><path d="m227.328 327.054c-2.612-3.674-7.764-4.419-11.309-1.636l-8.868 6.961 64.133 90.209h23.963z" fill="#66b49d"/><path d="m270.254 387.433 39.397-43.506c2.846-3.143 7.666-3.477 10.918-.756l58.03 48.546v22.479c0 4.635-3.757 8.392-8.392 8.392h-74.96z" fill="#78d0b1"/><path d="m357.839 374.35v48.237h12.368c4.635 0 8.392-3.757 8.392-8.392v-22.479z" fill="#66b49d"/><circle cx="289.863" cy="292.757" fill="#f6e266" r="14.989"/></g></g></svg>