<?xml version="1.0" standalone="no"?>
<!DOCTYPE svg PUBLIC "-//W3C//DTD SVG 20010904//EN"
 "http://www.w3.org/TR/2001/REC-SVG-20010904/DTD/svg10.dtd">
<svg version="1.0" xmlns="http://www.w3.org/2000/svg"
 width="96.000000pt" height="96.000000pt" viewBox="0 0 96.000000 96.000000"
 preserveAspectRatio="xMidYMid meet">

<g transform="translate(0.000000,96.000000) scale(0.100000,-0.100000)"
fill="#000000" stroke="none">
<path d="M533 762 l-213 -65 0 -188 0 -187 -34 10 c-48 15 -104 -14 -130 -65
-16 -33 -17 -45 -7 -77 21 -69 90 -103 154 -76 64 26 71 49 77 245 l5 174 160
54 c88 29 163 53 167 53 5 0 8 -54 8 -119 l0 -119 -34 10 c-28 9 -41 7 -72 -8
-99 -49 -89 -184 16 -215 32 -10 44 -9 77 7 70 34 73 51 73 362 0 253 -1 272
-17 271 -10 -1 -114 -31 -230 -67z"/>
</g>
</svg>
