<?xml version="1.0"?>
<svg xmlns="http://www.w3.org/2000/svg" id="Solid" viewBox="0 0 512 512" width="512" height="512">
	<defs>
		<linearGradient id="linear-gradient" x1="255.956" y1="496" x2="255.956" y2="16" gradientUnits="userSpaceOnUse">
			<stop offset="0" stop-color="#12c2e9"/>
			<stop offset="0.5" stop-color="#c471ed"/>
			<stop offset="1" stop-color="#f64f59"/>
		</linearGradient>
	</defs>
	<circle cx="312" cy="64" r="16" style="fill:url(#linear-gradient)"/>
<path d="M148.1,190.861c3.758-29.112,10.125-56.783,18.575-80.807-52.91-11.8-93.795-5.988-110.3,16.016-18.537,24.71-5.376,69.342,34.231,117.7A465.419,465.419,0,0,1,148.1,190.861Z" style="fill:url(#linear-gradient)"/>
<path d="M166.67,401.946c-8.452-24.028-14.819-51.7-18.576-80.817a464.7,464.7,0,0,1-57.495-52.9q-2.078,2.533-4.069,5.068a31.987,31.987,0,0,1-31.777,53.332c-7.183,18.7-11.339,42.017,1.618,59.3C72.876,407.934,113.763,413.748,166.67,401.946Z" style="fill:url(#linear-gradient)"/>
<circle cx="64" cy="296" r="16" style="fill:url(#linear-gradient)"/>
<path d="M101.111,256a431.841,431.841,0,0,0,44.632,42.675C144.594,284.632,144,270.35,144,256s.594-28.637,1.744-42.68A432.351,432.351,0,0,0,101.111,256Z" style="fill:url(#linear-gradient)"/>
<path d="M186.952,163.044a567.178,567.178,0,0,1,50.432-29.415,412.988,412.988,0,0,0-55.118-19.685,368.454,368.454,0,0,0-16,63.29Q176.391,169.96,186.952,163.044Z" style="fill:url(#linear-gradient)"/>
<path d="M363.905,321.139c-3.758,29.112-10.124,56.782-18.574,80.805q4.587,1.024,9.08,1.885a32,32,0,0,1,60.183,2.79c18.826-2.8,32.934-9.876,41.033-20.686,18.54-24.713,5.379-69.345-34.228-117.7A465.329,465.329,0,0,1,363.905,321.139Z" style="fill:url(#linear-gradient)"/>
<circle cx="384" cy="416" r="16" style="fill:url(#linear-gradient)"/>
<path d="M325.048,348.956a567.178,567.178,0,0,1-50.432,29.415,412.988,412.988,0,0,0,55.118,19.685,368.454,368.454,0,0,0,16-63.29Q335.609,342.04,325.048,348.956Z" style="fill:url(#linear-gradient)"/>
<path d="M256,369.784a544.839,544.839,0,0,0,60.292-34.22c11.215-7.333,22.14-15.059,32.532-22.988A501.451,501.451,0,0,0,352,256a501.517,501.517,0,0,0-3.176-56.576c-10.392-7.929-21.316-15.654-32.532-22.988A544.7,544.7,0,0,0,256,142.216a544.839,544.839,0,0,0-60.292,34.22c-11.215,7.333-22.14,15.059-32.532,22.988a505.5,505.5,0,0,0,0,113.152c10.392,7.929,21.316,15.654,32.532,22.988A544.7,544.7,0,0,0,256,369.784ZM256,192a64,64,0,1,1-64,64A64.072,64.072,0,0,1,256,192Z" style="fill:url(#linear-gradient)"/>
<path d="M410.889,256a431.841,431.841,0,0,0-44.632-42.675C367.406,227.368,368,241.65,368,256s-.594,28.637-1.744,42.68A432.351,432.351,0,0,0,410.889,256Z" style="fill:url(#linear-gradient)"/>
<path d="M188.123,413.038C206.362,455.724,230.834,480,256,480s49.638-24.276,67.877-66.961A444.27,444.27,0,0,1,256,387.517,444.014,444.014,0,0,1,188.123,413.038Z" style="fill:url(#linear-gradient)"/>
<path d="M421.4,243.765c39.607-48.354,52.768-92.985,34.231-117.694-16.5-22-57.392-27.818-110.3-16.017,8.452,24.028,14.819,51.7,18.576,80.817A464.729,464.729,0,0,1,421.4,243.765Z" style="fill:url(#linear-gradient)"/>
<path d="M323.862,98.966q-.981-2.293-2-4.529a31.977,31.977,0,0,1-35.094-50.088C276.791,36.158,266.468,32,256,32c-25.166,0-49.638,24.276-67.877,66.961A444.258,444.258,0,0,1,256,124.483,444.147,444.147,0,0,1,323.862,98.966Z" style="fill:url(#linear-gradient)"/>
<path d="M325.048,163.045q10.537,6.89,20.689,14.19a368.4,368.4,0,0,0-16-63.291,413.069,413.069,0,0,0-55.118,19.685A566.986,566.986,0,0,1,325.048,163.045Z" style="fill:url(#linear-gradient)"/>
<circle cx="256" cy="256" r="48" style="fill:url(#linear-gradient)"/>
<path d="M186.952,348.955q-10.538-6.889-20.689-14.19a368.4,368.4,0,0,0,16,63.291,413.069,413.069,0,0,0,55.118-19.685A566.986,566.986,0,0,1,186.952,348.955Z" style="fill:url(#linear-gradient)"/></svg>
