<svg id="Capa_1" enable-background="new 0 0 512 512" height="512" viewBox="0 0 512 512" width="512" xmlns="http://www.w3.org/2000/svg"><g><path d="m422.518 512h-333.036c-4.309 0-7.802-3.493-7.802-7.802v-348.77h348.64v348.77c0 4.309-3.493 7.802-7.802 7.802z" fill="#f6f1f1"/><path d="m81.68 155.428v18.284h310.353c9.676 0 17.52 7.844 17.52 17.52v320.768h12.965c4.309 0 7.802-3.493 7.802-7.802v-348.77z" fill="#efe7e4"/><path d="m352.731 0h-263.249c-4.309 0-7.802 3.493-7.802 7.802v147.625h348.64v-106.73z" fill="#ac80dd"/><path d="m370.304 61.369 30.893 20.529c5.219 3.468 8.356 9.319 8.356 15.586v57.944h20.767v-106.731z" fill="#9d66d5"/><path d="m352.731 0 15.701 59.105c.932 3.507 4.549 5.576 8.044 4.602l53.845-15.01z" fill="#8659b9"/><g><g><g><path d="m119.07 121.735c-.914 0-1.844-.163-2.748-.508-3.988-1.519-5.99-5.983-4.471-9.97l27.256-71.563c.022-.06.046-.12.07-.178 1.447-3.533 4.848-5.818 8.666-5.821h.007c3.815 0 7.216 2.279 8.667 5.807.028.069.056.14.083.21l27.008 71.566c1.507 3.993-.508 8.451-4.5 9.957-3.991 1.506-8.451-.507-9.957-4.5l-21.327-56.513-21.532 56.534c-1.175 3.084-4.109 4.979-7.222 4.979z" fill="#8659b9"/></g><g><path d="m168.016 103.91h-40.444c-4.268 0-7.726-3.459-7.726-7.726s3.459-7.726 7.726-7.726h40.444c4.268 0 7.726 3.459 7.726 7.726s-3.459 7.726-7.726 7.726z" fill="#8659b9"/></g></g><g><g><path d="m229.484 121.401h-30.305c-4.268 0-7.726-3.459-7.726-7.726v-71.922c0-4.268 3.459-7.726 7.726-7.726h30.305c4.268 0 7.726 3.459 7.726 7.726s-3.459 7.726-7.726 7.726h-22.578v56.469h22.578c4.268 0 7.726 3.459 7.726 7.726 0 4.268-3.459 7.727-7.726 7.727z" fill="#8659b9"/></g><g><path d="m227.249 85.44h-28.07c-4.268 0-7.726-3.459-7.726-7.726 0-4.268 3.459-7.726 7.726-7.726h28.07c4.268 0 7.726 3.459 7.726 7.726s-3.458 7.726-7.726 7.726z" fill="#8659b9"/></g></g></g><g><path d="m380.795 462.53h-249.59c-4.97 0-9-4.029-9-9v-239.633c0-4.97 4.029-9 9-9h249.59c4.97 0 9 4.029 9 9v239.633c0 4.971-4.029 9-9 9z" fill="#efe7e4"/><path d="m380.795 204.897h-22.395c4.97 0 8.999 4.03 8.999 9v239.633c0 4.97-4.029 9-8.999 9h22.396c4.97 0 9-4.029 9-9v-239.633c-.001-4.97-4.031-9-9.001-9z" fill="#eadfda"/><g><path d="m263.581 265.072h-100.831c-2.998 0-5.429-2.43-5.429-5.428v-19.524c0-2.998 2.43-5.429 5.429-5.429h100.831c2.998 0 5.429 2.43 5.429 5.429v19.524c0 2.998-2.431 5.428-5.429 5.428z" fill="#ac80dd"/><path d="m349.25 320.96h-97.1c-2.998 0-5.429-2.43-5.429-5.429v-19.524c0-2.998 2.43-5.429 5.429-5.429h97.1c2.998 0 5.429 2.43 5.429 5.429v19.524c0 2.999-2.431 5.429-5.429 5.429z" fill="#80b4fb"/><path d="m288.769 376.848h-72.7c-2.998 0-5.429-2.43-5.429-5.428v-19.524c0-2.998 2.43-5.428 5.429-5.428h72.7c2.998 0 5.428 2.43 5.428 5.428v19.524c.001 2.998-2.43 5.428-5.428 5.428z" fill="#e7a561"/><path d="m320.64 432.736h-142.522c-2.998 0-5.429-2.43-5.429-5.429v-19.524c0-2.998 2.43-5.429 5.429-5.429h142.522c2.998 0 5.429 2.43 5.429 5.429v19.524c-.001 2.999-2.431 5.429-5.429 5.429z" fill="#ac80dd"/></g></g></g></svg>