<svg id="Capa_1" enable-background="new 0 0 512 512" height="512" viewBox="0 0 512 512" width="512" xmlns="http://www.w3.org/2000/svg"><g><path d="m422.518 512h-333.036c-4.309 0-7.802-3.493-7.802-7.802v-348.77h348.64v348.77c0 4.309-3.493 7.802-7.802 7.802z" fill="#f6f1f1"/><path d="m81.68 155.428v18.284h310.353c9.676 0 17.52 7.844 17.52 17.52v320.768h12.965c4.309 0 7.802-3.493 7.802-7.802v-348.77z" fill="#efe7e4"/><path d="m352.731 0h-263.249c-4.309 0-7.802 3.493-7.802 7.802v147.625h348.64v-106.73z" fill="#78d0b1"/><path d="m370.304 61.369 30.893 20.529c5.219 3.468 8.356 9.319 8.356 15.586v57.944h20.767v-106.731z" fill="#66b49d"/><path d="m352.731 0 15.701 59.105c.932 3.507 4.549 5.576 8.044 4.602l53.845-15.01z" fill="#5493a2"/><g><g><g><path d="m213.885 121.733c-4.267 0-7.726-3.459-7.726-7.726v-72.586c0-4.268 3.459-7.726 7.726-7.726s7.726 3.459 7.726 7.726v72.586c.001 4.267-3.458 7.726-7.726 7.726z" fill="#5493a2"/></g></g><g><g><path d="m243.038 121.467c-4.267 0-7.726-3.459-7.726-7.726v-72.054c0-4.268 3.459-7.726 7.726-7.726h29.204c4.268 0 7.726 3.459 7.726 7.726s-3.459 7.726-7.726 7.726h-21.477v64.327c0 4.268-3.46 7.727-7.727 7.727z" fill="#5493a2"/></g><g><path d="m269.922 84.758h-26.884c-4.267 0-7.726-3.459-7.726-7.726 0-4.268 3.459-7.726 7.726-7.726h26.884c4.268 0 7.726 3.459 7.726 7.726.001 4.267-3.458 7.726-7.726 7.726z" fill="#5493a2"/></g></g><g><g><path d="m156.029 121.733c-24.272 0-44.019-19.746-44.019-44.019s19.747-44.019 44.019-44.019c8.819 0 17.331 2.601 24.616 7.522 3.536 2.388 4.466 7.191 2.077 10.727-2.388 3.536-7.19 4.466-10.727 2.077-4.721-3.189-10.242-4.874-15.966-4.874-15.752 0-28.566 12.815-28.566 28.566s12.815 28.566 28.566 28.566c14.07 0 20.808-10.036 22.881-20.84h-13.265c-4.267 0-7.726-3.459-7.726-7.726 0-4.268 3.459-7.726 7.726-7.726h21.714c4.267 0 7.726 3.459 7.726 7.726 0 25.918-16.061 44.02-39.056 44.02z" fill="#5493a2"/></g></g></g><g><g><path d="m196.873 421.752c-1.482 0-2.979-.426-4.301-1.314-28.879-19.4-46.12-51.727-46.12-86.474 0-57.405 46.702-104.108 104.107-104.108s104.107 46.702 104.107 104.108c0 14.764-4.455 36.484-12.968 49.431-2.344 3.565-7.134 4.555-10.701 2.21-3.565-2.345-4.554-7.136-2.21-10.701 6.441-9.793 10.427-28.876 10.427-40.94 0-48.884-39.771-88.655-88.654-88.655-48.884 0-88.654 39.771-88.654 88.655 0 29.591 14.686 57.122 39.284 73.647 3.542 2.379 4.485 7.18 2.105 10.722-1.492 2.22-3.935 3.419-6.422 3.419z" fill="#78d0b1"/></g><g><path d="m240.687 437.572c-.262 0-.526-.014-.792-.04-9.24-.941-18.305-3.116-26.944-6.463-3.979-1.541-5.954-6.017-4.412-9.996 1.541-3.98 6.014-5.959 9.996-4.412 7.349 2.847 15.062 4.697 22.926 5.497 4.245.433 7.336 4.224 6.904 8.47-.406 3.978-3.763 6.944-7.678 6.944z" fill="#66b49d"/></g><g><path d="m263.083 437.265c-3.824 0-7.146-2.838-7.652-6.731-.55-4.231 2.435-8.108 6.666-8.658 5.882-.765 11.7-2.127 17.293-4.048 4.037-1.383 8.432.76 9.818 4.796 1.387 4.035-.761 8.432-4.796 9.818-6.574 2.26-13.412 3.86-20.323 4.759-.338.043-.674.064-1.006.064z" fill="#5493a2"/></g><g><path d="m296.553 328.308-64.043-41.555c-4.486-2.911-10.413.309-10.413 5.656v83.11c0 5.347 5.927 8.567 10.413 5.656l64.043-41.555c4.097-2.658 4.097-8.654 0-11.312z" fill="#78d0b1"/></g><g><path d="m316.515 407.551 35.186-12.851c3.428-1.252 4.029-5.844 1.038-7.936l-35.186-24.608c-2.991-2.092-7.098.048-7.098 3.698v37.46c0 3.133 3.117 5.312 6.06 4.237z" fill="#78d0b1"/></g></g></g></svg>