<svg id="Capa_1" enable-background="new 0 0 512 512" height="512" viewBox="0 0 512 512" width="512" xmlns="http://www.w3.org/2000/svg"><g><path d="m422.518 512h-333.036c-4.309 0-7.802-3.493-7.802-7.802v-348.77h348.64v348.77c0 4.309-3.493 7.802-7.802 7.802z" fill="#f6f1f1"/><path d="m81.68 155.428v18.284h310.353c9.676 0 17.52 7.844 17.52 17.52v320.768h12.965c4.309 0 7.802-3.493 7.802-7.802v-348.77z" fill="#efe7e4"/><path d="m352.731 0h-263.249c-4.309 0-7.802 3.493-7.802 7.802v147.625h348.64v-106.73z" fill="#ac80dd"/><path d="m370.304 61.369 30.893 20.529c5.219 3.468 8.356 9.319 8.356 15.586v57.944h20.767v-106.731z" fill="#9d66d5"/><path d="m352.731 0 15.701 59.105c.932 3.507 4.549 5.576 8.044 4.602l53.845-15.01z" fill="#8659b9"/><g><g><g><path d="m228.655 121.733c-4.031 0-7.596-2.561-8.879-6.387-.03-.09-.058-.18-.086-.272l-13.47-45.655-8.192 45.392c-.758 4.2-4.782 6.985-8.976 6.231-4.199-.758-6.989-4.777-6.231-8.976l12.758-70.684c.821-4.264 4.344-7.378 8.586-7.663 4.244-.285 8.151 2.331 9.506 6.36.031.092.06.184.088.277l14.797 50.155 14.276-50.075c.025-.089.052-.177.081-.265 1.312-4.043 5.213-6.676 9.434-6.463 4.243.238 7.802 3.314 8.652 7.479l13.53 70.801c.802 4.192-1.947 8.238-6.138 9.039-4.184.808-8.238-1.946-9.039-6.138l-8.699-45.521-13.006 45.623c-.025.088-.052.175-.08.263-1.248 3.854-4.809 6.457-8.86 6.478-.019 0-.036.001-.052.001z" fill="#8659b9"/></g></g><g><g><path d="m119.071 82.625c-2.043 0-4.003-.809-5.451-2.251-1.457-1.451-2.276-3.421-2.276-5.476v-33.477c0-4.268 3.459-7.726 7.726-7.726h21.085c13.47 0 24.429 10.958 24.429 24.428s-10.959 24.429-24.429 24.429c-4.566 0-21.048.073-21.05.073-.011 0-.023 0-.034 0zm7.726-33.477v17.992c4.953-.02 10.89-.041 13.358-.041 4.95 0 8.976-4.026 8.976-8.976 0-4.949-4.026-8.975-8.976-8.975z" fill="#8659b9"/></g><g><path d="m119.071 121.732c-2.043 0-4.003-.809-5.452-2.251-1.456-1.451-2.275-3.421-2.275-5.476v-39.16c0-4.268 3.459-7.726 7.726-7.726h24.767c15.034 0 27.265 12.23 27.265 27.264s-12.23 27.265-27.265 27.265c-5.343 0-24.731.086-24.732.086-.011-.002-.023-.002-.034-.002zm7.726-39.161v23.676c6.048-.024 13.925-.053 17.04-.053 6.513 0 11.812-5.299 11.812-11.812 0-6.512-5.299-11.811-11.812-11.811z" fill="#8659b9"/></g></g><g><g><path d="m295.692 121.732c-4.268 0-7.726-3.459-7.726-7.726v-72.585c0-4.268 3.459-7.726 7.726-7.726 4.268 0 7.726 3.459 7.726 7.726v72.585c0 4.268-3.459 7.726-7.726 7.726z" fill="#8659b9"/></g><g><path d="m295.833 90.205c-2.032 0-3.983-.801-5.43-2.229-1.458-1.441-2.284-3.4-2.297-5.45 0 0-.091-14.905-.091-20.622 0-4.677-.05-20.459-.05-20.459-.006-2.053.805-4.024 2.255-5.479s3.418-2.272 5.472-2.272h20.21c15.777 0 28.612 12.655 28.612 28.209 0 15.555-12.835 28.21-28.612 28.21-5.597 0-20.021.091-20.021.091-.016.001-.032.001-.048.001zm7.608-41.057c.013 4.712.027 10.283.027 12.757 0 2.933.024 8.296.047 12.804 4.374-.023 9.527-.046 12.386-.046 7.133 0 13.159-5.842 13.159-12.758 0-6.914-6.026-12.757-13.159-12.757z" fill="#8659b9"/></g></g></g><g><path d="m374.148 426.766h-236.296c-4.125 0-7.469-3.344-7.469-7.469v-171.167c0-4.125 3.344-7.469 7.469-7.469h236.296c4.125 0 7.469 3.344 7.469 7.469v171.168c-.001 4.125-3.344 7.468-7.469 7.468z" fill="#80b4fb"/><path d="m374.148 240.661h-21.381c4.125 0 7.469 3.344 7.469 7.469v171.168c0 4.125-3.344 7.469-7.469 7.469h21.381c4.125 0 7.469-3.344 7.469-7.469v-171.168c-.001-4.125-3.344-7.469-7.469-7.469z" fill="#61a2f9"/><path d="m302.092 339.449h-120.132c-3.452 0-6.25-2.798-6.25-6.25v-44.344c0-3.452 2.798-6.25 6.25-6.25h120.132c3.452 0 6.25 2.798 6.25 6.25v44.344c0 3.452-2.798 6.25-6.25 6.25z" fill="#f6e266"/><circle cx="308.342" cy="347.061" fill="#ac80dd" r="38.516"/></g></g></svg>