<svg id="Capa_1" enable-background="new 0 0 512 512" height="512" viewBox="0 0 512 512" width="512" xmlns="http://www.w3.org/2000/svg"><g><path d="m422.518 512h-333.036c-4.309 0-7.802-3.493-7.802-7.802v-348.77h348.64v348.77c0 4.309-3.493 7.802-7.802 7.802z" fill="#f6f1f1"/><path d="m81.68 155.428v18.284h310.353c9.676 0 17.52 7.844 17.52 17.52v320.768h12.965c4.309 0 7.802-3.493 7.802-7.802v-348.77z" fill="#efe7e4"/><path d="m352.731 0h-263.249c-4.309 0-7.802 3.493-7.802 7.802v147.625h348.64v-106.73z" fill="#dd636e"/><path d="m370.304 61.369 30.893 20.529c5.219 3.468 8.356 9.319 8.356 15.586v57.944h20.767v-106.731z" fill="#da4a54"/><path d="m352.731 0 15.701 59.105c.932 3.507 4.549 5.576 8.044 4.602l53.845-15.01z" fill="#d82e3d"/><g><g><g><path d="m181.287 121.733c-4.268 0-7.726-3.459-7.726-7.726v-72.45c0-3.381 2.199-6.37 5.427-7.376 3.232-1.004 6.736.203 8.658 2.986l36.571 52.958-.471-48.629c-.041-4.267 3.384-7.76 7.652-7.801h.076c4.232 0 7.683 3.41 7.724 7.652l.678 70.139c0 4.363-2.409 7.887-6.138 9.052-3.639 1.14-7.497-.296-9.821-3.653l-34.904-50.543v47.665c.001 4.267-3.458 7.726-7.726 7.726z" fill="#d82e3d"/></g></g><g><g><path d="m288.228 121.733c-24.273 0-44.019-19.746-44.019-44.019s19.746-44.019 44.019-44.019c8.821 0 17.333 2.602 24.617 7.522 3.535 2.389 4.465 7.192 2.075 10.728-2.388 3.535-7.192 4.464-10.727 2.076-4.718-3.189-10.239-4.874-15.965-4.874-15.751 0-28.566 12.815-28.566 28.566s12.815 28.566 28.566 28.566c14.069 0 20.808-10.036 22.88-20.84h-13.265c-4.268 0-7.726-3.459-7.726-7.726 0-4.268 3.459-7.726 7.726-7.726h21.713c4.268 0 7.726 3.459 7.726 7.726.001 25.918-16.059 44.02-39.054 44.02z" fill="#d82e3d"/></g></g><g><g><path d="m119.736 121.733c-4.268 0-7.726-3.459-7.726-7.726v-72.586c0-4.268 3.459-7.726 7.726-7.726 4.268 0 7.726 3.459 7.726 7.726v72.586c0 4.267-3.458 7.726-7.726 7.726z" fill="#d82e3d"/></g><g><path d="m119.877 90.205c-2.032 0-3.983-.801-5.43-2.229-1.458-1.441-2.284-3.4-2.297-5.45 0 0-.141-41.078-.141-41.08-.006-2.053.805-4.024 2.255-5.479s3.419-2.272 5.472-2.272h20.211c15.776 0 28.611 12.655 28.611 28.21 0 15.554-12.835 28.209-28.611 28.209-5.597 0-20.019.091-20.022.091-.016 0-.032 0-.048 0zm7.609-41.058c.013 4.712.051 21.052.074 25.56 4.375-.023 9.527-.046 12.387-.046 7.133 0 13.158-5.842 13.158-12.757s-6.025-12.758-13.158-12.758h-12.461z" fill="#d82e3d"/></g></g></g><path d="m354.048 453.228h-197.648c-8.978 0-16.256-7.278-16.256-16.256v-206.517c0-8.978 7.278-16.256 16.256-16.256h197.648c8.978 0 16.256 7.278 16.256 16.256v206.517c0 8.978-7.278 16.256-16.256 16.256z" fill="#efe7e4"/><g fill="#665e66"><path d="m278.296 357.617h46.004v47.806h-46.004z"/><path d="m278.296 262.005h46.004v47.806h-46.004z"/><path d="m232.292 214.199h46.004v47.806h-46.004z"/><path d="m232.292 309.811h46.004v47.806h-46.004z"/><path d="m186.288 357.617h46.004v47.806h-46.004z"/><path d="m370.304 262.005v-38.119c0-5.35-4.337-9.687-9.687-9.687h-36.317v47.806z"/><path d="m186.288 262.005h46.004v47.806h-46.004z"/><path d="m232.292 405.422h46.004v47.806h-46.004z"/><path d="m324.3 453.228h36.317c5.35 0 9.687-4.337 9.687-9.687v-38.119h-46.004z"/><path d="m186.288 214.199h-36.317c-5.35 0-9.687 4.337-9.687 9.687v38.119h46.004z"/><path d="m324.3 309.811h46.004v47.806h-46.004z"/><path d="m140.284 309.811h46.004v47.806h-46.004z"/><path d="m140.284 405.422v38.119c0 5.35 4.337 9.687 9.687 9.687h36.317v-47.806z"/></g></g></svg>