<svg id="Capa_1" enable-background="new 0 0 512 512" height="512" viewBox="0 0 512 512" width="512" xmlns="http://www.w3.org/2000/svg"><g><path d="m422.518 512h-333.036c-4.309 0-7.802-3.493-7.802-7.802v-348.77h348.64v348.77c0 4.309-3.493 7.802-7.802 7.802z" fill="#f6f1f1"/><path d="m81.68 155.428v18.284h310.353c9.676 0 17.52 7.844 17.52 17.52v320.768h12.965c4.309 0 7.802-3.493 7.802-7.802v-348.77z" fill="#efe7e4"/><path d="m352.731 0h-263.249c-4.309 0-7.802 3.493-7.802 7.802v147.625h348.64v-106.73z" fill="#e7a561"/><path d="m370.304 61.369 30.893 20.529c5.219 3.468 8.356 9.319 8.356 15.586v57.944h20.767v-106.731z" fill="#e49542"/><path d="m352.731 0 15.701 59.105c.932 3.507 4.549 5.576 8.044 4.602l53.845-15.01z" fill="#e28424"/><g><g><g><path d="m157.965 121.733c-4.03 0-7.595-2.562-8.878-6.387-.03-.09-.058-.18-.086-.272l-13.47-45.655-8.192 45.392c-.758 4.2-4.785 6.986-8.976 6.231-4.199-.758-6.989-4.777-6.231-8.976l12.758-70.684c.821-4.264 4.344-7.378 8.586-7.663 4.244-.278 8.151 2.331 9.506 6.36.031.092.06.184.088.277l14.797 50.155 14.276-50.075c.025-.089.052-.177.081-.265 1.311-4.043 5.208-6.686 9.434-6.463 4.243.238 7.802 3.314 8.652 7.479l13.53 70.801c.802 4.192-1.947 8.238-6.138 9.039-4.188.81-8.237-1.946-9.039-6.138l-8.699-45.521-13.006 45.623c-.026.09-.053.178-.081.267-1.251 3.852-4.812 6.455-8.862 6.474-.018 0-.033.001-.05.001z" fill="#e28424"/></g></g><g><g><path d="m222.183 121.732c-4.268 0-7.726-3.459-7.726-7.726v-72.584c0-4.268 3.459-7.726 7.726-7.726s7.726 3.459 7.726 7.726v72.585c0 4.267-3.459 7.725-7.726 7.725z" fill="#e28424"/></g><g><path d="m222.323 90.205c-2.032 0-3.983-.801-5.43-2.229-1.458-1.441-2.285-3.401-2.297-5.451l-.14-41.079c-.006-2.053.805-4.024 2.255-5.479s3.419-2.272 5.472-2.272h20.21c15.776 0 28.611 12.655 28.611 28.209 0 15.555-12.835 28.21-28.611 28.21-5.597 0-20.019.091-20.022.091-.016 0-.032 0-.048 0zm7.609-41.057c.013 4.712.051 21.052.073 25.56 4.375-.023 9.528-.046 12.387-.046 7.133 0 13.158-5.842 13.158-12.758 0-6.914-6.025-12.757-13.158-12.757h-12.46z" fill="#e28424"/></g></g><g><g><path d="m307.982 85.441c-4.268 0-7.726-3.459-7.726-7.726 0-4.268 3.459-7.726 7.726-7.726 7.972 0 14.457-6.485 14.457-14.457s-6.485-14.457-14.457-14.457c-6.894 0-12.86 4.897-14.185 11.646-.822 4.187-4.878 6.914-9.07 6.093-4.187-.822-6.914-4.883-6.093-9.07 2.744-13.977 15.088-24.121 29.348-24.121 16.492 0 29.909 13.418 29.909 29.909s-13.418 29.909-29.909 29.909z" fill="#e28424"/></g><g><path d="m307.982 129.806c-14.839 0-27.573-11.068-29.621-25.747-.192-1.374-.289-2.774-.289-4.162 0-4.268 3.459-7.726 7.726-7.726s7.726 3.459 7.726 7.726c0 .677.047 1.36.141 2.028.988 7.085 7.143 12.429 14.316 12.429 7.972 0 14.457-6.485 14.457-14.457 0-7.971-6.485-14.456-14.457-14.456-4.268 0-7.726-3.459-7.726-7.726 0-4.268 3.459-7.726 7.726-7.726 16.492 0 29.909 13.417 29.909 29.908s-13.417 29.909-29.908 29.909z" fill="#e28424"/></g></g></g><g><path d="m356.825 250.24c0-3.229-2.618-5.847-5.847-5.847h-129.241c-3.229 0-5.847 2.618-5.847 5.847l-.001 115.921c-4.399-2.481-9.475-3.903-14.886-3.903-16.766 0-30.358 13.592-30.358 30.358s13.592 30.358 30.358 30.358 30.358-13.592 30.358-30.358c0-.254-.013-.504-.019-.756v-96.15h110.031v51.348c-4.404-2.488-9.486-3.914-14.905-3.914-16.766 0-30.358 13.592-30.358 30.358s13.592 30.358 30.358 30.358 30.358-13.592 30.358-30.358z" fill="#e7a561"/><path d="m329.961 244.393v51.317h26.865v-45.47c0-3.229-2.618-5.847-5.847-5.847z" fill="#e49542"/></g></g></svg>