<svg id="Capa_1" enable-background="new 0 0 512 512" height="512" viewBox="0 0 512 512" width="512" xmlns="http://www.w3.org/2000/svg"><g><path d="m422.518 512h-333.036c-4.309 0-7.802-3.493-7.802-7.802v-348.77h348.64v348.77c0 4.309-3.493 7.802-7.802 7.802z" fill="#f6f1f1"/><path d="m81.68 155.428v18.284h310.353c9.676 0 17.52 7.844 17.52 17.52v320.768h12.965c4.309 0 7.802-3.493 7.802-7.802v-348.77z" fill="#efe7e4"/><path d="m352.731 0h-263.249c-4.309 0-7.802 3.493-7.802 7.802v147.625h348.64v-106.73z" fill="#dd4fb1"/><path d="m370.304 61.369 30.893 20.529c5.219 3.468 8.356 9.319 8.356 15.586v57.944h20.767v-106.731z" fill="#da2ea2"/><path d="m352.731 0 15.701 59.105c.932 3.507 4.549 5.576 8.044 4.602l53.845-15.01z" fill="#ce2995"/><g><g><g><path d="m143.878 121.733c-4.267 0-7.726-3.459-7.726-7.726v-72.45c0-3.381 2.199-6.37 5.427-7.376 3.228-1.004 6.736.203 8.657 2.986l36.572 52.958-.47-48.629c-.041-4.267 3.384-7.76 7.651-7.801 4.295-.021 7.76 3.385 7.801 7.652l.678 70.139c0 4.363-2.409 7.887-6.137 9.052-3.642 1.14-7.497-.295-9.821-3.653l-34.904-50.543v47.665c-.001 4.267-3.46 7.726-7.728 7.726z" fill="#ce2995"/></g></g><g><g><path d="m119.072 121.733c-4.267 0-7.726-3.459-7.726-7.726v-72.586c0-4.268 3.459-7.726 7.726-7.726s7.726 3.459 7.726 7.726v72.586c0 4.267-3.459 7.726-7.726 7.726z" fill="#ce2995"/></g></g><g><g><path d="m217.806 119.515c-4.267 0-7.726-3.459-7.726-7.726v-69.22c0-4.268 3.459-7.726 7.726-7.726s7.726 3.459 7.726 7.726v69.22c.001 4.267-3.458 7.726-7.726 7.726z" fill="#ce2995"/></g><g><path d="m217.949 120.66c-2.039 0-3.995-.806-5.443-2.242-1.454-1.444-2.276-3.406-2.283-5.456 0 0-.143-70.452-.143-70.453-.004-2.051.808-4.02 2.258-5.472 1.449-1.453 3.417-2.269 5.468-2.269h19.949c21.635 0 36.172 17.259 36.172 42.946 0 24.436-14.91 42.431-35.453 42.789-5.676.1-19.893.155-20.495.157-.01 0-.02 0-.03 0zm7.598-70.439c.015 8.653.075 46.624.102 54.948 4.441-.027 9.689-.066 12.555-.117 13.927-.242 20.27-14.341 20.27-27.338 0-13.291-5.443-27.493-20.719-27.493z" fill="#ce2995"/></g></g><g><g><path d="m288.495 119.515c-4.268 0-7.726-3.459-7.726-7.726v-69.22c0-4.268 3.459-7.726 7.726-7.726s7.726 3.459 7.726 7.726v69.22c0 4.267-3.459 7.726-7.726 7.726z" fill="#ce2995"/></g><g><path d="m288.636 120.66c-2.039 0-3.995-.806-5.443-2.242-1.455-1.444-2.277-3.406-2.284-5.456 0 0-.142-70.452-.142-70.453-.004-2.051.809-4.02 2.258-5.473 1.45-1.452 3.418-2.268 5.469-2.268h19.949c21.636 0 36.172 17.259 36.172 42.946 0 24.436-14.91 42.431-35.453 42.789-5.676.1-19.894.155-20.497.157-.008 0-.018 0-.029 0zm7.599-70.439c.014 8.653.074 46.624.102 54.948 4.441-.027 9.689-.066 12.556-.117 13.927-.242 20.27-14.341 20.27-27.338 0-13.291-5.443-27.493-20.719-27.493z" fill="#ce2995"/></g></g></g><g><g><path d="m383.478 251.55h-254.956c-2.907 0-5.264-2.357-5.264-5.264v-55.645c0-2.907 2.357-5.264 5.264-5.264h254.955c2.907 0 5.264 2.357 5.264 5.264v55.645c0 2.907-2.356 5.264-5.263 5.264z" fill="#dd4fb1"/><path d="m383.478 185.377h-22.235c2.907 0 5.264 2.357 5.264 5.264v55.645c0 2.907-2.357 5.264-5.264 5.264h22.235c2.907 0 5.264-2.357 5.264-5.264v-55.645c-.001-2.907-2.357-5.264-5.264-5.264z" fill="#da2ea2"/></g><g><path d="m383.478 482.051h-254.956c-2.907 0-5.264-2.357-5.264-5.264v-24.74c0-2.907 2.357-5.264 5.264-5.264h254.955c2.907 0 5.264 2.357 5.264 5.264v24.74c0 2.907-2.356 5.264-5.263 5.264z" fill="#dd4fb1"/><path d="m383.478 446.783h-22.235c2.907 0 5.264 2.357 5.264 5.264v24.74c0 2.907-2.357 5.264-5.264 5.264h22.235c2.907 0 5.264-2.357 5.264-5.264v-24.74c-.001-2.907-2.357-5.264-5.264-5.264z" fill="#da2ea2"/></g><g><path d="m208.347 360.033h-79.824c-2.907 0-5.264-2.357-5.264-5.264v-65.947c0-2.907 2.357-5.264 5.264-5.264h79.824c2.907 0 5.264 2.357 5.264 5.264v65.947c-.001 2.907-2.357 5.264-5.264 5.264z" fill="#dd4fb1"/><path d="m208.347 283.558h-22.235c2.907 0 5.264 2.357 5.264 5.264v65.947c0 2.907-2.357 5.264-5.264 5.264h22.235c2.907 0 5.264-2.357 5.264-5.264v-65.947c-.001-2.908-2.357-5.264-5.264-5.264z" fill="#da2ea2"/></g><g><g><path d="m388.741 291.284h-146.737c-4.267 0-7.726-3.459-7.726-7.726s3.459-7.726 7.726-7.726h146.737c4.268 0 7.726 3.459 7.726 7.726s-3.458 7.726-7.726 7.726z" fill="#dd4fb1"/></g><g><path d="m388.741 325.422h-146.737c-4.267 0-7.726-3.459-7.726-7.726 0-4.268 3.459-7.726 7.726-7.726h146.737c4.268 0 7.726 3.459 7.726 7.726s-3.458 7.726-7.726 7.726z" fill="#dd4fb1"/></g><g><path d="m388.741 359.561h-146.737c-4.267 0-7.726-3.459-7.726-7.726s3.459-7.726 7.726-7.726h146.737c4.268 0 7.726 3.459 7.726 7.726s-3.458 7.726-7.726 7.726z" fill="#dd4fb1"/></g><g><path d="m388.741 393.699h-253.288c-4.267 0-7.726-3.459-7.726-7.726s3.459-7.726 7.726-7.726h253.288c4.268 0 7.726 3.459 7.726 7.726s-3.458 7.726-7.726 7.726z" fill="#dd4fb1"/></g><g><path d="m388.741 427.837h-253.288c-4.267 0-7.726-3.459-7.726-7.726s3.459-7.726 7.726-7.726h253.288c4.268 0 7.726 3.459 7.726 7.726s-3.458 7.726-7.726 7.726z" fill="#dd4fb1"/></g></g></g></g></svg>