<svg id="Capa_1" enable-background="new 0 0 512 512" height="512" viewBox="0 0 512 512" width="512" xmlns="http://www.w3.org/2000/svg"><g><path d="m422.518 512h-333.036c-4.309 0-7.802-3.493-7.802-7.802v-348.77h348.64v348.77c0 4.309-3.493 7.802-7.802 7.802z" fill="#f6f1f1"/><path d="m81.68 155.428v18.284h310.353c9.676 0 17.52 7.844 17.52 17.52v320.768h12.965c4.309 0 7.802-3.493 7.802-7.802v-348.77z" fill="#efe7e4"/><path d="m352.731 0h-263.249c-4.309 0-7.802 3.493-7.802 7.802v147.625h348.64v-106.73z" fill="#ac80dd"/><path d="m370.304 61.369 30.893 20.529c5.219 3.468 8.356 9.319 8.356 15.586v57.944h20.767v-106.731z" fill="#9d66d5"/><path d="m352.731 0 15.701 59.105c.932 3.507 4.549 5.576 8.044 4.602l53.845-15.01z" fill="#8659b9"/><g><g><g><path d="m149.377 121.401h-30.306c-4.268 0-7.726-3.459-7.726-7.726v-71.922c0-4.268 3.459-7.726 7.726-7.726h30.306c4.268 0 7.726 3.459 7.726 7.726s-3.459 7.726-7.726 7.726h-22.579v56.469h22.579c4.268 0 7.726 3.459 7.726 7.726s-3.458 7.727-7.726 7.727z" fill="#8659b9"/></g><g><path d="m147.143 85.44h-28.071c-4.268 0-7.726-3.459-7.726-7.726 0-4.268 3.459-7.726 7.726-7.726h28.071c4.268 0 7.726 3.459 7.726 7.726s-3.459 7.726-7.726 7.726z" fill="#8659b9"/></g></g><g><g><path d="m280.266 121.401h-30.306c-4.268 0-7.726-3.459-7.726-7.726v-71.922c0-4.268 3.459-7.726 7.726-7.726h30.306c4.268 0 7.726 3.459 7.726 7.726s-3.459 7.726-7.726 7.726h-22.579v56.469h22.579c4.268 0 7.726 3.459 7.726 7.726s-3.458 7.727-7.726 7.727z" fill="#8659b9"/></g><g><path d="m278.032 85.44h-28.072c-4.268 0-7.726-3.459-7.726-7.726 0-4.268 3.459-7.726 7.726-7.726h28.071c4.268 0 7.726 3.459 7.726 7.726.001 4.267-3.458 7.726-7.725 7.726z" fill="#8659b9"/></g></g><g><g><path d="m227.328 121.734c-2.431 0-4.822-1.144-6.326-3.282l-51.062-72.585c-2.456-3.49-1.617-8.31 1.873-10.765 3.493-2.458 8.311-1.615 10.765 1.873l51.061 72.586c2.456 3.49 1.617 8.31-1.873 10.765-1.352.951-2.903 1.408-4.438 1.408z" fill="#8659b9"/></g><g><path d="m172.586 121.734c-1.537 0-3.09-.458-4.443-1.411-3.489-2.457-4.324-7.278-1.866-10.766l51.135-72.586c2.456-3.487 7.275-4.327 10.766-1.866 3.489 2.457 4.324 7.278 1.866 10.766l-51.135 72.586c-1.504 2.135-3.894 3.277-6.323 3.277z" fill="#8659b9"/></g></g></g><g><path d="m380.095 270.782h-248.19v-53.831c0-5.842 4.736-10.579 10.579-10.579h227.033c5.842 0 10.579 4.736 10.579 10.579v53.831z" fill="#ac80dd"/><path d="m359.524 206.372v64.409h20.571v-53.831c0-5.842-4.736-10.579-10.579-10.579h-9.992z" fill="#9d66d5"/><path d="m380.095 270.782h-248.19v179.694c0 5.842 4.736 10.579 10.579 10.579h227.033c5.842 0 10.579-4.736 10.579-10.579v-179.694z" fill="#efe7e4"/><path d="m359.524 270.782v190.273h9.992c5.842 0 10.579-4.736 10.579-10.579v-179.694z" fill="#eadfda"/><g><g><path d="m162.564 246.303h-4.407c-4.268 0-7.726-3.459-7.726-7.726s3.459-7.726 7.726-7.726h4.407c4.268 0 7.726 3.459 7.726 7.726s-3.458 7.726-7.726 7.726z" fill="#9d66d5"/></g><g><path d="m188.37 246.303h-4.407c-4.268 0-7.726-3.459-7.726-7.726s3.459-7.726 7.726-7.726h4.407c4.268 0 7.726 3.459 7.726 7.726s-3.459 7.726-7.726 7.726z" fill="#9d66d5"/></g><g><path d="m214.176 246.303h-4.408c-4.268 0-7.726-3.459-7.726-7.726s3.459-7.726 7.726-7.726h4.408c4.268 0 7.726 3.459 7.726 7.726s-3.459 7.726-7.726 7.726z" fill="#9d66d5"/></g></g><g><g><path d="m174.503 356.145c-1.315 0-2.647-.335-3.865-1.041-3.693-2.139-4.953-6.866-2.814-10.558l12.282-21.203-12.212-20.257c-2.203-3.654-1.027-8.402 2.628-10.606 3.654-2.202 8.403-1.026 10.606 2.628l14.57 24.167c1.455 2.411 1.481 5.425.069 7.861l-14.57 25.154c-1.434 2.474-4.028 3.855-6.694 3.855z" fill="#ac80dd"/></g></g><g><path d="m230.85 356.144h-27.105c-4.268 0-7.726-3.459-7.726-7.726s3.459-7.726 7.726-7.726h27.105c4.268 0 7.726 3.459 7.726 7.726s-3.459 7.726-7.726 7.726z" fill="#ac80dd"/></g></g></g></svg>