<svg id="Capa_1" enable-background="new 0 0 512 512" height="512" viewBox="0 0 512 512" width="512" xmlns="http://www.w3.org/2000/svg"><g><path d="m422.518 512h-333.036c-4.309 0-7.802-3.493-7.802-7.802v-348.77h348.64v348.77c0 4.309-3.493 7.802-7.802 7.802z" fill="#f6f1f1"/><path d="m81.68 155.428v18.284h310.353c9.676 0 17.52 7.844 17.52 17.52v320.768h12.965c4.309 0 7.802-3.493 7.802-7.802v-348.77z" fill="#efe7e4"/><path d="m352.731 0h-263.249c-4.309 0-7.802 3.493-7.802 7.802v147.625h348.64v-106.73z" fill="#dd636e"/><path d="m370.304 61.369 30.893 20.529c5.219 3.468 8.356 9.319 8.356 15.586v57.944h20.767v-106.731z" fill="#da4a54"/><path d="m352.731 0 15.701 59.105c.932 3.507 4.549 5.576 8.044 4.602l53.845-15.01z" fill="#d82e3d"/><g><g><g><path d="m289.452 48.568h-40.086c-4.268 0-7.726-3.459-7.726-7.726s3.459-7.726 7.726-7.726h40.086c4.268 0 7.726 3.459 7.726 7.726s-3.458 7.726-7.726 7.726z" fill="#d82e3d"/></g><g><path d="m269.329 121.153c-4.268 0-7.726-3.459-7.726-7.726v-70.267c0-4.267 3.459-7.726 7.726-7.726s7.726 3.459 7.726 7.726v70.267c0 4.267-3.459 7.726-7.726 7.726z" fill="#d82e3d"/></g></g><g><g><path d="m192.819 122.312c-4.268 0-7.726-3.459-7.726-7.726v-72.585c0-4.267 3.459-7.726 7.726-7.726 4.268 0 7.726 3.459 7.726 7.726v72.585c0 4.267-3.459 7.726-7.726 7.726z" fill="#d82e3d"/></g><g><path d="m192.959 90.785c-2.032 0-3.983-.8-5.43-2.229-1.458-1.44-2.284-3.4-2.297-5.45 0 0-.091-14.906-.091-20.621 0-4.678-.05-20.458-.05-20.459-.006-2.053.805-4.025 2.255-5.479s3.419-2.272 5.472-2.272h20.211c15.776 0 28.611 12.655 28.611 28.21s-12.835 28.21-28.611 28.21c-5.597 0-20.019.091-20.022.091-.015-.001-.032-.001-.048-.001zm7.609-41.058c.013 4.712.027 10.283.027 12.757 0 2.932.024 8.295.047 12.803 4.375-.023 9.527-.046 12.387-.046 7.133 0 13.158-5.842 13.158-12.757s-6.025-12.757-13.158-12.757z" fill="#d82e3d"/></g></g><g><g><path d="m129.568 122.312c-4.268 0-7.726-3.459-7.726-7.726v-72.585c0-4.267 3.459-7.726 7.726-7.726s7.726 3.459 7.726 7.726v72.585c0 4.267-3.458 7.726-7.726 7.726z" fill="#d82e3d"/></g><g><path d="m129.709 90.785c-2.032 0-3.983-.8-5.43-2.229-1.458-1.44-2.284-3.4-2.297-5.45 0 0-.091-14.906-.091-20.621 0-4.678-.05-20.458-.05-20.459-.006-2.053.805-4.025 2.255-5.479s3.419-2.272 5.472-2.272h20.21c15.777 0 28.612 12.655 28.612 28.21s-12.835 28.21-28.612 28.21c-5.597 0-20.021.091-20.021.091-.016-.001-.032-.001-.048-.001zm7.609-41.058c.013 4.712.027 10.283.027 12.757 0 2.932.024 8.295.047 12.803 4.374-.023 9.527-.046 12.386-.046 7.133 0 13.159-5.842 13.159-12.757s-6.026-12.757-13.159-12.757z" fill="#d82e3d"/></g></g></g><g><path d="m271.453 222.177v91.41c0 2.581 2.093 4.674 4.674 4.674h91.41c2.651 0 4.8-2.204 4.674-4.853-2.456-51.849-44.057-93.45-95.906-95.906-2.648-.125-4.852 2.024-4.852 4.675z" fill="#d82e3d"/><path d="m235.704 248.407c-53.934 2.549-96.782 47.455-96.02 102.195.756 54.33 45.096 98.671 99.427 99.427 54.74.762 99.647-42.086 102.196-96.02.125-2.645-2.025-4.843-4.672-4.843h-91.413c-2.581 0-4.674-2.093-4.674-4.674v-91.413c-.001-2.647-2.199-4.797-4.844-4.672z" fill="#dd636e"/></g></g></svg>