<svg id="Capa_1" enable-background="new 0 0 512 512" height="512" viewBox="0 0 512 512" width="512" xmlns="http://www.w3.org/2000/svg"><g><path d="m422.518 512h-333.036c-4.309 0-7.802-3.493-7.802-7.802v-348.77h348.64v348.77c0 4.309-3.493 7.802-7.802 7.802z" fill="#f6f1f1"/><path d="m81.68 155.428v18.284h310.353c9.676 0 17.52 7.844 17.52 17.52v320.768h12.965c4.309 0 7.802-3.493 7.802-7.802v-348.77z" fill="#efe7e4"/><path d="m352.731 0h-263.249c-4.309 0-7.802 3.493-7.802 7.802v147.625h348.64v-106.73z" fill="#dd4fb1"/><path d="m370.304 61.369 30.893 20.529c5.219 3.468 8.356 9.319 8.356 15.586v57.944h20.767v-106.731z" fill="#da2ea2"/><path d="m352.731 0 15.701 59.105c.932 3.507 4.549 5.576 8.044 4.602l53.845-15.01z" fill="#ce2995"/><g><g><g><path d="m196.896 119.515c-4.268 0-7.726-3.459-7.726-7.726v-69.221c0-4.268 3.459-7.726 7.726-7.726 4.268 0 7.726 3.459 7.726 7.726v69.221c0 4.268-3.458 7.726-7.726 7.726z" fill="#ce2995"/></g><g><path d="m197.039 120.659c-2.039 0-3.996-.806-5.444-2.242-1.454-1.445-2.276-3.406-2.283-5.456 0 0-.092-25.534-.092-35.325 0-8.031-.051-35.126-.051-35.126-.004-2.052.809-4.021 2.258-5.473 1.45-1.453 3.418-2.269 5.469-2.269h19.95c21.635 0 36.171 17.259 36.171 42.945 0 24.435-14.909 42.431-35.453 42.79-5.675.1-19.893.154-20.496.156-.01 0-.019 0-.029 0zm7.597-70.437c.015 8.653.037 22.141.037 27.414 0 6.319.038 19.209.065 27.532 4.441-.026 9.689-.065 12.555-.116 13.927-.243 20.27-14.342 20.27-27.339 0-13.291-5.443-27.492-20.718-27.492h-12.209z" fill="#ce2995"/></g></g><g><g><path d="m173.805 121.734c-2.431 0-4.822-1.144-6.326-3.282l-51.061-72.586c-2.456-3.49-1.617-8.31 1.873-10.765 3.494-2.458 8.311-1.615 10.765 1.873l51.061 72.586c2.456 3.49 1.617 8.31-1.873 10.765-1.352.952-2.903 1.409-4.439 1.409z" fill="#ce2995"/></g><g><path d="m119.064 121.734c-1.537 0-3.09-.458-4.443-1.411-3.489-2.457-4.324-7.278-1.866-10.766l51.135-72.586c2.456-3.488 7.276-4.327 10.766-1.866 3.489 2.457 4.324 7.278 1.866 10.766l-51.135 72.586c-1.504 2.135-3.894 3.277-6.323 3.277z" fill="#ce2995"/></g></g></g><g><g><path d="m302.584 375.335h-31.568c-11.88 0-21.545-9.665-21.545-21.545v-75.56c0-3.359-2.732-6.092-6.092-6.092h-33.964c-4.268 0-7.726-3.459-7.726-7.726s3.459-7.726 7.726-7.726h33.964c11.879 0 21.544 9.665 21.544 21.544v75.56c0 3.359 2.733 6.093 6.093 6.093h31.568c4.268 0 7.726 3.459 7.726 7.726.001 4.267-3.458 7.726-7.726 7.726z" fill="#756e78"/></g><path d="m209.569 358.996h-82.336c-5.605 0-10.148-4.544-10.148-10.148v-123.915c0-5.605 4.544-10.148 10.148-10.148h82.336c5.605 0 10.148 4.544 10.148 10.148v123.915c0 5.605-4.543 10.148-10.148 10.148z" fill="#80b4fb"/><path d="m209.569 214.785h-29.16c5.605 0 10.148 4.544 10.148 10.148v123.915c0 5.605-4.544 10.148-10.148 10.148h29.16c5.605 0 10.148-4.543 10.148-10.148v-123.915c0-5.604-4.543-10.148-10.148-10.148z" fill="#61a2f9"/><g><path d="m185.863 323.668h-34.923c-4.268 0-7.726-3.459-7.726-7.726s3.459-7.726 7.726-7.726h34.923c4.268 0 7.726 3.459 7.726 7.726s-3.459 7.726-7.726 7.726z" fill="#f6f1f1"/></g><path d="m384.767 452.643h-82.336c-5.605 0-10.148-4.544-10.148-10.148v-123.916c0-5.605 4.544-10.148 10.148-10.148h82.336c5.605 0 10.148 4.544 10.148 10.148v123.915c0 5.605-4.544 10.149-10.148 10.149z" fill="#dd4fb1"/><path d="m384.767 308.431h-29.16c5.605 0 10.148 4.544 10.148 10.148v123.915c0 5.605-4.544 10.148-10.148 10.148h29.16c5.605 0 10.148-4.543 10.148-10.148v-123.915c0-5.604-4.544-10.148-10.148-10.148z" fill="#da2ea2"/><g><path d="m361.06 417.314h-34.923c-4.268 0-7.726-3.459-7.726-7.726s3.459-7.726 7.726-7.726h34.923c4.268 0 7.726 3.459 7.726 7.726s-3.458 7.726-7.726 7.726z" fill="#f6f1f1"/></g><g><path d="m361.06 388.263h-34.923c-4.268 0-7.726-3.459-7.726-7.726s3.459-7.726 7.726-7.726h34.923c4.268 0 7.726 3.459 7.726 7.726s-3.458 7.726-7.726 7.726z" fill="#f6f1f1"/></g><g><path d="m361.06 359.212h-34.923c-4.268 0-7.726-3.459-7.726-7.726s3.459-7.726 7.726-7.726h34.923c4.268 0 7.726 3.459 7.726 7.726s-3.458 7.726-7.726 7.726z" fill="#f6f1f1"/></g></g></g></svg>