<svg id="Capa_1" enable-background="new 0 0 512 512" height="512" viewBox="0 0 512 512" width="512" xmlns="http://www.w3.org/2000/svg"><g><path d="m422.518 512h-333.036c-4.309 0-7.802-3.493-7.802-7.802v-348.77h348.64v348.77c0 4.309-3.493 7.802-7.802 7.802z" fill="#f6f1f1"/><path d="m81.68 155.428v18.284h310.353c9.676 0 17.52 7.844 17.52 17.52v320.768h12.965c4.309 0 7.802-3.493 7.802-7.802v-348.77z" fill="#efe7e4"/><path d="m352.731 0h-263.249c-4.309 0-7.802 3.493-7.802 7.802v147.625h348.64v-106.73z" fill="#e7a561"/><path d="m370.304 61.369 30.893 20.529c5.219 3.468 8.356 9.319 8.356 15.586v57.944h20.767v-106.731z" fill="#e49542"/><path d="m352.731 0 15.701 59.105c.932 3.507 4.549 5.576 8.044 4.602l53.845-15.01z" fill="#e28424"/><g><g><g><path d="m265.362 121.737c-7.972 0-8.447-.081-9-.177-3.709-.637-6.42-3.852-6.42-7.615v-72.524c0-4.268 3.459-7.726 7.726-7.726 4.268 0 7.726 3.459 7.726 7.726v64.859c4.876-.003 11.496-.027 17.648-.061h.044c4.246 0 7.701 3.431 7.725 7.683.024 4.267-3.417 7.745-7.683 7.77-8.263.046-13.898.065-17.766.065z" fill="#e28424"/></g></g><g><g><path d="m144.542 121.733c-.017 0-.033 0-.049 0-6.407-.008-12.305-1.705-17.529-5.042-10.062-6.429-14.954-14.712-14.954-25.323v-49.947c0-4.268 3.459-7.726 7.726-7.726 4.268 0 7.726 3.459 7.726 7.726v49.947c0 5.188 2.266 8.752 7.821 12.301 2.743 1.753 5.763 2.608 9.229 2.612h.028c3.098 0 5.95-.645 8.477-1.918 8.451-4.257 9.429-9.485 9.429-13.047v-49.895c0-4.268 3.459-7.726 7.726-7.726s7.726 3.459 7.726 7.726v49.894c0 8.129-3.111 19.384-17.932 26.848-4.702 2.369-9.892 3.57-15.424 3.57z" fill="#e28424"/></g></g><g><g><path d="m234.052 121.733c-2.143 0-4.276-.886-5.803-2.622l-30.491-34.643c-2.819-3.203-2.508-8.086.695-10.904 3.202-2.818 8.086-2.508 10.904.695l30.491 34.643c2.819 3.203 2.508 8.086-.695 10.904-1.467 1.292-3.288 1.927-5.101 1.927z" fill="#e28424"/></g><g><path d="m194.805 121.733c-4.268 0-7.726-3.459-7.726-7.726v-72.586c0-4.268 3.459-7.726 7.726-7.726s7.726 3.459 7.726 7.726v72.586c.001 4.267-3.458 7.726-7.726 7.726z" fill="#e28424"/></g><g><path d="m194.962 86.959c-4.244 0-7.698-3.428-7.725-7.677 0 0-.135-37.834-.135-37.836-.007-2.053.804-4.025 2.254-5.48 1.45-1.454 3.42-2.272 5.473-2.272h19.289c15.251 0 27.658 11.929 27.658 26.591s-12.407 26.591-27.658 26.591c-5.342 0-19.108.084-19.108.084-.016-.001-.032-.001-.048-.001zm7.617-37.812c.012 4.2.045 18.301.066 22.317 4.097-.021 8.818-.041 11.472-.041 6.616 0 12.205-5.101 12.205-11.138s-5.59-11.138-12.205-11.138z" fill="#e28424"/></g></g></g><g><circle cx="256" cy="333.714" fill="#80b4fb" r="95.452"/><g fill="#78d0b1"><path d="m160.548 333.714c0 27.209 11.385 51.758 29.65 69.145.555-.797 1.092-1.608 1.589-2.447 3.146-5.318 5.038-11.317 5.637-17.459.653-6.702-.776-13.044-2.391-19.501-1.626-6.501-2.7-12.864-.277-19.317 2.225-5.927 6.338-10.939 9.598-16.3 6.65-10.936 10.691-24.245 6.432-36.806-1.169-3.448-2.797-6.725-4.562-9.902-1.794-3.229-3.6-6.53-5.752-9.537-2.343-3.274-5.744-6.385-9.609-7.638-18.651 17.42-30.315 42.227-30.315 69.762z"/><path d="m322.144 264.901c-.078.059-.158.118-.236.178-6.001 4.573-11.578 9.679-16.622 15.292-4.991 5.552-9.482 11.57-13.365 17.948-4.056 6.662-8.029 13.959-9.173 21.773-.569 3.885-.413 7.862.908 11.588 1.358 3.829 3.71 7.249 4.732 11.204.985 3.812.834 7.862-.374 11.604-1.242 3.847-3.768 7.049-6.155 10.244-9.981 13.358-12.898 29.864-12.007 46.238.306 5.626.929 11.298 1.82 16.909 45.259-7.477 79.779-46.786 79.779-94.164.001-27.039-11.243-51.447-29.307-68.814z"/></g></g></g></svg>