<svg id="Capa_1" enable-background="new 0 0 512 512" height="512" viewBox="0 0 512 512" width="512" xmlns="http://www.w3.org/2000/svg"><g><path d="m422.518 512h-333.036c-4.309 0-7.802-3.493-7.802-7.802v-348.77h348.64v348.77c0 4.309-3.493 7.802-7.802 7.802z" fill="#f6f1f1"/><path d="m81.68 155.428v18.284h310.353c9.676 0 17.52 7.844 17.52 17.52v320.768h12.965c4.309 0 7.802-3.493 7.802-7.802v-348.77z" fill="#efe7e4"/><path d="m352.731 0h-263.249c-4.309 0-7.802 3.493-7.802 7.802v147.625h348.64v-106.73z" fill="#80b4fb"/><path d="m370.304 61.369 30.893 20.529c5.219 3.468 8.356 9.319 8.356 15.586v57.944h20.767v-106.731z" fill="#61a2f9"/><path d="m352.731 0 15.701 59.105c.932 3.507 4.549 5.576 8.044 4.602l53.845-15.01z" fill="#3b66c1"/><g><g><g><path d="m151.439 119.449c-3.988 0-7.513-2.534-8.782-6.319-.029-.09-.058-.179-.085-.27l-12.041-40.814-7.313 40.517c-.758 4.2-4.777 6.989-8.976 6.231-4.199-.759-6.989-4.777-6.231-8.976l11.955-66.235c.812-4.218 4.298-7.298 8.493-7.579 4.202-.29 8.061 2.306 9.4 6.292.03.091.059.182.087.275l13.391 45.389 12.917-45.31c.026-.091.053-.18.082-.27 1.3-3.998 5.114-6.632 9.335-6.386 4.196.237 7.712 3.281 8.551 7.399l12.68 66.347c.801 4.192-1.948 8.238-6.139 9.039-4.187.809-8.237-1.946-9.039-6.138l-7.768-40.646-11.626 40.782c-.025.09-.052.178-.081.266-1.235 3.811-4.758 6.385-8.765 6.404-.014.001-.03.002-.045.002z" fill="#3b66c1"/></g></g><g><g><path d="m309.564 119.448c-3.914 0-7.416-2.47-8.727-6.164l-23.272-67.045c-1.399-4.031.734-8.433 4.766-9.832 4.029-1.405 8.434.733 9.832 4.766l17.274 49.763 16.458-49.54c1.345-4.05 5.721-6.241 9.768-4.896 4.049 1.345 6.242 5.718 4.896 9.768l-22.208 66.851c-1.284 3.78-4.782 6.305-8.722 6.331-.023-.002-.044-.002-.065-.002z" fill="#3b66c1"/></g></g><g><path d="m237.475 119.448c-23.012 0-41.734-18.722-41.734-41.734s18.722-41.734 41.734-41.734 41.734 18.722 41.734 41.734-18.721 41.734-41.734 41.734zm0-68.016c-14.492 0-26.282 11.79-26.282 26.282s11.79 26.282 26.282 26.282 26.282-11.79 26.282-26.282-11.79-26.282-26.282-26.282z" fill="#3b66c1"/></g></g><g><path d="m256 211.565c-67.461 0-122.149 54.688-122.149 122.149s54.688 122.149 122.149 122.149 122.149-54.688 122.149-122.149-54.688-122.149-122.149-122.149zm-67.481 148.099c-14.332 0-25.95-11.618-25.95-25.95s11.618-25.95 25.95-25.95 25.95 11.618 25.95 25.95-11.618 25.95-25.95 25.95zm67.481 67.481c-14.332 0-25.95-11.618-25.95-25.95s11.618-25.95 25.95-25.95 25.95 11.618 25.95 25.95-11.618 25.95-25.95 25.95zm-12.807-93.431c0-7.073 5.734-12.807 12.807-12.807s12.807 5.734 12.807 12.807-5.734 12.807-12.807 12.807-12.807-5.734-12.807-12.807zm12.807-41.531c-14.332 0-25.95-11.618-25.95-25.95s11.618-25.95 25.95-25.95 25.95 11.618 25.95 25.95c0 14.331-11.618 25.95-25.95 25.95zm67.481 67.481c-14.332 0-25.95-11.618-25.95-25.95s11.618-25.95 25.95-25.95 25.95 11.618 25.95 25.95-11.618 25.95-25.95 25.95z" fill="#80b4fb"/><g><path d="m256 211.565c-3.342 0-6.651.14-9.925.403 62.819 5.052 112.225 57.626 112.225 121.746 0 64.119-49.406 116.694-112.224 121.746 3.274.263 6.583.403 9.925.403 67.461 0 122.149-54.688 122.149-122.149-.001-67.461-54.689-122.149-122.15-122.149z" fill="#61a2f9"/></g></g></g></svg>