<svg id="Capa_1" enable-background="new 0 0 512 512" height="512" viewBox="0 0 512 512" width="512" xmlns="http://www.w3.org/2000/svg"><g><path d="m422.518 512h-333.036c-4.309 0-7.802-3.493-7.802-7.802v-348.77h348.64v348.77c0 4.309-3.493 7.802-7.802 7.802z" fill="#f6f1f1"/><path d="m81.68 155.428v18.284h310.353c9.676 0 17.52 7.844 17.52 17.52v320.768h12.965c4.309 0 7.802-3.493 7.802-7.802v-348.77z" fill="#efe7e4"/><path d="m352.731 0h-263.249c-4.309 0-7.802 3.493-7.802 7.802v147.625h348.64v-106.73z" fill="#ac80dd"/><path d="m370.304 61.369 30.893 20.529c5.219 3.468 8.356 9.319 8.356 15.586v57.944h20.767v-106.731z" fill="#9d66d5"/><path d="m352.731 0 15.701 59.105c.932 3.507 4.549 5.576 8.044 4.602l53.845-15.01z" fill="#8659b9"/><g><g><g><path d="m117.764 121.56c-3.709-.637-6.42-3.852-6.42-7.615v-72.524c0-4.268 3.459-7.726 7.726-7.726s7.726 3.459 7.726 7.726v64.859c4.876-.003 11.496-.027 17.648-.061h.044c4.246 0 7.701 3.431 7.725 7.683.024 4.267-3.417 7.745-7.683 7.77-8.263.046-26.212-.017-26.766-.112z" fill="#8659b9"/></g></g><g><g><path d="m283.113 121.733c-24.273 0-44.019-19.746-44.019-44.019s19.746-44.019 44.019-44.019c8.819 0 17.331 2.602 24.616 7.522 3.536 2.388 4.466 7.191 2.077 10.727-2.388 3.536-7.191 4.466-10.727 2.077-4.72-3.189-10.241-4.874-15.966-4.874-15.751 0-28.566 12.815-28.566 28.566s12.815 28.566 28.566 28.566c14.069 0 20.808-10.036 22.88-20.84h-13.265c-4.268 0-7.726-3.459-7.726-7.726 0-4.268 3.459-7.726 7.726-7.726h21.713c4.268 0 7.726 3.459 7.726 7.726.002 25.918-16.059 44.02-39.054 44.02z" fill="#8659b9"/></g></g><g><path d="m189.214 121.733c-24.273 0-44.019-19.746-44.019-44.019s19.746-44.019 44.019-44.019 44.019 19.746 44.019 44.019-19.746 44.019-44.019 44.019zm0-72.586c-15.752 0-28.566 12.815-28.566 28.566s12.815 28.566 28.566 28.566 28.566-12.815 28.566-28.566-12.815-28.566-28.566-28.566z" fill="#8659b9"/></g></g><g><path d="m350.808 451.482h-189.616c-4.591 0-8.313-3.722-8.313-8.313v-182.97h206.242v182.969c0 4.592-3.722 8.314-8.313 8.314z" fill="#efe7e4"/><path d="m339.51 260.199v191.283h11.298c4.591 0 8.313-3.722 8.313-8.313v-182.97z" fill="#eadfda"/><path d="m350.808 215.946h-189.616c-4.591 0-8.313 3.722-8.313 8.313v35.94h206.242v-35.94c0-4.591-3.722-8.313-8.313-8.313z" fill="#ac80dd"/><path d="m339.51 215.946v44.253h19.611v-35.94c0-4.591-3.722-8.313-8.313-8.313z" fill="#9d66d5"/><g><g><path d="m197.167 238.848c-4.268 0-7.726-3.459-7.726-7.726v-30.212c0-4.268 3.459-7.726 7.726-7.726s7.726 3.459 7.726 7.726v30.212c0 4.268-3.459 7.726-7.726 7.726z" fill="#9d66d5"/></g><g><path d="m236.389 238.848c-4.268 0-7.726-3.459-7.726-7.726v-30.212c0-4.268 3.459-7.726 7.726-7.726s7.726 3.459 7.726 7.726v30.212c0 4.268-3.458 7.726-7.726 7.726z" fill="#9d66d5"/></g><g><path d="m275.611 238.848c-4.268 0-7.726-3.459-7.726-7.726v-30.212c0-4.268 3.459-7.726 7.726-7.726s7.726 3.459 7.726 7.726v30.212c.001 4.268-3.458 7.726-7.726 7.726z" fill="#9d66d5"/></g><g><path d="m314.833 238.848c-4.268 0-7.726-3.459-7.726-7.726v-30.212c0-4.268 3.459-7.726 7.726-7.726s7.726 3.459 7.726 7.726v30.212c0 4.268-3.459 7.726-7.726 7.726z" fill="#9d66d5"/></g></g><g><g><path d="m328.615 304.572c-.029 0-.058 0-.088 0-6.873-.076-13.747-.137-20.621-.183-4.267-.029-7.702-3.511-7.674-7.779.029-4.249 3.483-7.674 7.725-7.674h.053c6.895.046 13.792.107 20.687.183 4.268.048 7.688 3.545 7.641 7.812-.046 4.237-3.496 7.641-7.723 7.641z" fill="#9d66d5"/></g><g><path d="m223.078 304.572c-4.227 0-7.678-3.403-7.724-7.642-.046-4.268 3.375-7.764 7.642-7.811 20.974-.228 42.138-.324 62.91-.28 4.267.009 7.719 3.475 7.71 7.742-.009 4.262-3.467 7.71-7.726 7.71-.005 0-.01 0-.016 0-20.704-.043-41.803.05-62.709.28-.03.001-.058.001-.087.001z" fill="#9d66d5"/></g><g><path d="m201.364 304.572c-.174 0-.349-.005-.524-.017-5.419-.362-11.283-.362-16.958.001-4.242.285-7.932-2.958-8.205-7.215-.274-4.259 2.957-7.933 7.215-8.205 6.339-.407 12.902-.406 18.98.001 4.259.286 7.478 3.968 7.193 8.225-.274 4.082-3.67 7.21-7.701 7.21z" fill="#9d66d5"/></g><g><path d="m254.739 341.44c-4.242 0-7.696-3.424-7.725-7.673-.029-4.267 3.405-7.749 7.673-7.78 24.267-.168 49.157-.168 73.979 0 4.267.029 7.703 3.511 7.674 7.779-.029 4.25-3.483 7.674-7.725 7.674-.018 0-.035 0-.053 0-24.753-.167-49.572-.167-73.768 0-.019 0-.037 0-.055 0z" fill="#9d66d5"/></g><g><path d="m183.385 341.44c-4.23 0-7.68-3.406-7.724-7.647-.043-4.267 3.38-7.762 7.647-7.806 16.48-.168 32.801-.168 49.896 0 4.268.042 7.692 3.536 7.65 7.803-.042 4.24-3.494 7.65-7.724 7.65-.026 0-.052 0-.078 0-16.99-.169-33.208-.169-49.585 0-.028 0-.055 0-.082 0z" fill="#9d66d5"/></g><g><path d="m303.24 378.346c-8.549 0-17.104-.013-25.425-.037-4.267-.013-7.716-3.482-7.703-7.75.013-4.26 3.47-7.703 7.725-7.703h.024c16.613.048 34.154.048 50.728 0h.024c4.256 0 7.712 3.444 7.725 7.703.013 4.268-3.437 7.736-7.703 7.75-8.301.024-16.847.037-25.395.037z" fill="#9d66d5"/></g><g><path d="m225.383 378.345c-4.267 0-7.724-3.457-7.726-7.723-.002-4.268 3.456-7.727 7.723-7.729 10.142-.004 20.283-.015 30.424-.036h.016c4.26 0 7.717 3.449 7.726 7.71.009 4.268-3.443 7.733-7.71 7.742-10.149.021-20.3.032-30.45.036-.001 0-.002 0-.003 0z" fill="#9d66d5"/></g><g><path d="m202.809 378.338c-.002 0-.005 0-.007 0-6.478-.006-12.955-.016-19.432-.029-4.267-.009-7.719-3.475-7.71-7.742.009-4.262 3.467-7.71 7.726-7.71h.016c6.471.013 12.942.023 19.413.029 4.268.004 7.723 3.467 7.719 7.733-.002 4.265-3.461 7.719-7.725 7.719z" fill="#9d66d5"/></g><g><path d="m309.429 415.32c-4.249 0-7.703-3.433-7.725-7.686-.022-4.268 3.42-7.744 7.686-7.767 6.383-.033 12.767-.082 19.151-.142h.074c4.232 0 7.684 3.411 7.724 7.654.04 4.267-3.386 7.759-7.654 7.799-6.404.06-12.81.109-19.215.142-.014 0-.027 0-.041 0z" fill="#9d66d5"/></g><g><path d="m286.996 415.378s0 0-.001 0c-13.292-.001-26.948-.068-40.587-.2-4.268-.041-7.693-3.534-7.652-7.801.041-4.241 3.493-7.652 7.724-7.652h.076c13.591.132 27.196.199 40.44.2 4.267 0 7.725 3.46 7.725 7.727.001 4.268-3.459 7.726-7.725 7.726z" fill="#9d66d5"/></g><g><path d="m204.315 415.379c-6.909 0-13.851-.067-21.072-.202-4.266-.08-7.66-3.604-7.58-7.87.079-4.267 3.581-7.694 7.87-7.58 14.241.269 27.386.269 41.364 0 .049-.001.1-.001.15-.001 4.199 0 7.642 3.363 7.722 7.579.08 4.267-3.312 7.791-7.578 7.872-7.09.135-13.967.202-20.876.202z" fill="#9d66d5"/></g></g></g></g></svg>