<svg id="Capa_1" enable-background="new 0 0 512 512" height="512" viewBox="0 0 512 512" width="512" xmlns="http://www.w3.org/2000/svg"><g><path d="m422.518 512h-333.036c-4.309 0-7.802-3.493-7.802-7.802v-348.77h348.64v348.77c0 4.309-3.493 7.802-7.802 7.802z" fill="#f6f1f1"/><path d="m81.68 155.428v18.284h310.353c9.676 0 17.52 7.844 17.52 17.52v320.768h12.965c4.309 0 7.802-3.493 7.802-7.802v-348.77z" fill="#efe7e4"/><path d="m352.731 0h-263.249c-4.309 0-7.802 3.493-7.802 7.802v147.625h348.64v-106.73z" fill="#f6e266"/><path d="m370.304 61.369 30.893 20.529c5.219 3.468 8.356 9.319 8.356 15.586v57.944h20.767v-106.731z" fill="#f1d333"/><path d="m352.731 0 15.701 59.105c.932 3.507 4.549 5.576 8.044 4.602l53.845-15.01z" fill="#ecc32e"/><g><g><g><path d="m194.172 121.733c-4.268 0-7.726-3.459-7.726-7.726v-72.586c0-4.268 3.459-7.726 7.726-7.726 4.268 0 7.726 3.459 7.726 7.726v72.586c0 4.267-3.459 7.726-7.726 7.726z" fill="#ecc32e"/></g></g><g><g><path d="m168.159 121.733h-48.423c-2.835 0-5.442-1.552-6.793-4.045-1.351-2.492-1.228-5.524.319-7.899l39.512-60.641h-31.549c-4.268 0-7.726-3.459-7.726-7.726s3.459-7.726 7.726-7.726h45.806c2.835 0 5.442 1.552 6.793 4.045 1.351 2.492 1.228 5.524-.319 7.899l-39.512 60.641h34.166c4.268 0 7.726 3.459 7.726 7.726s-3.459 7.726-7.726 7.726z" fill="#ecc32e"/></g></g><g><g><path d="m222.048 121.733c-4.268 0-7.726-3.459-7.726-7.726v-72.586c0-4.268 3.459-7.726 7.726-7.726s7.726 3.459 7.726 7.726v72.586c0 4.267-3.458 7.726-7.726 7.726z" fill="#ecc32e"/></g><g><path d="m222.189 90.206c-2.032 0-3.983-.801-5.43-2.229-1.458-1.441-2.284-3.4-2.297-5.45 0 0-.141-41.079-.141-41.081-.006-2.053.805-4.024 2.255-5.479s3.419-2.272 5.472-2.272h20.21c15.777 0 28.612 12.655 28.612 28.21s-12.835 28.21-28.612 28.21c-5.597 0-20.021.091-20.021.091-.016 0-.032 0-.048 0zm7.608-41.059c.013 4.712.051 21.053.074 25.561 4.374-.023 9.527-.046 12.386-.046 7.133 0 13.159-5.842 13.159-12.758s-6.026-12.758-13.159-12.758h-12.46z" fill="#ecc32e"/></g></g></g><path d="m201.856 155.427v219.997c0 4.268 3.459 7.726 7.726 7.726 4.268 0 7.726-3.459 7.726-7.726v-219.997z" fill="#e49542"/><path d="m217.055 434.63h-14.947c-11.596 0-20.54-10.209-19.016-21.704l5.35-40.347c.566-4.268 4.205-7.456 8.51-7.456h25.257c4.305 0 7.945 3.189 8.51 7.456l5.35 40.347c1.526 11.496-7.418 21.704-19.014 21.704z" fill="#e7a561"/><path d="m236.071 412.927-5.35-40.347c-.566-4.268-4.205-7.456-8.51-7.456h-20.719c4.305 0 7.945 3.189 8.51 7.456l5.35 40.347c1.395 10.52-5.98 19.957-16.129 21.483.941.141 1.903.221 2.886.221h14.947c11.595-.001 20.539-10.209 19.015-21.704z" fill="#e49542"/><g><g><path d="m239.418 194.39h-59.672c-4.268 0-7.726-3.459-7.726-7.726 0-4.268 3.459-7.726 7.726-7.726h59.672c4.268 0 7.726 3.459 7.726 7.726.001 4.267-3.458 7.726-7.726 7.726z" fill="#e7a561"/></g><g><path d="m230.301 229.675h-41.44c-4.268 0-7.726-3.459-7.726-7.726s3.459-7.726 7.726-7.726h41.44c4.268 0 7.726 3.459 7.726 7.726s-3.458 7.726-7.726 7.726z" fill="#e7a561"/></g><g><path d="m239.418 264.961h-59.672c-4.268 0-7.726-3.459-7.726-7.726s3.459-7.726 7.726-7.726h59.672c4.268 0 7.726 3.459 7.726 7.726s-3.458 7.726-7.726 7.726z" fill="#e7a561"/></g><g><path d="m230.301 300.246h-41.44c-4.268 0-7.726-3.459-7.726-7.726s3.459-7.726 7.726-7.726h41.44c4.268 0 7.726 3.459 7.726 7.726s-3.458 7.726-7.726 7.726z" fill="#e7a561"/></g><g><path d="m239.418 335.531h-59.672c-4.268 0-7.726-3.459-7.726-7.726s3.459-7.726 7.726-7.726h59.672c4.268 0 7.726 3.459 7.726 7.726s-3.458 7.726-7.726 7.726z" fill="#e7a561"/></g></g></g></svg>