<svg id="Capa_1" enable-background="new 0 0 512 512" height="512" viewBox="0 0 512 512" width="512" xmlns="http://www.w3.org/2000/svg"><g><path d="m422.518 512h-333.036c-4.309 0-7.802-3.493-7.802-7.802v-348.77h348.64v348.77c0 4.309-3.493 7.802-7.802 7.802z" fill="#f6f1f1"/><path d="m81.68 155.428v18.284h310.353c9.676 0 17.52 7.844 17.52 17.52v320.768h12.965c4.309 0 7.802-3.493 7.802-7.802v-348.77z" fill="#efe7e4"/><path d="m352.731 0h-263.249c-4.309 0-7.802 3.493-7.802 7.802v147.625h348.64v-106.73z" fill="#c8ea73"/><path d="m370.304 61.369 30.893 20.529c5.219 3.468 8.356 9.319 8.356 15.586v57.944h20.767v-106.731z" fill="#b7e445"/><path d="m352.731 0 15.701 59.105c.932 3.507 4.549 5.576 8.044 4.602l53.845-15.01z" fill="#aad540"/><g><g><g><path d="m157.966 121.733c-4.03 0-7.594-2.56-8.878-6.384-.03-.091-.059-.182-.086-.274l-13.47-45.655-8.193 45.392c-.758 4.2-4.781 6.984-8.976 6.231-4.199-.759-6.989-4.777-6.231-8.976l12.758-70.685c.82-4.264 4.344-7.378 8.587-7.663 4.249-.286 8.152 2.333 9.506 6.365.031.09.059.181.086.273l14.797 50.155 14.275-50.075c.026-.09.053-.179.081-.268 1.312-4.042 5.196-6.688 9.436-6.46 4.244.239 7.801 3.316 8.65 7.481l13.531 70.799c.801 4.192-1.947 8.238-6.139 9.039-4.19.812-8.238-1.947-9.039-6.138l-8.7-45.522-13.005 45.622c-.026.091-.053.179-.082.268-1.25 3.852-4.811 6.454-8.861 6.475-.015 0-.032 0-.047 0z" fill="#aad540"/></g></g><g><g><path d="m242.718 121.733c-.016 0-.032 0-.049 0-6.407-.008-12.305-1.705-17.529-5.042-10.062-6.429-14.954-14.712-14.954-25.323v-49.947c0-4.268 3.459-7.726 7.726-7.726s7.726 3.459 7.726 7.726v49.947c0 5.188 2.266 8.752 7.821 12.301 2.743 1.753 5.763 2.608 9.229 2.612h.028c3.097 0 5.949-.646 8.478-1.919 8.449-4.256 9.427-9.484 9.427-13.046v-49.895c0-4.268 3.459-7.726 7.726-7.726s7.726 3.459 7.726 7.726v49.894c0 8.128-3.111 19.384-17.93 26.848-4.704 2.369-9.894 3.57-15.425 3.57z" fill="#aad540"/></g></g></g><g><path d="m380.095 270.782h-248.19v-53.831c0-5.842 4.736-10.579 10.579-10.579h227.033c5.842 0 10.579 4.736 10.579 10.579v53.831z" fill="#c8ea73"/><path d="m359.524 206.372v64.409h20.571v-53.831c0-5.842-4.736-10.579-10.579-10.579h-9.992z" fill="#b7e445"/><path d="m380.095 270.782h-248.19v179.694c0 5.842 4.736 10.579 10.579 10.579h227.033c5.842 0 10.579-4.736 10.579-10.579v-179.694z" fill="#efe7e4"/><path d="m359.524 270.782v190.273h9.992c5.842 0 10.579-4.736 10.579-10.579v-179.694z" fill="#eadfda"/><g><g><path d="m162.564 246.303h-4.408c-4.267 0-7.726-3.459-7.726-7.726s3.459-7.726 7.726-7.726h4.408c4.267 0 7.726 3.459 7.726 7.726s-3.459 7.726-7.726 7.726z" fill="#aad540"/></g><g><path d="m188.37 246.303h-4.407c-4.267 0-7.726-3.459-7.726-7.726s3.459-7.726 7.726-7.726h4.407c4.267 0 7.726 3.459 7.726 7.726s-3.459 7.726-7.726 7.726z" fill="#aad540"/></g><g><path d="m214.176 246.303h-4.408c-4.267 0-7.726-3.459-7.726-7.726s3.459-7.726 7.726-7.726h4.408c4.267 0 7.726 3.459 7.726 7.726s-3.459 7.726-7.726 7.726z" fill="#aad540"/></g></g><path d="m142.484 461.055h67.284v-190.273h-77.863v179.695c0 5.842 4.736 10.578 10.579 10.578z" fill="#aad540"/><g><g><path d="m181.535 306.813h-21.398c-4.267 0-7.726-3.459-7.726-7.726s3.459-7.726 7.726-7.726h21.398c4.267 0 7.726 3.459 7.726 7.726s-3.459 7.726-7.726 7.726z" fill="#c8ea73"/></g><g><path d="m181.535 337.158h-21.398c-4.267 0-7.726-3.459-7.726-7.726 0-4.268 3.459-7.726 7.726-7.726h21.398c4.267 0 7.726 3.459 7.726 7.726.001 4.267-3.459 7.726-7.726 7.726z" fill="#c8ea73"/></g><g><path d="m181.535 367.502h-21.398c-4.267 0-7.726-3.459-7.726-7.726s3.459-7.726 7.726-7.726h21.398c4.267 0 7.726 3.459 7.726 7.726s-3.459 7.726-7.726 7.726z" fill="#c8ea73"/></g><g><path d="m181.535 397.847h-21.398c-4.267 0-7.726-3.459-7.726-7.726s3.459-7.726 7.726-7.726h21.398c4.267 0 7.726 3.459 7.726 7.726s-3.459 7.726-7.726 7.726z" fill="#c8ea73"/></g><g><path d="m181.535 428.192h-21.398c-4.267 0-7.726-3.459-7.726-7.726s3.459-7.726 7.726-7.726h21.398c4.267 0 7.726 3.459 7.726 7.726s-3.459 7.726-7.726 7.726z" fill="#c8ea73"/></g></g><g><path d="m325.84 414.951h-62.845c-3.863 0-6.995-3.132-6.995-6.995v-22.9c0-3.863 3.132-6.995 6.995-6.995h62.845c3.863 0 6.995 3.132 6.995 6.995v22.9c0 3.863-3.132 6.995-6.995 6.995z" fill="#c8ea73"/><path d="m316.577 378.061v36.89h9.263c3.863 0 6.995-3.132 6.995-6.995v-22.9c0-3.863-3.132-6.995-6.995-6.995z" fill="#b7e445"/></g></g></g></svg>