<svg id="Capa_1" enable-background="new 0 0 512 512" height="512" viewBox="0 0 512 512" width="512" xmlns="http://www.w3.org/2000/svg"><g><path d="m422.518 512h-333.036c-4.309 0-7.802-3.493-7.802-7.802v-348.77h348.64v348.77c0 4.309-3.493 7.802-7.802 7.802z" fill="#f6f1f1"/><path d="m81.68 155.428v18.284h310.353c9.676 0 17.52 7.844 17.52 17.52v320.768h12.965c4.309 0 7.802-3.493 7.802-7.802v-348.77z" fill="#efe7e4"/><path d="m352.731 0h-263.249c-4.309 0-7.802 3.493-7.802 7.802v147.625h348.64v-106.73z" fill="#dd636e"/><path d="m370.304 61.369 30.893 20.529c5.219 3.468 8.356 9.319 8.356 15.586v57.944h20.767v-106.731z" fill="#da4a54"/><path d="m352.731 0 15.701 59.105c.932 3.507 4.549 5.576 8.044 4.602l53.845-15.01z" fill="#d82e3d"/><g><g><g><path d="m280.322 121.735c-3.122 0-6.062-1.906-7.229-5l-21.327-56.512-21.532 56.533c-1.519 3.989-5.985 5.991-9.971 4.471-3.987-1.519-5.989-5.983-4.47-9.97l27.256-71.562c.022-.059.045-.118.069-.176 1.446-3.533 4.846-5.82 8.663-5.824h.011c3.813 0 7.213 2.278 8.666 5.805.029.071.057.142.083.213l27.008 71.565c1.507 3.993-.508 8.451-4.5 9.957-.898.339-1.82.5-2.727.5z" fill="#d82e3d"/></g><g><path d="m271.958 103.91h-40.445c-4.268 0-7.726-3.459-7.726-7.726s3.459-7.726 7.726-7.726h40.445c4.268 0 7.726 3.459 7.726 7.726s-3.458 7.726-7.726 7.726z" fill="#d82e3d"/></g></g><g><g><path d="m181.137 121.737c-7.972 0-8.447-.081-9-.177-3.709-.637-6.42-3.852-6.42-7.615v-72.524c0-4.268 3.459-7.726 7.726-7.726 4.268 0 7.726 3.459 7.726 7.726v64.859c4.876-.003 11.496-.027 17.648-.061h.044c4.246 0 7.701 3.431 7.725 7.683.024 4.267-3.417 7.745-7.683 7.77-8.263.046-13.897.065-17.766.065z" fill="#d82e3d"/></g></g><g><g><path d="m119.736 121.467c-4.268 0-7.726-3.459-7.726-7.726v-72.054c0-4.268 3.459-7.726 7.726-7.726h29.204c4.268 0 7.726 3.459 7.726 7.726s-3.459 7.726-7.726 7.726h-21.478v64.327c0 4.268-3.458 7.727-7.726 7.727z" fill="#d82e3d"/></g><g><path d="m146.62 84.758h-26.884c-4.268 0-7.726-3.459-7.726-7.726 0-4.268 3.459-7.726 7.726-7.726h26.884c4.268 0 7.726 3.459 7.726 7.726.001 4.267-3.458 7.726-7.726 7.726z" fill="#d82e3d"/></g></g></g><g><path d="m301.993 328.057-64.043-41.555c-4.486-2.911-10.413.309-10.413 5.656v83.11c0 5.347 5.927 8.567 10.413 5.656l64.043-41.555c4.097-2.657 4.097-8.653 0-11.312z" fill="#dd636e"/></g><g><path d="m256.051 441.252c-4.266 0-7.724-3.456-7.726-7.722s3.455-7.728 7.722-7.73c9.726-.005 19.299-1.517 28.451-4.493 4.058-1.313 8.419.902 9.737 4.959 1.319 4.058-.901 8.418-4.959 9.737-10.695 3.477-21.872 5.243-33.221 5.25-.001-.001-.003-.001-.004-.001zm-30.843-4.839c-.79 0-1.593-.122-2.383-.378-10.732-3.477-20.82-8.617-29.983-15.275-3.452-2.508-4.216-7.34-1.708-10.793 2.51-3.453 7.341-4.215 10.793-1.708 7.845 5.701 16.479 10.101 25.661 13.075 4.059 1.315 6.284 5.672 4.969 9.731-1.06 3.269-4.091 5.348-7.349 5.348zm89.493-14.233c-2.386 0-4.739-1.103-6.251-3.179-2.512-3.45-1.753-8.283 1.697-10.794 7.825-5.698 14.679-12.555 20.372-20.382 2.51-3.451 7.343-4.212 10.794-1.703 3.451 2.511 4.213 7.343 1.703 10.794-6.644 9.133-14.643 17.135-23.773 23.783-1.373.999-2.965 1.481-4.542 1.481zm-139.406-22.005c-2.385 0-4.737-1.101-6.249-3.176-6.67-9.149-11.824-19.228-15.319-29.957-1.322-4.057.895-8.418 4.953-9.739 4.051-1.327 8.417.893 9.739 4.953 2.991 9.18 7.403 17.807 13.114 25.641 2.514 3.448 1.757 8.281-1.692 10.795-1.374 1-2.967 1.483-4.546 1.483zm175.662-27.89c-.791 0-1.595-.122-2.387-.379-4.058-1.318-6.281-5.676-4.964-9.734 2.973-9.158 4.48-18.732 4.48-28.458v-.206c0-4.268 3.459-7.726 7.726-7.726s7.726 3.459 7.726 7.726v.206c0 11.348-1.762 22.528-5.234 33.228-1.06 3.266-4.089 5.343-7.347 5.343zm-194.769-30.794c-4.268 0-7.726-3.407-7.726-7.675v-.103c0-11.313 1.749-22.457 5.2-33.123 1.313-4.061 5.668-6.288 9.729-4.973 4.06 1.313 6.287 5.669 4.973 9.729-2.953 9.128-4.45 18.671-4.45 28.366 0 4.269-3.459 7.779-7.726 7.779zm194.705-31.083c-3.253 0-6.278-2.069-7.343-5.328-2.999-9.175-7.42-17.797-13.139-25.626-2.517-3.446-1.765-8.28 1.68-10.797 3.448-2.516 8.279-1.765 10.797 1.68 6.681 9.145 11.845 19.218 15.35 29.942 1.326 4.056-.887 8.418-4.944 9.744-.797.261-1.606.385-2.401.385zm-175.726-27.542c-1.574 0-3.162-.48-4.533-1.475-3.453-2.507-4.22-7.338-1.713-10.792 6.635-9.139 14.625-17.149 23.747-23.807 3.446-2.516 8.281-1.762 10.796 1.685 2.516 3.447 1.762 8.281-1.685 10.796-7.82 5.707-14.667 12.572-20.353 20.404-1.512 2.084-3.869 3.189-6.259 3.189zm139.36-22.282c-1.572 0-3.159-.479-4.529-1.472-7.851-5.692-16.489-10.082-25.676-13.049-4.06-1.311-6.29-5.665-4.978-9.726s5.662-6.294 9.726-4.978c10.736 3.466 20.829 8.595 29.998 15.242 3.455 2.505 4.224 7.336 1.72 10.791-1.512 2.084-3.87 3.192-6.261 3.192zm-89.513-14.051c-3.255 0-6.281-2.071-7.344-5.332-1.324-4.056.892-8.419 4.949-9.741 10.694-3.489 21.869-5.267 33.215-5.284h.011c4.262 0 7.72 3.452 7.726 7.715.006 4.267-3.448 7.731-7.715 7.737-9.723.014-19.294 1.536-28.445 4.521-.796.261-1.604.384-2.397.384z" fill="#da4a54"/></g></g></svg>