<svg id="Capa_1" enable-background="new 0 0 512 512" height="512" viewBox="0 0 512 512" width="512" xmlns="http://www.w3.org/2000/svg"><g><path d="m422.518 512h-333.036c-4.309 0-7.802-3.493-7.802-7.802v-348.77h348.64v348.77c0 4.309-3.493 7.802-7.802 7.802z" fill="#f6f1f1"/><path d="m81.68 155.428v18.284h310.353c9.676 0 17.52 7.844 17.52 17.52v320.768h12.965c4.309 0 7.802-3.493 7.802-7.802v-348.77z" fill="#efe7e4"/><path d="m352.731 0h-263.249c-4.309 0-7.802 3.493-7.802 7.802v147.625h348.64v-106.73z" fill="#78d0b1"/><path d="m370.304 61.369 30.893 20.529c5.219 3.468 8.356 9.319 8.356 15.586v57.944h20.767v-106.731z" fill="#66b49d"/><path d="m352.731 0 15.701 59.105c.932 3.507 4.549 5.576 8.044 4.602l53.845-15.01z" fill="#5493a2"/><g><g><g><path d="m266.998 121.467c-4.268 0-7.726-3.459-7.726-7.726v-72.054c0-4.268 3.459-7.726 7.726-7.726h29.204c4.268 0 7.726 3.459 7.726 7.726s-3.459 7.726-7.726 7.726h-21.478v64.327c0 4.268-3.459 7.727-7.726 7.727z" fill="#5493a2"/></g><g><path d="m293.882 84.758h-26.884c-4.268 0-7.726-3.459-7.726-7.726 0-4.268 3.459-7.726 7.726-7.726h26.884c4.268 0 7.726 3.459 7.726 7.726s-3.458 7.726-7.726 7.726z" fill="#5493a2"/></g></g><g><g><path d="m244.177 49.147h-40.086c-4.268 0-7.726-3.459-7.726-7.726s3.459-7.726 7.726-7.726h40.086c4.268 0 7.726 3.459 7.726 7.726s-3.459 7.726-7.726 7.726z" fill="#5493a2"/></g><g><path d="m224.053 121.733c-4.268 0-7.726-3.459-7.726-7.726v-70.268c0-4.268 3.459-7.726 7.726-7.726s7.726 3.459 7.726 7.726v70.268c0 4.267-3.458 7.726-7.726 7.726z" fill="#5493a2"/></g></g><g><path d="m156.029 121.733c-24.273 0-44.019-19.746-44.019-44.019s19.746-44.019 44.019-44.019 44.019 19.746 44.019 44.019-19.747 44.019-44.019 44.019zm0-72.586c-15.752 0-28.566 12.815-28.566 28.566s12.815 28.566 28.566 28.566 28.566-12.815 28.566-28.566-12.815-28.566-28.566-28.566z" fill="#5493a2"/></g></g><g><g><path d="m301.836 298.838h-91.671c-4.268 0-7.726-3.459-7.726-7.726s3.459-7.726 7.726-7.726h91.671c4.268 0 7.726 3.459 7.726 7.726s-3.459 7.726-7.726 7.726z" fill="#5493a2"/></g><g><path d="m269.619 392.757h-27.238c-4.268 0-7.726-3.459-7.726-7.726s3.459-7.726 7.726-7.726h27.238c4.268 0 7.726 3.459 7.726 7.726s-3.458 7.726-7.726 7.726z" fill="#5493a2"/></g><g><path d="m255.898 390.253c-4.268 0-7.726-3.459-7.726-7.726v-88.497c0-4.268 3.459-7.726 7.726-7.726 4.268 0 7.726 3.459 7.726 7.726v88.496c0 4.268-3.458 7.727-7.726 7.727z" fill="#5493a2"/></g><g><path d="m209.58 307.552c-4.268 0-7.726-3.459-7.726-7.726v-17.428c0-4.268 3.459-7.726 7.726-7.726 4.268 0 7.726 3.459 7.726 7.726v17.428c0 4.267-3.458 7.726-7.726 7.726z" fill="#5493a2"/></g><g><path d="m302.42 307.552c-4.268 0-7.726-3.459-7.726-7.726v-17.428c0-4.268 3.459-7.726 7.726-7.726 4.268 0 7.726 3.459 7.726 7.726v17.428c.001 4.267-3.458 7.726-7.726 7.726z" fill="#5493a2"/></g></g><g><g><path d="m348.765 434.206h-185.531c-4.268 0-7.726-3.459-7.726-7.726v-185.532c0-4.268 3.459-7.726 7.726-7.726h185.531c4.268 0 7.726 3.459 7.726 7.726v185.531c.001 4.268-3.458 7.727-7.726 7.727zm-177.805-15.453h170.078v-170.079h-170.078z" fill="#5493a2"/></g><g fill="#78d0b1"><path d="m181.604 265.576h-36.74c-3.456 0-6.257-2.802-6.257-6.257v-36.74c0-3.456 2.802-6.257 6.257-6.257h36.74c3.456 0 6.257 2.802 6.257 6.257v36.74c.001 3.455-2.801 6.257-6.257 6.257z"/><path d="m367.136 265.576h-36.74c-3.456 0-6.257-2.802-6.257-6.257v-36.74c0-3.456 2.802-6.257 6.257-6.257h36.74c3.456 0 6.257 2.802 6.257 6.257v36.74c0 3.455-2.801 6.257-6.257 6.257z"/><path d="m181.604 451.107h-36.74c-3.456 0-6.257-2.802-6.257-6.257v-36.74c0-3.456 2.802-6.257 6.257-6.257h36.74c3.456 0 6.257 2.802 6.257 6.257v36.74c.001 3.455-2.801 6.257-6.257 6.257z"/><path d="m367.136 451.107h-36.74c-3.456 0-6.257-2.802-6.257-6.257v-36.74c0-3.456 2.802-6.257 6.257-6.257h36.74c3.456 0 6.257 2.802 6.257 6.257v36.74c0 3.455-2.801 6.257-6.257 6.257z"/></g></g></g></svg>