<svg id="Capa_1" enable-background="new 0 0 512 512" height="512" viewBox="0 0 512 512" width="512" xmlns="http://www.w3.org/2000/svg"><g><path d="m422.518 512h-333.036c-4.309 0-7.802-3.493-7.802-7.802v-348.77h348.64v348.77c0 4.309-3.493 7.802-7.802 7.802z" fill="#f6f1f1"/><path d="m81.68 155.428v18.284h310.353c9.676 0 17.52 7.844 17.52 17.52v320.768h12.965c4.309 0 7.802-3.493 7.802-7.802v-348.77z" fill="#efe7e4"/><path d="m352.731 0h-263.249c-4.309 0-7.802 3.493-7.802 7.802v147.625h348.64v-106.73z" fill="#f6e266"/><path d="m370.304 61.369 30.893 20.529c5.219 3.468 8.356 9.319 8.356 15.586v57.944h20.767v-106.731z" fill="#f1d333"/><path d="m352.731 0 15.701 59.105c.932 3.507 4.549 5.576 8.044 4.602l53.845-15.01z" fill="#ecc32e"/><g><g><g><path d="m119.736 121.733c-4.268 0-7.726-3.459-7.726-7.726v-72.586c0-4.268 3.459-7.726 7.726-7.726 4.268 0 7.726 3.459 7.726 7.726v72.586c0 4.267-3.458 7.726-7.726 7.726z" fill="#ecc32e"/></g></g><g><g><path d="m166.107 121.733c-11.877 0-23.473-4.971-31.019-13.298-2.865-3.162-2.625-8.048.537-10.913 3.161-2.863 8.046-2.626 10.913.537 4.665 5.148 11.981 8.221 19.568 8.221 7.72 0 13.184-4.761 14.006-9.363.804-4.505-2.978-8.653-10.377-11.381-11.216-4.138-21.172-8.57-21.59-8.757-.372-.166-.73-.361-1.071-.584-7.21-4.701-10.925-12.947-9.694-21.519 1.317-9.171 8.044-16.648 17.557-19.513 19.141-5.766 34.921 7.248 35.583 7.805 3.267 2.745 3.688 7.62.943 10.886-2.736 3.256-7.587 3.685-10.851.972-.216-.175-10.247-8.177-21.218-4.866-5.401 1.627-6.497 5.376-6.717 6.912-.348 2.419.551 4.656 2.419 6.082 2.371 1.04 10.856 4.713 19.988 8.082 17.533 6.466 21.952 19.011 20.241 28.595-2.286 12.807-14.574 22.102-29.218 22.102z" fill="#ecc32e"/></g></g><g><path d="m244.025 121.733c-24.273 0-44.019-19.746-44.019-44.019s19.746-44.019 44.019-44.019 44.019 19.746 44.019 44.019-19.747 44.019-44.019 44.019zm0-72.586c-15.752 0-28.566 12.815-28.566 28.566s12.815 28.566 28.566 28.566 28.566-12.815 28.566-28.566-12.815-28.566-28.566-28.566z" fill="#ecc32e"/></g></g><g><path d="m256 224.676c-60.22 0-109.037 48.818-109.037 109.037 0 60.22 48.818 109.037 109.037 109.037s109.037-48.818 109.037-109.037-48.817-109.037-109.037-109.037zm0 137.369c-15.647 0-28.332-12.684-28.332-28.332 0-15.647 12.684-28.331 28.332-28.331 15.647 0 28.332 12.685 28.332 28.331 0 15.648-12.685 28.332-28.332 28.332z" fill="#f6e266"/><g fill="#fbf4af"><path d="m256 224.676c-12.978 0-25.424 2.272-36.969 6.433l27.364 75.946c3-1.081 6.233-1.673 9.605-1.673s6.605.592 9.605 1.673l27.364-75.946c-11.545-4.16-23.991-6.433-36.969-6.433z"/><path d="m256 442.751c12.978 0 25.424-2.272 36.969-6.433l-27.364-75.946c-3 1.081-6.233 1.673-9.605 1.673s-6.605-.592-9.605-1.673l-27.364 75.946c11.545 4.161 23.991 6.433 36.969 6.433z"/></g></g></g></svg>