<svg id="Capa_1" enable-background="new 0 0 512 512" height="512" viewBox="0 0 512 512" width="512" xmlns="http://www.w3.org/2000/svg"><g><path d="m422.518 512h-333.036c-4.309 0-7.802-3.493-7.802-7.802v-348.77h348.64v348.77c0 4.309-3.493 7.802-7.802 7.802z" fill="#f6f1f1"/><path d="m81.68 155.428v18.284h310.353c9.676 0 17.52 7.844 17.52 17.52v320.768h12.965c4.309 0 7.802-3.493 7.802-7.802v-348.77z" fill="#efe7e4"/><path d="m352.731 0h-263.249c-4.309 0-7.802 3.493-7.802 7.802v147.625h348.64v-106.73z" fill="#c8ea73"/><path d="m370.304 61.369 30.893 20.529c5.219 3.468 8.356 9.319 8.356 15.586v57.944h20.767v-106.731z" fill="#b7e445"/><path d="m352.731 0 15.701 59.105c.932 3.507 4.549 5.576 8.044 4.602l53.845-15.01z" fill="#aad540"/><g><g><g><path d="m200.763 119.515c-4.268 0-7.726-3.459-7.726-7.726v-69.22c0-4.268 3.459-7.726 7.726-7.726 4.268 0 7.726 3.459 7.726 7.726v69.22c.001 4.267-3.458 7.726-7.726 7.726z" fill="#aad540"/></g><g><path d="m200.906 120.66c-2.039 0-3.995-.806-5.443-2.242-1.455-1.444-2.277-3.406-2.284-5.456 0 0-.092-25.534-.092-35.325 0-8.032-.051-35.127-.051-35.127-.004-2.052.809-4.021 2.258-5.473 1.45-1.453 3.418-2.269 5.469-2.269h19.95c21.635 0 36.171 17.259 36.171 42.946 0 24.436-14.91 42.431-35.453 42.789-5.675.1-19.893.155-20.496.157-.009 0-.019 0-.029 0zm7.598-70.439c.015 8.653.037 22.141.037 27.415 0 6.319.038 19.208.065 27.532 4.441-.027 9.688-.066 12.555-.117 13.927-.242 20.27-14.341 20.27-27.338 0-13.291-5.443-27.493-20.718-27.493h-12.209z" fill="#aad540"/></g></g><g><g><path d="m156.029 121.733c-24.273 0-44.019-19.746-44.019-44.019s19.746-44.019 44.019-44.019c8.82 0 17.333 2.602 24.617 7.522 3.536 2.389 4.466 7.192 2.077 10.727-2.389 3.537-7.192 4.465-10.727 2.077-4.72-3.189-10.241-4.874-15.967-4.874-15.752 0-28.566 12.815-28.566 28.566s12.815 28.566 28.566 28.566c5.895 0 10.868-1.767 14.78-5.249.759-.676 1.488-1.43 2.168-2.238 2.744-3.269 7.619-3.692 10.885-.948 3.268 2.744 3.692 7.618.948 10.885-1.157 1.377-2.409 2.669-3.722 3.839-6.733 5.997-15.398 9.165-25.059 9.165z" fill="#aad540"/></g></g><g><g><path d="m310.764 121.733c-2.143 0-4.276-.886-5.803-2.622l-30.49-34.644c-2.819-3.203-2.508-8.086.695-10.904 3.203-2.819 8.085-2.509 10.904.695l30.49 34.644c2.819 3.203 2.508 8.086-.695 10.904-1.467 1.292-3.288 1.927-5.101 1.927z" fill="#aad540"/></g><g><path d="m271.518 121.733c-4.268 0-7.726-3.459-7.726-7.726v-72.586c0-4.268 3.459-7.726 7.726-7.726 4.268 0 7.726 3.459 7.726 7.726v72.586c0 4.267-3.459 7.726-7.726 7.726z" fill="#aad540"/></g><g><path d="m271.675 86.959c-4.244 0-7.698-3.428-7.725-7.677 0 0-.134-37.835-.134-37.836-.007-2.053.805-4.025 2.255-5.48 1.45-1.454 3.419-2.272 5.472-2.272h19.288c15.25 0 27.658 11.929 27.658 26.591s-12.409 26.591-27.659 26.591c-5.34 0-19.105.083-19.108.083-.015 0-.031 0-.047 0zm7.616-37.812c.012 4.2.045 18.301.066 22.317 4.097-.021 8.819-.041 11.472-.041 6.616 0 12.205-5.101 12.205-11.138s-5.59-11.138-12.205-11.138z" fill="#aad540"/></g></g></g><g><path d="m214.971 374.748 40.012.101.101 40.013 114.342-114.342c2.499-2.499 2.499-6.552 0-9.051l-71.18-71.18c-2.499-2.499-6.552-2.499-9.051 0l-114.343 114.341 40.015.103z" fill="#c8ea73"/><g><path d="m361.286 283.327-106.266 106.266.064 25.268 114.342-114.342c2.499-2.499 2.499-6.552 0-9.051z" fill="#b7e445"/></g><path d="m147.283 448.993 76.785-6.428c2.334-.195 4.524-1.211 6.18-2.868l24.836-24.836-.101-40.013-33.392-.084c-3.661-.009-6.627-2.975-6.637-6.636l-.086-33.395-40.015-.103-24.836 24.836c-1.656 1.656-2.672 3.846-2.868 6.18l-6.428 76.785c-.314 3.746 2.816 6.876 6.562 6.562z" fill="#fbf4af"/><g><path d="m254.983 374.849s-13.298-.033-13.298-.033l.054 21.398c.009 3.403-1.34 6.67-3.746 9.077l-20.33 20.33c-2.138 2.138-4.964 3.449-7.977 3.702l-68.346 5.722-.618 7.388c-.314 3.746 2.816 6.876 6.562 6.562l76.785-6.428c2.334-.195 4.524-1.211 6.18-2.868l24.836-24.836c-.001-.001-.102-40.014-.102-40.014z" fill="#f9f48e"/></g><g><path d="m251.859 384.563c-1.978 0-3.955-.755-5.464-2.263-3.017-3.018-3.017-7.909 0-10.928l74.719-74.718c3.018-3.016 7.909-3.016 10.928 0 3.017 3.018 3.017 7.909 0 10.928l-74.719 74.718c-1.509 1.508-3.487 2.263-5.464 2.263z" fill="#aad540"/></g><g><path d="m211.744 344.447c-1.977 0-3.955-.755-5.464-2.263-3.017-3.018-3.017-7.909 0-10.928l71.448-71.448c3.018-3.016 7.909-3.016 10.928 0 3.017 3.018 3.017 7.909 0 10.928l-71.448 71.448c-1.509 1.508-3.487 2.263-5.464 2.263z" fill="#aad540"/></g><path d="m143.785 405.831-3.064 36.6c-.314 3.746 2.816 6.876 6.562 6.562l36.6-3.064z" fill="#665e66"/></g></g></svg>