<svg id="Capa_1" enable-background="new 0 0 512 512" height="512" viewBox="0 0 512 512" width="512" xmlns="http://www.w3.org/2000/svg"><g><path d="m422.518 512h-333.036c-4.309 0-7.802-3.493-7.802-7.802v-348.77h348.64v348.77c0 4.309-3.493 7.802-7.802 7.802z" fill="#f6f1f1"/><path d="m81.68 155.428v18.284h310.353c9.676 0 17.52 7.844 17.52 17.52v320.768h12.965c4.309 0 7.802-3.493 7.802-7.802v-348.77z" fill="#efe7e4"/><path d="m352.731 0h-263.249c-4.309 0-7.802 3.493-7.802 7.802v147.625h348.64v-106.73z" fill="#e7a561"/><path d="m370.304 61.369 30.893 20.529c5.219 3.468 8.356 9.319 8.356 15.586v57.944h20.767v-106.731z" fill="#e49542"/><path d="m352.731 0 15.701 59.105c.932 3.507 4.549 5.576 8.044 4.602l53.845-15.01z" fill="#e28424"/><g><g><g><path d="m177.045 121.734c-3.122 0-6.062-1.906-7.229-5l-21.327-56.512-21.532 56.533c-1.519 3.99-5.984 5.989-9.971 4.471-3.987-1.519-5.989-5.983-4.47-9.97l27.256-71.562c.022-.059.045-.118.069-.176 1.446-3.534 4.847-5.82 8.665-5.823h.009c3.815 0 7.215 2.279 8.667 5.807.028.069.056.14.082.21l27.008 71.565c1.507 3.993-.508 8.451-4.5 9.957-.898.339-1.821.5-2.727.5z" fill="#e28424"/></g><g><path d="m168.681 103.909h-40.445c-4.268 0-7.726-3.459-7.726-7.726 0-4.268 3.459-7.726 7.726-7.726h40.445c4.268 0 7.726 3.459 7.726 7.726 0 4.268-3.459 7.726-7.726 7.726z" fill="#e28424"/></g></g><g><g><path d="m203.11 121.732c-4.268 0-7.726-3.459-7.726-7.726v-72.584c0-4.268 3.459-7.726 7.726-7.726s7.726 3.459 7.726 7.726v72.585c.001 4.267-3.458 7.725-7.726 7.725z" fill="#e28424"/></g></g></g><g><path d="m256 225.747-69.434 67.979c-3.907 3.825-5.311 9.534-3.622 14.735l26.201 80.701h93.71l26.201-80.701c1.689-5.201.285-10.91-3.622-14.735z" fill="#e7a561"/><path d="m325.434 293.726-69.434-67.979-13.693 13.406 55.741 54.573c3.907 3.825 5.311 9.534 3.622 14.735l-26.201 80.701h27.386l26.201-80.701c1.689-5.201.286-10.91-3.622-14.735z" fill="#e49542"/><path d="m318.161 441.681h-124.322c-4.082 0-7.39-3.309-7.39-7.39v-37.738c0-4.082 3.309-7.39 7.39-7.39h124.323c4.082 0 7.39 3.309 7.39 7.39v37.738c0 4.081-3.309 7.39-7.391 7.39z" fill="#756e78"/><path d="m302.13 389.161v52.519h16.031c4.082 0 7.39-3.309 7.39-7.39v-37.738c0-4.082-3.309-7.39-7.39-7.39h-16.031z" fill="#665e66"/><g><path d="m256 296.179c-4.268 0-7.726-3.459-7.726-7.726v-61.675c0-4.268 3.459-7.726 7.726-7.726s7.726 3.459 7.726 7.726v61.675c0 4.267-3.459 7.726-7.726 7.726z" fill="#e28424"/></g><circle cx="256" cy="305.565" fill="#e28424" r="17.113"/></g></g></svg>