<svg id="Capa_1" enable-background="new 0 0 512 512" height="512" viewBox="0 0 512 512" width="512" xmlns="http://www.w3.org/2000/svg"><g><path d="m422.518 512h-333.036c-4.309 0-7.802-3.493-7.802-7.802v-348.77h348.64v348.77c0 4.309-3.493 7.802-7.802 7.802z" fill="#f6f1f1"/><path d="m81.68 155.428v18.284h310.353c9.676 0 17.52 7.844 17.52 17.52v320.768h12.965c4.309 0 7.802-3.493 7.802-7.802v-348.77z" fill="#efe7e4"/><path d="m352.731 0h-263.249c-4.309 0-7.802 3.493-7.802 7.802v147.625h348.64v-106.73z" fill="#ac80dd"/><path d="m370.304 61.369 30.893 20.529c5.219 3.468 8.356 9.319 8.356 15.586v57.944h20.767v-106.731z" fill="#9d66d5"/><path d="m352.731 0 15.701 59.105c.932 3.507 4.549 5.576 8.044 4.602l53.845-15.01z" fill="#8659b9"/><g><g><g><path d="m157.301 121.733c-4.03 0-7.595-2.562-8.878-6.387-.03-.09-.058-.18-.086-.272l-13.47-45.655-8.193 45.392c-.758 4.2-4.778 6.986-8.976 6.231-4.199-.759-6.989-4.777-6.231-8.976l12.759-70.684c.818-4.262 4.342-7.378 8.586-7.663 4.238-.289 8.153 2.332 9.507 6.364.03.091.058.181.086.273l14.798 50.155 14.275-50.074c.025-.09.052-.178.081-.266 1.311-4.044 5.202-6.697 9.437-6.462 4.245.239 7.802 3.316 8.65 7.482l13.53 70.797c.802 4.191-1.947 8.238-6.138 9.039-4.184.81-8.238-1.946-9.039-6.138l-8.7-45.521-13.005 45.622c-.026.091-.053.179-.081.268-1.251 3.852-4.812 6.455-8.862 6.474-.018 0-.033.001-.05.001z" fill="#8659b9"/></g></g><g><g><path d="m220.393 121.732c-4.268 0-7.726-3.459-7.726-7.726v-72.584c0-4.268 3.459-7.726 7.726-7.726 4.268 0 7.726 3.459 7.726 7.726v72.585c0 4.267-3.458 7.725-7.726 7.725z" fill="#8659b9"/></g><g><path d="m220.534 90.205c-2.032 0-3.983-.801-5.43-2.229-1.458-1.441-2.284-3.4-2.297-5.45 0 0-.091-14.905-.091-20.622 0-4.677-.05-20.459-.05-20.459-.006-2.053.805-4.024 2.255-5.479s3.419-2.272 5.472-2.272h20.21c15.777 0 28.612 12.655 28.612 28.209 0 15.555-12.835 28.21-28.612 28.21-5.597 0-20.021.091-20.021.091-.016.001-.032.001-.048.001zm7.609-41.057c.013 4.712.027 10.283.027 12.757 0 2.933.024 8.296.047 12.804 4.374-.023 9.527-.046 12.386-.046 7.133 0 13.159-5.842 13.159-12.758 0-6.914-6.026-12.757-13.159-12.757z" fill="#8659b9"/></g></g><g><g><path d="m315.048 128.786c-.022 0-.044 0-.067 0-4.268-.037-7.696-3.526-7.66-7.793.047-5.421.095-11.487.141-17.794h-35.575c-2.733 0-5.264-1.445-6.653-3.798-1.39-2.354-1.433-5.268-.112-7.661 4.869-8.826 29.41-53.162 34.356-59.23 5.755-7.059 11.941-6.099 14.334-5.356 5.053 1.564 8.646 6.503 9.152 12.58.262 3.136.184 26.701.055 48.012h3.307c4.268 0 7.726 3.459 7.726 7.726 0 4.268-3.459 7.726-7.726 7.726h-3.41c-.059 8.09-.114 14.679-.142 17.927-.038 4.245-3.49 7.661-7.726 7.661zm-30.041-41.04h22.556c.094-15.734.151-30.936.112-39.605-4.991 8.254-13.787 23.68-22.668 39.605zm26.986-46.034s0 0-.001 0z" fill="#8659b9"/></g></g></g><circle cx="256" cy="333.714" fill="#dd636e" r="96.111"/><path d="m256 237.603c-5.327 0-10.551.441-15.642 1.274 45.64 7.472 80.469 47.084 80.469 94.837s-34.829 87.365-80.469 94.837c5.091.833 10.315 1.274 15.642 1.274 53.08 0 96.111-43.03 96.111-96.111s-43.03-96.111-96.111-96.111z" fill="#da4a54"/><path d="m299.171 328.057-64.043-41.555c-4.486-2.911-10.413.309-10.413 5.656v83.11c0 5.347 5.927 8.567 10.413 5.656l64.043-41.555c4.097-2.657 4.097-8.653 0-11.312z" fill="#f6f1f1"/></g></svg>