<svg id="Capa_1" enable-background="new 0 0 512 512" height="512" viewBox="0 0 512 512" width="512" xmlns="http://www.w3.org/2000/svg"><g><path d="m422.518 512h-333.036c-4.309 0-7.802-3.493-7.802-7.802v-348.77h348.64v348.77c0 4.309-3.493 7.802-7.802 7.802z" fill="#f6f1f1"/><path d="m81.68 155.428v18.284h310.353c9.676 0 17.52 7.844 17.52 17.52v320.768h12.965c4.309 0 7.802-3.493 7.802-7.802v-348.77z" fill="#efe7e4"/><path d="m352.731 0h-263.249c-4.309 0-7.802 3.493-7.802 7.802v147.625h348.64v-106.73z" fill="#80b4fb"/><path d="m370.304 61.369 30.893 20.529c5.219 3.468 8.356 9.319 8.356 15.586v57.944h20.767v-106.731z" fill="#61a2f9"/><path d="m352.731 0 15.701 59.105c.932 3.507 4.549 5.576 8.044 4.602l53.845-15.01z" fill="#3b66c1"/><g><g><g><path d="m286.408 121.737c-7.979 0-8.453-.081-9.007-.177-3.708-.638-6.417-3.852-6.417-7.615v-72.524c0-4.268 3.459-7.726 7.726-7.726s7.726 3.459 7.726 7.726v64.859c4.876-.003 11.495-.027 17.647-.061h.044c4.246 0 7.701 3.431 7.725 7.683.024 4.267-3.417 7.745-7.683 7.77-8.259.046-13.893.065-17.761.065z" fill="#3b66c1"/></g></g><g><g><path d="m140.91 121.733c-11.878 0-23.474-4.971-31.02-13.298-2.865-3.162-2.625-8.048.537-10.913 3.16-2.864 8.046-2.626 10.913.537 4.665 5.148 11.981 8.221 19.569 8.221 7.72 0 13.183-4.761 14.005-9.363.804-4.504-2.978-8.653-10.376-11.382-11.215-4.137-21.172-8.568-21.59-8.755-.373-.166-.731-.361-1.072-.583-7.21-4.701-10.925-12.946-9.694-21.518 1.317-9.171 8.044-16.649 17.557-19.515 19.144-5.767 34.921 7.248 35.583 7.805 3.267 2.745 3.688 7.62.943 10.886-2.736 3.256-7.587 3.685-10.851.972-.216-.176-10.246-8.176-21.218-4.866-5.401 1.627-6.497 5.377-6.718 6.913-.347 2.419.552 4.656 2.419 6.082 2.373 1.04 10.858 4.712 19.99 8.081 17.533 6.467 21.952 19.012 20.24 28.596-2.286 12.806-14.574 22.1-29.217 22.1z" fill="#3b66c1"/></g></g><g><g><path d="m255.437 121.44c-1.978 0-3.955-.755-5.464-2.264l-23.22-23.221c-3.017-3.017-3.017-7.909.001-10.927 3.017-3.017 7.909-3.016 10.927.001l23.22 23.221c3.017 3.017 3.017 7.909-.001 10.927-1.508 1.508-3.486 2.263-5.463 2.263z" fill="#3b66c1"/></g><g><path d="m218.865 121.733c-24.273 0-44.019-19.746-44.019-44.019s19.746-44.019 44.019-44.019 44.019 19.746 44.019 44.019-19.747 44.019-44.019 44.019zm0-72.586c-15.752 0-28.566 12.815-28.566 28.566s12.815 28.566 28.566 28.566 28.566-12.815 28.566-28.566-12.815-28.566-28.566-28.566z" fill="#3b66c1"/></g></g></g><g><path d="m175.073 353.835v55.673h.193c2.745 10.31 37.83 18.466 80.733 18.466 42.904 0 77.989-8.156 80.733-18.466h.193v-55.673z" fill="#3b66c1"/><path d="m175.073 306.527v55.673h.193c2.745 10.31 37.83 18.466 80.733 18.466 42.904 0 77.989-8.156 80.733-18.466h.193v-55.673z" fill="#61a2f9"/><path d="m175.073 259.22v55.673h.193c2.745 10.31 37.83 18.466 80.733 18.466 42.904 0 77.989-8.156 80.733-18.466h.193v-55.673z" fill="#80b4fb"/><ellipse cx="256" cy="259.22" fill="#9dc6fb" rx="80.927" ry="19.766"/></g></g></svg>