<svg id="Capa_1" enable-background="new 0 0 512 512" height="512" viewBox="0 0 512 512" width="512" xmlns="http://www.w3.org/2000/svg"><g><path d="m430.32 504.198c0 4.309-3.493 7.802-7.802 7.802h-333.036c-4.309 0-7.802-3.493-7.802-7.802v-348.77h348.64z" fill="#f6f1f1"/><path d="m81.68 155.428v18.284h310.353c9.676 0 17.52 7.844 17.52 17.52v320.768h12.965c4.309 0 7.802-3.493 7.802-7.802v-348.77z" fill="#efe7e4"/><path d="m352.731 0h-263.249c-4.309 0-7.802 3.493-7.802 7.802v147.625h348.64v-106.73z" fill="#ac80dd"/><path d="m370.304 61.369 30.893 20.529c5.219 3.468 8.356 9.319 8.356 15.586v57.944h20.767v-106.731z" fill="#9d66d5"/><path d="m352.731 0 15.701 59.105c.932 3.507 4.549 5.576 8.044 4.602l53.845-15.01z" fill="#8659b9"/><g><g><g><path d="m236.455 121.735c-3.122 0-6.062-1.906-7.229-5l-21.327-56.512-21.532 56.533c-1.519 3.989-5.984 5.991-9.971 4.471-3.987-1.519-5.989-5.983-4.47-9.97l27.256-71.562c.022-.059.045-.118.069-.176 1.446-3.535 4.848-5.821 8.667-5.824h.007c3.816 0 7.217 2.28 8.668 5.81.028.069.055.139.081.208l27.008 71.565c1.507 3.993-.508 8.451-4.5 9.957-.898.339-1.82.5-2.727.5z" fill="#8659b9"/></g><g><path d="m228.091 103.91h-40.445c-4.268 0-7.726-3.459-7.726-7.726 0-4.268 3.459-7.726 7.726-7.726h40.445c4.268 0 7.726 3.459 7.726 7.726.001 4.267-3.458 7.726-7.726 7.726z" fill="#8659b9"/></g></g><g><g><path d="m158.318 121.733c-2.143 0-4.276-.886-5.803-2.622l-30.49-34.643c-2.819-3.203-2.508-8.086.695-10.904s8.086-2.508 10.904.695l30.49 34.643c2.819 3.203 2.508 8.086-.695 10.904-1.468 1.292-3.289 1.927-5.101 1.927z" fill="#8659b9"/></g><g><path d="m119.071 121.733c-4.268 0-7.726-3.459-7.726-7.726v-72.586c0-4.268 3.459-7.726 7.726-7.726s7.726 3.459 7.726 7.726v72.586c0 4.267-3.458 7.726-7.726 7.726z" fill="#8659b9"/></g><g><path d="m119.228 86.959c-4.244 0-7.698-3.428-7.725-7.678 0 0-.086-13.731-.086-18.996 0-4.307-.048-18.837-.048-18.839-.007-2.053.804-4.025 2.254-5.48 1.45-1.454 3.42-2.272 5.473-2.272h19.288c15.251 0 27.658 11.929 27.658 26.591s-12.407 26.591-27.658 26.591c-5.34 0-19.105.084-19.108.084-.016-.001-.032-.001-.048-.001zm7.618-37.812c.012 4.2.024 8.966.024 11.138 0 2.568.02 7.163.041 11.179 4.098-.021 8.819-.041 11.472-.041 6.616 0 12.205-5.101 12.205-11.138s-5.59-11.138-12.205-11.138z" fill="#8659b9"/></g></g><g><g><path d="m297.419 121.733c-2.143 0-4.276-.886-5.803-2.622l-30.491-34.643c-2.819-3.203-2.508-8.086.695-10.904s8.086-2.508 10.904.695l30.491 34.643c2.819 3.203 2.508 8.086-.695 10.904-1.467 1.292-3.288 1.927-5.101 1.927z" fill="#8659b9"/></g><g><path d="m258.173 121.733c-4.268 0-7.726-3.459-7.726-7.726v-72.586c0-4.268 3.459-7.726 7.726-7.726 4.268 0 7.726 3.459 7.726 7.726v72.586c0 4.267-3.459 7.726-7.726 7.726z" fill="#8659b9"/></g><g><path d="m258.33 86.959c-4.244 0-7.698-3.428-7.725-7.677 0 0-.087-13.732-.087-18.997 0-4.307-.048-18.837-.048-18.839-.007-2.053.804-4.025 2.254-5.48 1.45-1.454 3.42-2.272 5.473-2.272h19.289c15.25 0 27.658 11.929 27.658 26.591s-12.407 26.591-27.658 26.591c-5.34 0-19.105.084-19.108.084-.016-.001-.032-.001-.048-.001zm7.616-37.812c.012 4.2.024 8.966.024 11.138 0 2.568.021 7.163.042 11.179 4.097-.021 8.819-.041 11.472-.041 6.616 0 12.205-5.101 12.205-11.138s-5.59-11.138-12.205-11.138z" fill="#8659b9"/></g></g></g><path d="m81.68 303.923h348.641v28.52h-348.641z" fill="#756e78"/><path d="m409.553 303.923h20.767v28.519h-20.767z" fill="#665e66"/><path d="m289.541 365.335h-67.082c-4.555 0-8.247-3.692-8.247-8.247v-77.811c0-4.555 3.692-8.247 8.247-8.247h67.082c4.555 0 8.247 3.692 8.247 8.247v77.811c0 4.554-3.692 8.247-8.247 8.247z" fill="#ac80dd"/><path d="m289.541 271.03h-19.738c4.555 0 8.247 3.692 8.247 8.247v77.811c0 4.555-3.692 8.247-8.247 8.247h19.738c4.555 0 8.247-3.692 8.247-8.247v-77.811c0-4.555-3.692-8.247-8.247-8.247z" fill="#9d66d5"/><g><path d="m256 333.038c-4.268 0-7.726-3.459-7.726-7.726v-14.26c0-4.268 3.459-7.726 7.726-7.726s7.726 3.459 7.726 7.726v14.26c0 4.268-3.459 7.726-7.726 7.726z" fill="#8659b9"/></g></g></svg>