<svg id="Capa_1" enable-background="new 0 0 512 512" height="512" viewBox="0 0 512 512" width="512" xmlns="http://www.w3.org/2000/svg"><g><path d="m430.32 504.198c0 4.309-3.493 7.802-7.802 7.802h-333.036c-4.309 0-7.802-3.493-7.802-7.802v-348.77h348.64z" fill="#f6f1f1"/><path d="m81.68 155.428v18.284h310.353c9.676 0 17.52 7.844 17.52 17.52v320.768h12.965c4.309 0 7.802-3.493 7.802-7.802v-348.77z" fill="#efe7e4"/><path d="m352.731 0h-263.249c-4.309 0-7.802 3.493-7.802 7.802v147.625h348.64v-106.73z" fill="#ac80dd"/><path d="m370.304 61.369 30.893 20.529c5.219 3.468 8.356 9.319 8.356 15.586v57.944h20.767v-106.731z" fill="#9d66d5"/><path d="m352.731 0 15.701 59.105c.932 3.507 4.549 5.576 8.044 4.602l53.845-15.01z" fill="#8659b9"/><g><g><g><path d="m197.199 121.737c-7.974 0-8.45-.081-9.004-.177-3.708-.637-6.418-3.852-6.418-7.615v-72.524c0-4.268 3.459-7.726 7.726-7.726s7.726 3.459 7.726 7.726v64.859c4.877-.003 11.495-.027 17.647-.061h.044c4.247 0 7.701 3.431 7.725 7.683.024 4.267-3.416 7.745-7.683 7.77-8.261.046-13.894.065-17.763.065z" fill="#8659b9"/></g></g><g><g><path d="m244.73 121.737c-7.974 0-8.45-.081-9.004-.177-3.708-.637-6.418-3.852-6.418-7.615v-72.524c0-4.268 3.459-7.726 7.726-7.726s7.726 3.459 7.726 7.726v64.859c4.877-.003 11.495-.027 17.647-.061h.044c4.246 0 7.701 3.431 7.725 7.683.024 4.267-3.417 7.745-7.683 7.77-8.261.046-13.895.065-17.763.065z" fill="#8659b9"/></g></g><g><g><path d="m119.214 120.659c-2.039 0-3.995-.806-5.443-2.242-1.455-1.445-2.276-3.406-2.283-5.456 0 0-.092-25.534-.092-35.325 0-8.031-.051-35.126-.051-35.127-.004-2.051.808-4.02 2.258-5.472 1.449-1.453 3.416-2.269 5.468-2.269h19.949c21.635 0 36.172 17.259 36.172 42.945 0 24.435-14.91 42.431-35.452 42.79-5.677.1-19.894.154-20.496.156-.01 0-.02 0-.03 0zm7.598-70.437c.015 8.653.037 22.141.037 27.414 0 6.319.038 19.209.065 27.532 4.441-.026 9.689-.065 12.555-.116 13.927-.243 20.27-14.342 20.27-27.339 0-13.291-5.443-27.492-20.719-27.492h-12.208z" fill="#8659b9"/></g></g></g><path d="m227.332 236.318 4.97-12.944c2.19-5.703 7.667-9.468 13.776-9.468h19.845c6.109 0 11.587 3.764 13.776 9.468l4.97 12.944c1.212 3.156 3.47 5.8 6.398 7.491l25.261 14.584c2.928 1.69 6.347 2.324 9.686 1.796l13.694-2.168c6.034-.955 12.033 1.906 15.087 7.197l9.922 17.186c3.055 5.291 2.533 11.917-1.311 16.665l-8.725 10.776c-2.127 2.627-3.288 5.905-3.288 9.286v29.169c0 3.381 1.161 6.659 3.288 9.286l8.725 10.776c3.844 4.748 4.366 11.374 1.311 16.665l-9.922 17.186c-3.055 5.291-9.053 8.152-15.087 7.197l-13.694-2.168c-3.339-.529-6.758.105-9.686 1.796l-25.261 14.584c-2.928 1.69-5.186 4.335-6.398 7.491l-4.97 12.944c-2.19 5.703-7.667 9.468-13.776 9.468h-19.845c-6.109 0-11.587-3.764-13.776-9.468l-4.97-12.944c-1.212-3.156-3.47-5.8-6.398-7.491l-25.261-14.584c-2.928-1.69-6.347-2.324-9.686-1.796l-13.694 2.168c-6.034.955-12.033-1.906-15.087-7.197l-9.922-17.186c-3.055-5.291-2.533-11.917 1.311-16.665l8.725-10.776c2.127-2.627 3.288-5.905 3.288-9.286v-29.169c0-3.381-1.161-6.659-3.288-9.286l-8.725-10.776c-3.844-4.748-4.366-11.374-1.311-16.665l9.922-17.186c3.055-5.291 9.053-8.152 15.087-7.197l13.694 2.168c3.339.529 6.758-.105 9.686-1.796l25.261-14.584c2.927-1.691 5.186-4.335 6.398-7.491zm-31.236 97.396c0 33.084 26.82 59.904 59.904 59.904s59.904-26.82 59.904-59.904-26.82-59.904-59.904-59.904-59.904 26.82-59.904 59.904z" fill="#ac80dd"/><g><path d="m354.681 357.584c-2.127-2.627-3.288-5.905-3.288-9.286v-29.168c0-3.381 1.161-6.659 3.288-9.286l8.725-10.776c3.844-4.748 4.366-11.374 1.311-16.664l-9.922-17.186c-3.055-5.291-9.053-8.152-15.087-7.197l-13.694 2.168c-.663.105-1.328.151-1.993.165 1.827 1.229 3.392 2.874 4.54 4.864l9.922 17.186c3.055 5.291 2.533 11.917-1.311 16.664l-8.725 10.776c-2.127 2.627-3.288 5.905-3.288 9.286v29.169c0 3.381 1.161 6.659 3.288 9.286l8.725 10.775c3.844 4.748 4.366 11.374 1.311 16.665l-9.922 17.186c-1.149 1.989-2.714 3.635-4.54 4.863.665.015 1.33.06 1.993.165l13.694 2.168c6.034.955 12.033-1.906 15.087-7.197l9.922-17.186c3.055-5.291 2.533-11.917-1.311-16.665z" fill="#9d66d5"/></g></g></svg>