<svg id="Capa_1" enable-background="new 0 0 512 512" height="512" viewBox="0 0 512 512" width="512" xmlns="http://www.w3.org/2000/svg"><g><path d="m422.518 512h-333.036c-4.309 0-7.802-3.493-7.802-7.802v-348.77h348.64v348.77c0 4.309-3.493 7.802-7.802 7.802z" fill="#f6f1f1"/><path d="m81.68 155.428v18.284h310.353c9.676 0 17.52 7.844 17.52 17.52v320.768h12.965c4.309 0 7.802-3.493 7.802-7.802v-348.77z" fill="#efe7e4"/><path d="m352.731 0h-263.249c-4.309 0-7.802 3.493-7.802 7.802v147.625h348.64v-106.73z" fill="#80b4fb"/><path d="m370.304 61.369 30.893 20.529c5.219 3.468 8.356 9.319 8.356 15.586v57.944h20.767v-106.731z" fill="#61a2f9"/><path d="m352.731 0 15.701 59.105c.932 3.507 4.549 5.576 8.044 4.602l53.845-15.01z" fill="#3b66c1"/><g><g><g><path d="m246.172 119.515c-4.267 0-7.726-3.459-7.726-7.726v-69.22c0-4.268 3.459-7.726 7.726-7.726s7.726 3.459 7.726 7.726v69.22c0 4.267-3.459 7.726-7.726 7.726z" fill="#3b66c1"/></g><g><path d="m246.315 120.659c-2.039 0-3.995-.806-5.443-2.242-1.455-1.445-2.276-3.406-2.283-5.456 0 0-.092-25.533-.092-35.325 0-8.031-.051-35.126-.051-35.126-.004-2.052.808-4.021 2.258-5.473 1.449-1.453 3.417-2.269 5.468-2.269h19.95c21.635 0 36.171 17.259 36.171 42.945 0 24.435-14.909 42.431-35.453 42.79-5.675.1-19.893.154-20.496.156-.01 0-.02 0-.029 0zm7.597-70.438c.015 8.653.037 22.141.037 27.414 0 6.321.038 19.209.065 27.532 4.441-.026 9.689-.065 12.555-.116 13.927-.243 20.27-14.342 20.27-27.339 0-13.291-5.443-27.492-20.718-27.492h-12.209z" fill="#3b66c1"/></g></g><g><g><path d="m203.166 121.732c-11.878 0-23.474-4.971-31.02-13.298-2.865-3.162-2.625-8.048.537-10.913 3.161-2.865 8.048-2.624 10.913.537 4.665 5.148 11.981 8.221 19.569 8.221 7.72 0 13.184-4.761 14.006-9.363.804-4.504-2.978-8.653-10.377-11.382-11.216-4.136-21.172-8.568-21.59-8.755-.372-.166-.73-.361-1.072-.584-7.209-4.701-10.924-12.946-9.693-21.518 1.316-9.171 8.044-16.649 17.556-19.515 19.146-5.766 34.923 7.249 35.585 7.806 3.266 2.745 3.688 7.62.943 10.886-2.737 3.256-7.587 3.684-10.852.971-.225-.182-10.254-8.171-21.218-4.866-5.401 1.627-6.497 5.377-6.718 6.913-.347 2.419.552 4.656 2.419 6.082 2.372 1.04 10.857 4.713 19.988 8.08 17.534 6.468 21.952 19.013 20.241 28.597-2.286 12.808-14.574 22.101-29.217 22.101z" fill="#3b66c1"/></g></g><g><g><path d="m119.736 121.732c-4.267 0-7.726-3.459-7.726-7.726v-72.584c0-4.268 3.459-7.726 7.726-7.726s7.726 3.459 7.726 7.726v72.585c0 4.267-3.459 7.725-7.726 7.725z" fill="#3b66c1"/></g><g><path d="m119.877 90.205c-2.032 0-3.983-.801-5.43-2.229-1.458-1.441-2.284-3.4-2.297-5.45l-.141-41.08c-.007-2.053.805-4.024 2.255-5.479s3.419-2.272 5.472-2.272h20.211c15.776 0 28.611 12.655 28.611 28.209 0 15.555-12.835 28.21-28.611 28.21-5.597 0-20.022.091-20.022.091-.016 0-.032 0-.048 0zm7.609-41.057c.013 4.712.051 21.052.074 25.56 4.375-.023 9.528-.046 12.387-.046 7.133 0 13.158-5.842 13.158-12.758 0-6.914-6.026-12.757-13.158-12.757h-12.461z" fill="#3b66c1"/></g></g></g><g><path d="m292.092 335.688 33.772 2.138c.739.047 1.458-.267 1.919-.847 3.309-4.155 6.429-8.498 9.319-13.043l49.991-78.603c1.102-1.733-.489-3.92-2.477-3.404l-113.793 29.534c-56.893 14.766-100.093 61.135-110.801 118.93l36.442 3.123c35.612 3.052 70.425-6.61 98.852-26.209 1.589-1.096 2.172-3.171 1.431-4.954l-8.718-20.971c-1.173-2.818 1.018-5.887 4.063-5.694z" fill="#80b4fb"/><g><g><path d="m132.268 425.575c-1.769 0-3.548-.605-5.001-1.841-3.249-2.764-3.645-7.636-.883-10.886 2.531-2.979 63.418-73.689 187.519-137.071 3.799-1.94 8.454-.434 10.395 3.367 1.941 3.8.434 8.454-3.367 10.395-121.138 61.868-182.172 132.611-182.774 133.318-1.528 1.795-3.701 2.718-5.889 2.718z" fill="#61a2f9"/></g><g><path d="m232.647 364.886c-.467 0-.941-.042-1.416-.131l-26.876-4.98c-4.196-.777-6.967-4.809-6.19-9.004.778-4.196 4.81-6.968 9.005-6.189l26.876 4.98c4.196.777 6.967 4.809 6.19 9.004-.69 3.72-3.937 6.32-7.589 6.32z" fill="#61a2f9"/></g><g><path d="m243.655 333.242c-.467 0-.94-.042-1.416-.131-4.196-.777-6.967-4.809-6.19-9.004l5.005-27.012c.777-4.196 4.808-6.968 9.005-6.189 4.196.777 6.967 4.809 6.19 9.004l-5.005 27.012c-.689 3.721-3.937 6.32-7.589 6.32z" fill="#61a2f9"/></g><g><path d="m162.053 410.475c-3.713 0-6.988-2.684-7.613-6.468l-1.308-7.913-14.176-5.209c-4.005-1.472-6.059-5.912-4.587-9.918 1.472-4.004 5.911-6.058 9.917-4.588l18.4 6.762c2.611.96 4.505 3.249 4.958 5.993l2.042 12.354c.696 4.209-2.153 8.187-6.363 8.882-.427.07-.851.105-1.27.105z" fill="#61a2f9"/></g></g></g></g></svg>