<svg id="Capa_1" enable-background="new 0 0 512 512" height="512" viewBox="0 0 512 512" width="512" xmlns="http://www.w3.org/2000/svg"><g><path d="m422.518 512h-333.036c-4.309 0-7.802-3.493-7.802-7.802v-348.77h348.64v348.77c0 4.309-3.493 7.802-7.802 7.802z" fill="#f6f1f1"/><path d="m81.68 155.428v18.284h310.353c9.676 0 17.52 7.844 17.52 17.52v320.768h12.965c4.309 0 7.802-3.493 7.802-7.802v-348.77z" fill="#efe7e4"/><path d="m352.731 0h-263.249c-4.309 0-7.802 3.493-7.802 7.802v147.625h348.64v-106.73z" fill="#dd636e"/><path d="m370.304 61.369 30.893 20.529c5.219 3.468 8.356 9.319 8.356 15.586v57.944h20.767v-106.731z" fill="#da4a54"/><path d="m352.731 0 15.701 59.105c.932 3.507 4.549 5.576 8.044 4.602l53.845-15.01z" fill="#d82e3d"/><g><g><g><path d="m208.456 121.735c-.914 0-1.844-.163-2.748-.508-3.988-1.519-5.99-5.983-4.471-9.97l27.256-71.563c.022-.06.046-.12.07-.178 1.447-3.533 4.848-5.818 8.666-5.821h.007c3.815 0 7.216 2.279 8.667 5.807.028.069.056.14.082.21l27.008 71.566c1.507 3.993-.508 8.451-4.5 9.957-3.991 1.506-8.451-.507-9.957-4.5l-21.326-56.513-21.532 56.534c-1.174 3.084-4.109 4.979-7.222 4.979z" fill="#d82e3d"/></g><g><path d="m257.402 103.91h-40.445c-4.268 0-7.726-3.459-7.726-7.726s3.459-7.726 7.726-7.726h40.445c4.268 0 7.726 3.459 7.726 7.726s-3.458 7.726-7.726 7.726z" fill="#d82e3d"/></g></g><g><g><path d="m135.422 121.732c-3.958 0-7.498-2.496-8.825-6.229-.126-.354-.225-.718-.299-1.088l-14.141-71.495c-.828-4.186 1.894-8.251 6.08-9.078 4.188-.82 8.25 1.894 9.078 6.08l9.419 47.616 14.94-48.268c1.262-4.075 5.592-6.356 9.666-5.097 4.076 1.263 6.358 5.59 5.097 9.666l-22.081 71.34c-.021.067-.043.135-.066.202-1.282 3.771-4.819 6.323-8.802 6.35-.023.001-.045.001-.066.001z" fill="#d82e3d"/></g><g><path d="m182.623 121.732c-3.957 0-7.497-2.496-8.824-6.229-.036-.103-.071-.207-.104-.312l-22.025-71.495c-1.256-4.077 1.031-8.402 5.11-9.659 4.076-1.253 8.403 1.031 9.659 5.11l14.905 48.385 9.451-47.485c.832-4.186 4.898-6.903 9.086-6.069 4.185.833 6.902 4.9 6.069 9.086l-14.198 71.34c-.065.332-.153.659-.263.979-1.282 3.771-4.819 6.323-8.802 6.35-.02-.001-.042-.001-.064-.001z" fill="#d82e3d"/></g></g><g><g><path d="m290.307 121.732c-3.96 0-7.501-2.498-8.825-6.233l-24.834-71.544c-1.399-4.031.734-8.433 4.766-9.832 4.028-1.403 8.433.734 9.832 4.766l18.936 54.549 18.044-54.318c1.345-4.05 5.722-6.242 9.768-4.896 4.049 1.345 6.242 5.718 4.896 9.768l-23.699 71.34c-1.299 3.824-4.838 6.375-8.822 6.401-.02-.001-.041-.001-.062-.001z" fill="#d82e3d"/></g></g></g><g><path d="m189.217 390.037h-36.203c-3.093 0-5.6-2.507-5.6-5.6v-101.446c0-3.093 2.507-5.6 5.6-5.6h36.203z" fill="#d82e3d"/><path d="m189.217 390.037 61.388 38.83c6.325 4.001 14.578-.544 14.578-8.029v-174.249c0-7.485-8.253-12.03-14.578-8.029l-61.388 38.83z" fill="#dd636e"/><path d="m250.605 238.561-7.026 4.444c.442 1.09.702 2.289.702 3.585v174.249c0 1.295-.261 2.495-.702 3.585l7.026 4.444c6.325 4.001 14.579-.544 14.579-8.029v-174.25c-.001-7.484-8.254-12.029-14.579-8.028z" fill="#da4a54"/><g><path d="m364.586 341.44h-63.934c-4.268 0-7.726-3.459-7.726-7.726s3.459-7.726 7.726-7.726h63.934c4.268 0 7.726 3.459 7.726 7.726s-3.458 7.726-7.726 7.726z" fill="#dd636e"/></g><g><path d="m289.905 316.508c-1.977 0-3.955-.755-5.464-2.263-3.017-3.018-3.017-7.909 0-10.928l45.208-45.208c3.018-3.016 7.909-3.016 10.928 0 3.017 3.018 3.017 7.909 0 10.928l-45.208 45.208c-1.509 1.508-3.487 2.263-5.464 2.263z" fill="#dd636e"/></g><g><path d="m335.831 411.878c-1.977 0-3.955-.755-5.464-2.263l-45.208-45.208c-3.017-3.018-3.017-7.909 0-10.928 3.018-3.016 7.909-3.016 10.928 0l45.208 45.208c3.017 3.018 3.017 7.909 0 10.928-1.51 1.508-3.488 2.263-5.464 2.263z" fill="#dd636e"/></g></g></g></svg>