<svg id="Capa_1" enable-background="new 0 0 512 512" height="512" viewBox="0 0 512 512" width="512" xmlns="http://www.w3.org/2000/svg"><g><path d="m197.988 268.965 53.841 23.711c2.223.979 4.755.979 6.978 0l53.839-23.712c2.223-.979 4.755-.979 6.978 0l53.848 23.712c2.223.979 4.755.979 6.977 0l44.703-19.685c3.141-1.383 5.168-4.491 5.168-7.923v-109.641h-348.64v110.236c0 3.432 2.027 6.539 5.167 7.922l43.347 19.091c2.223.979 4.755.979 6.978 0l53.838-23.711c2.223-.979 4.755-.979 6.978 0z" fill="#f6f1f1"/><path d="m81.68 173.711h310.353c9.676 0 17.52 7.844 17.52 17.52v88.63l15.599-6.869c3.141-1.383 5.168-4.491 5.168-7.923v-109.642h-348.64z" fill="#efe7e4"/><path d="m312.646 313.616-53.839 23.712c-2.223.979-4.755.979-6.978 0l-53.841-23.711c-2.223-.979-4.755-.979-6.978 0l-53.838 23.711c-2.223.979-4.755.979-6.978 0l-36.369-16.018c-5.722-2.52-12.146 1.67-12.146 7.922v174.965c0 4.309 3.493 7.803 7.803 7.803h333.036c4.309 0 7.802-3.493 7.802-7.802v-175.56c0-6.252-6.424-10.442-12.145-7.923l-37.726 16.612c-2.223.979-4.755.979-6.977 0l-53.848-23.712c-2.223-.978-4.755-.978-6.978.001z" fill="#f6f1f1"/><path d="m418.175 320.716-8.622 3.797v187.487h12.965c4.309 0 7.802-3.493 7.802-7.802v-175.56c0-6.252-6.424-10.442-12.145-7.922z" fill="#efe7e4"/><path d="m352.731 0h-263.249c-4.309 0-7.802 3.493-7.802 7.802v147.625h348.64v-106.73z" fill="#756e78"/><path d="m370.304 61.369 30.893 20.529c5.219 3.468 8.356 9.319 8.356 15.586v57.944h20.767v-106.731z" fill="#665e66"/><path d="m352.731 0 15.701 59.105c.932 3.507 4.549 5.576 8.044 4.602l53.845-15.01z" fill="#544f57"/><g><g><g><path d="m144.452 65.662c-4.268 0-7.726-3.459-7.726-7.726v-15.072c0-4.268 3.459-7.726 7.726-7.726 4.268 0 7.726 3.459 7.726 7.726v15.072c.001 4.268-3.458 7.726-7.726 7.726z" fill="#544f57"/></g><g><path d="m215.336 65.662c-4.268 0-7.726-3.459-7.726-7.726v-15.072c0-4.268 3.459-7.726 7.726-7.726 4.268 0 7.726 3.459 7.726 7.726v15.072c0 4.268-3.459 7.726-7.726 7.726z" fill="#544f57"/></g></g><g><path d="m231.645 120.29c-1.724 0-3.46-.574-4.896-1.754-31.533-25.869-62.186-25.871-93.709 0-3.297 2.705-8.165 2.227-10.874-1.071-2.707-3.299-2.227-8.167 1.071-10.874 18.587-15.253 37.647-22.987 56.652-22.987 19.006-.001 38.069 7.733 56.661 22.987 3.299 2.706 3.78 7.574 1.072 10.873-1.527 1.862-3.743 2.826-5.977 2.826z" fill="#544f57"/></g></g></g></svg>