<svg id="Capa_1" enable-background="new 0 0 512 512" height="512" viewBox="0 0 512 512" width="512" xmlns="http://www.w3.org/2000/svg"><g><path d="m422.518 512h-333.036c-4.309 0-7.802-3.493-7.802-7.802v-348.77h348.64v348.77c0 4.309-3.493 7.802-7.802 7.802z" fill="#f6f1f1"/><path d="m81.68 155.428v18.284h310.353c9.676 0 17.52 7.844 17.52 17.52v320.768h12.965c4.309 0 7.802-3.493 7.802-7.802v-348.77z" fill="#efe7e4"/><path d="m352.731 0h-263.249c-4.309 0-7.802 3.493-7.802 7.802v147.625h348.64v-106.73z" fill="#80b4fb"/><path d="m370.304 61.369 30.893 20.529c5.219 3.468 8.356 9.319 8.356 15.586v57.944h20.767v-106.731z" fill="#61a2f9"/><path d="m352.731 0 15.701 59.105c.932 3.507 4.549 5.576 8.044 4.602l53.845-15.01z" fill="#3b66c1"/><g><g><g><path d="m239.56 121.467c-4.268 0-7.726-3.459-7.726-7.726v-72.054c0-4.268 3.459-7.726 7.726-7.726h29.204c4.268 0 7.726 3.459 7.726 7.726s-3.459 7.726-7.726 7.726h-21.478v64.327c0 4.268-3.458 7.727-7.726 7.727z" fill="#3b66c1"/></g><g><path d="m266.444 84.757h-26.884c-4.268 0-7.726-3.459-7.726-7.726 0-4.268 3.459-7.726 7.726-7.726h26.884c4.268 0 7.726 3.459 7.726 7.726.001 4.268-3.458 7.726-7.726 7.726z" fill="#3b66c1"/></g></g><g><g><path d="m217.422 49.148h-40.086c-4.268 0-7.726-3.459-7.726-7.726s3.459-7.726 7.726-7.726h40.086c4.268 0 7.726 3.459 7.726 7.726s-3.458 7.726-7.726 7.726z" fill="#3b66c1"/></g><g><path d="m197.298 121.732c-4.268 0-7.726-3.459-7.726-7.726v-70.267c0-4.268 3.459-7.726 7.726-7.726s7.726 3.459 7.726 7.726v70.267c.001 4.268-3.458 7.726-7.726 7.726z" fill="#3b66c1"/></g></g><g><g><path d="m155.701 49.148h-40.086c-4.268 0-7.726-3.459-7.726-7.726s3.459-7.726 7.726-7.726h40.086c4.268 0 7.726 3.459 7.726 7.726s-3.459 7.726-7.726 7.726z" fill="#3b66c1"/></g><g><path d="m135.577 121.732c-4.268 0-7.726-3.459-7.726-7.726v-70.267c0-4.268 3.459-7.726 7.726-7.726s7.726 3.459 7.726 7.726v70.267c0 4.268-3.458 7.726-7.726 7.726z" fill="#3b66c1"/></g></g></g><g><g><g><path d="m155.868 414.604c-.914 0-1.844-.163-2.748-.508-3.988-1.519-5.99-5.983-4.471-9.97l55.136-144.766c.022-.059.045-.118.069-.176 1.705-4.168 5.717-6.865 10.221-6.869h.01c4.5 0 8.512 2.688 10.223 6.85.028.07.056.14.083.21l54.635 144.772c1.507 3.993-.508 8.451-4.5 9.957-3.99 1.507-8.451-.508-9.957-4.5l-50.503-133.823-50.977 133.844c-1.174 3.083-4.108 4.979-7.221 4.979z" fill="#80b4fb"/></g><g><path d="m254.88 378.547h-81.816c-4.268 0-7.726-3.459-7.726-7.726 0-4.268 3.459-7.726 7.726-7.726h81.816c4.268 0 7.726 3.459 7.726 7.726s-3.458 7.726-7.726 7.726z" fill="#80b4fb"/></g></g><g><g><path d="m323.647 410.793c-22.172 0-40.21-18.038-40.21-40.21s18.038-40.21 40.21-40.21 40.21 18.038 40.21 40.21c0 22.171-18.038 40.21-40.21 40.21zm0-64.968c-13.651 0-24.758 11.107-24.758 24.758s11.107 24.758 24.758 24.758 24.758-11.107 24.758-24.758c-.001-13.651-11.108-24.758-24.758-24.758z" fill="#80b4fb"/></g><g><path d="m356.13 415.113c-4.268 0-7.726-3.459-7.726-7.726v-73.608c0-4.268 3.459-7.726 7.726-7.726s7.726 3.459 7.726 7.726v73.608c.001 4.267-3.458 7.726-7.726 7.726z" fill="#80b4fb"/></g></g></g></g></svg>