<svg id="Capa_1" enable-background="new 0 0 512 512" height="512" viewBox="0 0 512 512" width="512" xmlns="http://www.w3.org/2000/svg"><g><path d="m422.518 512h-333.036c-4.309 0-7.802-3.493-7.802-7.802v-348.77h348.64v348.77c0 4.309-3.493 7.802-7.802 7.802z" fill="#f6f1f1"/><path d="m81.68 155.428v18.284h310.353c9.676 0 17.52 7.844 17.52 17.52v320.768h12.965c4.309 0 7.802-3.493 7.802-7.802v-348.77z" fill="#efe7e4"/><path d="m352.731 0h-263.249c-4.309 0-7.802 3.493-7.802 7.802v147.625h348.64v-106.73z" fill="#e7a561"/><path d="m370.304 61.369 30.893 20.529c5.219 3.468 8.356 9.319 8.356 15.586v57.944h20.767v-106.731z" fill="#e49542"/><path d="m352.731 0 15.701 59.105c.932 3.507 4.549 5.576 8.044 4.602l53.845-15.01z" fill="#e28424"/><g><g><g><path d="m223.227 121.735c-3.122 0-6.062-1.906-7.229-5l-21.327-56.512-21.532 56.533c-1.519 3.989-5.985 5.991-9.971 4.471-3.987-1.519-5.989-5.983-4.47-9.97l27.256-71.562c.022-.058.044-.115.067-.172 1.444-3.535 4.844-5.822 8.662-5.828h.013c3.814 0 7.214 2.278 8.667 5.805.029.071.057.142.083.213l27.008 71.565c1.507 3.993-.508 8.451-4.5 9.957-.898.339-1.821.5-2.727.5z" fill="#e28424"/></g><g><path d="m214.863 103.91h-40.445c-4.268 0-7.726-3.459-7.726-7.726 0-4.268 3.459-7.726 7.726-7.726h40.445c4.268 0 7.726 3.459 7.726 7.726s-3.459 7.726-7.726 7.726z" fill="#e28424"/></g></g><g><g><path d="m131.498 121.766c-7.494 0-13.921-4.128-17.242-7.47-3.007-3.027-2.992-7.92.034-10.928 3.01-2.991 7.865-2.991 10.877-.015.283.271 4.826 4.502 8.922 2.222 2.153-1.195 3.491-3.548 3.491-6.142v-58.012c0-4.268 3.459-7.726 7.726-7.726 4.268 0 7.726 3.459 7.726 7.726v58.013c0 8.203-4.384 15.733-11.443 19.653-3.452 1.915-6.871 2.679-10.091 2.679z" fill="#e28424"/></g></g><g><g><path d="m286.617 121.733c-2.143 0-4.276-.886-5.803-2.622l-30.49-34.643c-2.819-3.203-2.508-8.086.695-10.904s8.086-2.508 10.904.695l30.49 34.643c2.819 3.203 2.508 8.086-.695 10.904-1.467 1.292-3.288 1.927-5.101 1.927z" fill="#e28424"/></g><g><path d="m247.371 121.733c-4.268 0-7.726-3.459-7.726-7.726v-72.586c0-4.268 3.459-7.726 7.726-7.726s7.726 3.459 7.726 7.726v72.586c0 4.267-3.459 7.726-7.726 7.726z" fill="#e28424"/></g><g><path d="m247.528 86.959c-4.244 0-7.698-3.428-7.725-7.677 0 0-.134-37.835-.134-37.836-.007-2.053.805-4.025 2.255-5.48 1.45-1.454 3.419-2.272 5.472-2.272h19.288c15.25 0 27.658 11.929 27.658 26.591s-12.407 26.591-27.658 26.591c-5.34 0-19.105.084-19.108.084-.016-.001-.032-.001-.048-.001zm7.617-37.812c.012 4.2.045 18.301.066 22.317 4.097-.021 8.819-.041 11.472-.041 6.616 0 12.205-5.101 12.205-11.138s-5.59-11.138-12.205-11.138z" fill="#e28424"/></g></g></g><g><g><path d="m317.276 375.603h-24.598c-4.268 0-7.726-3.459-7.726-7.726s3.459-7.726 7.726-7.726h24.598c10.333 0 18.739-8.406 18.739-18.738 0-10.333-8.406-18.739-18.739-18.739h-23.66c-4.268 0-7.726-3.459-7.726-7.726s3.459-7.726 7.726-7.726h23.66c18.854 0 34.192 15.338 34.192 34.192 0 18.851-15.338 34.189-34.192 34.189z" fill="#3b66c1"/></g><path d="m236.36 425.713c-36.793 0-66.62-29.827-66.62-66.619v-57.38c0-3.031 2.457-5.488 5.488-5.488h122.264c3.031 0 5.488 2.457 5.488 5.488v57.38c0 36.792-29.827 66.619-66.62 66.619z" fill="#80b4fb"/><path d="m279.197 296.226v62.867c0 32.732-23.612 59.93-54.728 65.54 3.861.696 7.83 1.079 11.891 1.079 36.793 0 66.619-29.827 66.619-66.619v-57.38c0-3.031-2.457-5.488-5.488-5.488h-18.294z" fill="#61a2f9"/><path d="m284.925 453.874h-97.129c-15.058 0-27.264-12.207-27.264-27.264v-3.308c0-1.513 1.227-2.74 2.74-2.74h146.178c1.513 0 2.74 1.227 2.74 2.74v3.308c-.001 15.057-12.208 27.264-27.265 27.264z" fill="#3b66c1"/><g><g><path d="m193.524 276.175c-4.268 0-7.726-3.459-7.726-7.726 0-6.605 2.854-10.234 4.743-12.637 1.296-1.648 1.438-1.869 1.438-3.085 0-1.217-.142-1.439-1.439-3.087-1.888-2.402-4.742-6.033-4.742-12.638 0-6.604 2.854-10.234 4.742-12.637 1.297-1.648 1.439-1.87 1.439-3.087 0-4.268 3.459-7.726 7.726-7.726 4.268 0 7.726 3.459 7.726 7.726 0 6.605-2.854 10.235-4.743 12.638-1.296 1.648-1.438 1.869-1.438 3.086s.142 1.439 1.439 3.087c1.888 2.402 4.742 6.033 4.742 12.638 0 6.604-2.854 10.233-4.743 12.636-1.296 1.648-1.438 1.869-1.438 3.086 0 4.268-3.459 7.726-7.726 7.726z" fill="#dd636e"/></g><g><path d="m233.27 276.175c-4.268 0-7.726-3.459-7.726-7.726 0-6.605 2.854-10.234 4.743-12.637 1.296-1.648 1.438-1.869 1.438-3.085 0-1.217-.142-1.439-1.439-3.087-1.888-2.402-4.742-6.033-4.742-12.638 0-6.604 2.854-10.234 4.742-12.637 1.297-1.648 1.439-1.87 1.439-3.087 0-4.268 3.459-7.726 7.726-7.726s7.726 3.459 7.726 7.726c0 6.605-2.854 10.235-4.743 12.638-1.296 1.648-1.438 1.869-1.438 3.086s.142 1.439 1.439 3.087c1.888 2.402 4.742 6.033 4.742 12.638 0 6.604-2.854 10.233-4.743 12.636-1.296 1.648-1.438 1.869-1.438 3.086 0 4.268-3.458 7.726-7.726 7.726z" fill="#dd636e"/></g><g><path d="m273.016 276.175c-4.268 0-7.726-3.459-7.726-7.726 0-6.605 2.854-10.234 4.743-12.637 1.296-1.648 1.438-1.869 1.438-3.085 0-1.217-.142-1.439-1.439-3.087-1.888-2.402-4.742-6.033-4.742-12.638 0-6.604 2.854-10.234 4.742-12.637 1.297-1.648 1.439-1.87 1.439-3.087 0-4.268 3.459-7.726 7.726-7.726 4.268 0 7.726 3.459 7.726 7.726 0 6.605-2.854 10.235-4.743 12.638-1.296 1.648-1.438 1.869-1.438 3.086s.142 1.439 1.439 3.087c1.888 2.402 4.742 6.033 4.742 12.638 0 6.604-2.854 10.233-4.743 12.636-1.296 1.648-1.438 1.869-1.438 3.086 0 4.268-3.459 7.726-7.726 7.726z" fill="#dd636e"/></g></g></g></g></svg>