<svg id="Capa_1" enable-background="new 0 0 512 512" height="512" viewBox="0 0 512 512" width="512" xmlns="http://www.w3.org/2000/svg"><g><path d="m422.518 512h-333.036c-4.309 0-7.802-3.493-7.802-7.802v-348.77h348.64v348.77c0 4.309-3.493 7.802-7.802 7.802z" fill="#f6f1f1"/><path d="m81.68 155.428v18.284h310.353c9.676 0 17.52 7.844 17.52 17.52v320.768h12.965c4.309 0 7.802-3.493 7.802-7.802v-348.77z" fill="#efe7e4"/><path d="m352.731 0h-263.249c-4.309 0-7.802 3.493-7.802 7.802v147.625h348.64v-106.73z" fill="#78d0b1"/><path d="m370.304 61.369 30.893 20.529c5.219 3.468 8.356 9.319 8.356 15.586v57.944h20.767v-106.731z" fill="#66b49d"/><path d="m352.731 0 15.701 59.105c.932 3.507 4.549 5.576 8.044 4.602l53.845-15.01z" fill="#5493a2"/><g><g><g><path d="m188.009 119.515c-4.268 0-7.726-3.459-7.726-7.726v-69.221c0-4.268 3.459-7.726 7.726-7.726s7.726 3.459 7.726 7.726v69.221c0 4.268-3.459 7.726-7.726 7.726z" fill="#5493a2"/></g><g><path d="m188.152 120.659c-2.039 0-3.996-.806-5.444-2.242-1.454-1.445-2.276-3.406-2.283-5.456l-.143-70.451c-.004-2.052.809-4.021 2.258-5.473 1.45-1.453 3.417-2.269 5.469-2.269h19.95c21.635 0 36.171 17.259 36.171 42.945 0 24.435-14.909 42.431-35.453 42.79-5.675.1-19.893.154-20.496.156-.01 0-.019 0-.029 0zm7.597-70.437c.015 8.653.075 46.624.103 54.947 4.441-.026 9.689-.065 12.555-.116 13.927-.243 20.27-14.342 20.27-27.339 0-13.291-5.443-27.492-20.718-27.492z" fill="#5493a2"/></g></g><g><g><path d="m280.585 121.733c-11.876 0-23.473-4.971-31.019-13.297-2.866-3.162-2.626-8.048.535-10.913 3.162-2.865 8.046-2.627 10.913.535 4.667 5.149 11.983 8.222 19.57 8.222 7.72 0 13.183-4.761 14.005-9.363.805-4.504-2.978-8.653-10.376-11.382-11.215-4.136-21.172-8.568-21.591-8.755-.372-.166-.73-.361-1.071-.583-7.21-4.701-10.925-12.946-9.694-21.518 1.317-9.171 8.044-16.649 17.557-19.515 19.141-5.766 34.922 7.247 35.583 7.805 3.267 2.745 3.689 7.619.944 10.885-2.736 3.258-7.588 3.685-10.852.972-.249-.2-10.263-8.167-21.218-4.865-5.401 1.627-6.497 5.377-6.718 6.913-.347 2.419.552 4.656 2.419 6.082 2.372 1.04 10.858 4.713 19.99 8.08 17.533 6.468 21.952 19.013 20.24 28.597-2.286 12.806-14.574 22.1-29.217 22.1z" fill="#5493a2"/></g></g><g><g><path d="m141.919 85.44c-4.268 0-7.726-3.459-7.726-7.726 0-4.268 3.459-7.726 7.726-7.726 7.972 0 14.457-6.485 14.457-14.457 0-7.971-6.485-14.456-14.457-14.456-6.894 0-12.86 4.897-14.185 11.646-.822 4.187-4.88 6.917-9.07 6.093-4.187-.822-6.914-4.883-6.093-9.07 2.744-13.977 15.088-24.121 29.348-24.121 16.492 0 29.909 13.417 29.909 29.908s-13.417 29.909-29.909 29.909z" fill="#5493a2"/></g><g><path d="m141.919 129.806c-14.839 0-27.572-11.068-29.621-25.747-.192-1.374-.289-2.774-.289-4.162 0-4.268 3.459-7.726 7.726-7.726 4.268 0 7.726 3.459 7.726 7.726 0 .677.047 1.36.141 2.028.988 7.085 7.143 12.429 14.316 12.429 7.972 0 14.457-6.485 14.457-14.457s-6.485-14.457-14.457-14.457c-4.268 0-7.726-3.459-7.726-7.726 0-4.268 3.459-7.726 7.726-7.726 16.492 0 29.909 13.418 29.909 29.909s-13.416 29.909-29.908 29.909z" fill="#5493a2"/></g></g></g><g><path d="m357.149 279.361-101.149 67.1-101.149-67.099 94.748-62.853c3.879-2.573 8.922-2.573 12.802 0z" fill="#78d0b1"/><path d="m256 455.166-96.162-66.599c-3.123-2.163-4.986-5.72-4.986-9.519v-99.687l101.148 67.1z" fill="#66b49d"/><path d="m256 455.166 96.162-66.599c3.123-2.163 4.986-5.72 4.986-9.519v-99.687l-101.148 67.1z" fill="#5493a2"/></g></g></svg>