<svg id="Capa_1" enable-background="new 0 0 512 512" height="512" viewBox="0 0 512 512" width="512" xmlns="http://www.w3.org/2000/svg"><g><path d="m422.518 512h-333.036c-4.309 0-7.802-3.493-7.802-7.802v-348.77h348.64v348.77c0 4.309-3.493 7.802-7.802 7.802z" fill="#f6f1f1"/><path d="m81.68 155.428v18.284h310.353c9.676 0 17.52 7.844 17.52 17.52v320.768h12.965c4.309 0 7.802-3.493 7.802-7.802v-348.77z" fill="#efe7e4"/><path d="m352.731 0h-263.249c-4.309 0-7.802 3.493-7.802 7.802v147.625h348.64v-106.73z" fill="#e7a561"/><path d="m370.304 61.369 30.893 20.529c5.219 3.468 8.356 9.319 8.356 15.586v57.944h20.767v-106.731z" fill="#e49542"/><path d="m352.731 0 15.701 59.105c.932 3.507 4.549 5.576 8.044 4.602l53.845-15.01z" fill="#e28424"/><g><g><g><path d="m150.041 121.401h-30.305c-4.267 0-7.726-3.459-7.726-7.726v-71.923c0-4.268 3.459-7.726 7.726-7.726h30.305c4.267 0 7.726 3.459 7.726 7.726s-3.459 7.726-7.726 7.726h-22.579v56.47h22.579c4.267 0 7.726 3.459 7.726 7.726.001 4.269-3.459 7.727-7.726 7.727z" fill="#e28424"/></g><g><path d="m147.807 85.441h-28.071c-4.267 0-7.726-3.459-7.726-7.726s3.459-7.726 7.726-7.726h28.071c4.267 0 7.726 3.459 7.726 7.726s-3.459 7.726-7.726 7.726z" fill="#e28424"/></g></g><g><g><path d="m259.31 121.732c-11.879 0-23.475-4.971-31.02-13.298-2.865-3.162-2.624-8.048.538-10.913s8.048-2.625 10.913.537c4.664 5.148 11.979 8.221 19.568 8.221 7.72 0 13.183-4.761 14.005-9.363.805-4.504-2.978-8.653-10.376-11.382-11.216-4.136-21.172-8.568-21.59-8.755-.372-.166-.73-.361-1.072-.584-7.209-4.701-10.924-12.946-9.693-21.518 1.316-9.171 8.044-16.649 17.556-19.515 19.141-5.768 34.922 7.249 35.584 7.806 3.267 2.745 3.688 7.62.943 10.886-2.737 3.256-7.585 3.684-10.852.971-.223-.179-10.254-8.169-21.217-4.866-5.401 1.627-6.498 5.377-6.718 6.913-.347 2.419.552 4.656 2.419 6.082 2.372 1.04 10.857 4.713 19.989 8.08 17.533 6.468 21.952 19.013 20.24 28.597-2.287 12.808-14.575 22.101-29.217 22.101z" fill="#e28424"/></g></g><g><g><path d="m176.084 121.732c-4.267 0-7.726-3.459-7.726-7.726v-72.585c0-4.268 3.459-7.726 7.726-7.726s7.726 3.459 7.726 7.726v72.585c.001 4.268-3.459 7.726-7.726 7.726z" fill="#e28424"/></g><g><path d="m176.225 90.205c-2.032 0-3.983-.801-5.43-2.229-1.458-1.441-2.284-3.4-2.297-5.451 0 0-.141-41.077-.141-41.078-.007-2.053.804-4.025 2.254-5.48 1.45-1.454 3.419-2.272 5.472-2.272h20.211c15.776 0 28.611 12.655 28.611 28.209 0 15.555-12.835 28.21-28.611 28.21-5.597 0-20.019.091-20.022.091-.015 0-.031 0-.047 0zm7.609-41.057c.014 4.712.051 21.052.074 25.56 4.375-.023 9.528-.046 12.387-.046 7.132 0 13.158-5.842 13.158-12.758 0-6.914-6.026-12.757-13.158-12.757h-12.461z" fill="#e28424"/></g></g></g><g><g><path d="m355.495 391.187c-4.268 0-7.726-3.459-7.726-7.726 0-50.601-41.167-91.768-91.768-91.768s-91.768 41.167-91.768 91.768c0 4.268-3.459 7.726-7.726 7.726s-7.726-3.459-7.726-7.726c0-59.122 48.099-107.22 107.221-107.22s107.221 48.099 107.221 107.22c-.002 4.267-3.461 7.726-7.728 7.726z" fill="#e49542"/></g><g><path d="m355.495 291.693h-198.989c-4.267 0-7.726-3.459-7.726-7.726 0-4.268 3.459-7.726 7.726-7.726h198.989c4.268 0 7.726 3.459 7.726 7.726s-3.459 7.726-7.726 7.726z" fill="#e49542"/></g><g fill="#e7a561"><path d="m268.861 302.628h-25.721c-3.204 0-5.801-2.597-5.801-5.801v-25.721c0-3.204 2.597-5.801 5.801-5.801h25.721c3.204 0 5.801 2.597 5.801 5.801v25.721c-.001 3.204-2.598 5.801-5.801 5.801z"/><path d="m169.366 402.122h-25.721c-3.204 0-5.801-2.597-5.801-5.801v-25.721c0-3.204 2.597-5.801 5.801-5.801h25.721c3.204 0 5.801 2.597 5.801 5.801v25.721c0 3.204-2.597 5.801-5.801 5.801z"/><path d="m368.355 402.122h-25.721c-3.204 0-5.801-2.597-5.801-5.801v-25.721c0-3.204 2.597-5.801 5.801-5.801h25.721c3.204 0 5.801 2.597 5.801 5.801v25.721c0 3.204-2.598 5.801-5.801 5.801z"/></g><circle cx="156.506" cy="283.967" fill="#80b4fb" r="17.38"/><circle cx="355.494" cy="283.967" fill="#80b4fb" r="17.38"/></g></g></svg>