<svg id="Capa_1" enable-background="new 0 0 512 512" height="512" viewBox="0 0 512 512" width="512" xmlns="http://www.w3.org/2000/svg"><g><path d="m478.717 481.4 24.527-2.464-45.328-458.43-19.113 2.575c-2.502-3.88-7.011-6.283-11.931-5.853l31.766-2.888c-.001 0-.003-.001-.004-.001l-131.243 11.482c-7.367.644-12.487 7.358-11.888 14.209l39.024 446.053c.543 6.206 5.409 10.993 11.371 11.658l131.244-11.482c.03-.003.058-.01.087-.012l-27.51 2.407c4.066-.869 7.348-3.634 8.998-7.254z" fill="#60b7ff"/><path d="m278.735 26.916v.004c-2.207-1.781-5.01-2.851-8.066-2.851h-99.984c-7.102 0-12.86 5.758-12.86 12.86v447.757c0 7.102 5.758 12.86 12.86 12.86h99.984c2.531 0 4.885-.742 6.874-2.005v.006h21.209v-6.893-461.738z" fill="#60ba4d"/><path d="m146.114 496.535-1.144-470.685c-8.788 0-15.352 0-22.121 0l-7.147-1.78h-102.842c-7.102-.001-12.86 5.757-12.86 12.859v447.757c0 7.102 5.758 12.86 12.86 12.86h104.667l4.893-1.011z" fill="#0055a3"/><path d="m144.966 24.069h-32.122c7.102 0 12.86 5.758 12.86 12.86v447.757c0 7.102-5.758 12.86-12.86 12.86h32.122c7.102 0 12.86-5.758 12.86-12.86v-447.757c0-7.102-5.758-12.86-12.86-12.86z" fill="#004281"/><circle cx="78.913" cy="109.748" fill="#00366d" r="34.271"/><g><path d="m92.942 221.89h-28.058c-4.267 0-7.726-3.459-7.726-7.726s3.459-7.726 7.726-7.726h28.058c4.267 0 7.726 3.459 7.726 7.726s-3.459 7.726-7.726 7.726z" fill="#b3dafe"/></g><g><path d="m92.942 261.657h-28.058c-4.267 0-7.726-3.459-7.726-7.726s3.459-7.726 7.726-7.726h28.058c4.267 0 7.726 3.459 7.726 7.726s-3.459 7.726-7.726 7.726z" fill="#b3dafe"/></g><g><path d="m92.942 453.864h-28.058c-4.267 0-7.726-3.459-7.726-7.726s3.459-7.726 7.726-7.726h28.058c4.267 0 7.726 3.459 7.726 7.726s-3.459 7.726-7.726 7.726z" fill="#b3dafe"/></g><circle cx="236.738" cy="109.748" fill="#53a143" r="34.271"/><g><path d="m250.768 221.89h-28.058c-4.267 0-7.726-3.459-7.726-7.726s3.459-7.726 7.726-7.726h28.058c4.267 0 7.726 3.459 7.726 7.726s-3.459 7.726-7.726 7.726z" fill="#c4e6d5"/></g><g><path d="m250.768 261.657h-28.058c-4.267 0-7.726-3.459-7.726-7.726s3.459-7.726 7.726-7.726h28.058c4.267 0 7.726 3.459 7.726 7.726s-3.459 7.726-7.726 7.726z" fill="#c4e6d5"/></g><g><path d="m250.768 453.864h-28.058c-4.267 0-7.726-3.459-7.726-7.726s3.459-7.726 7.726-7.726h28.058c4.267 0 7.726 3.459 7.726 7.726s-3.459 7.726-7.726 7.726z" fill="#c4e6d5"/></g><circle cx="400.66" cy="105.417" fill="#26a6fe" r="34.271"/><g><path d="m395.776 218.385c-3.963 0-7.336-3.031-7.688-7.053-.371-4.251 2.773-7.998 7.024-8.37l27.951-2.445c4.245-.372 7.998 2.773 8.37 7.024.371 4.251-2.773 7.998-7.024 8.37l-27.951 2.445c-.229.019-.457.029-.682.029z" fill="#b3dafe"/></g><g><path d="m399.242 258c-3.963 0-7.336-3.031-7.688-7.054-.371-4.251 2.773-7.998 7.024-8.37l27.952-2.445c4.247-.374 7.998 2.773 8.37 7.024.371 4.251-2.773 7.998-7.024 8.37l-27.952 2.445c-.229.021-.457.03-.682.03z" fill="#b3dafe"/></g><g><path d="m415.994 449.477c-3.963 0-7.336-3.031-7.688-7.053-.371-4.251 2.773-7.998 7.024-8.37l27.951-2.445c4.248-.374 7.998 2.773 8.37 7.024.371 4.251-2.773 7.998-7.024 8.37l-27.951 2.445c-.228.019-.457.029-.682.029z" fill="#b3dafe"/></g><g><path d="m78.913 151.745c-23.157 0-41.997-18.84-41.997-41.997s18.84-41.997 41.997-41.997 41.997 18.84 41.997 41.997-18.84 41.997-41.997 41.997zm0-68.541c-14.636 0-26.544 11.908-26.544 26.544s11.908 26.544 26.544 26.544 26.544-11.908 26.544-26.544-11.908-26.544-26.544-26.544z" fill="#82aee3"/></g><g><path d="m236.738 151.745c-23.157 0-41.997-18.84-41.997-41.997s18.84-41.997 41.997-41.997 41.997 18.84 41.997 41.997-18.84 41.997-41.997 41.997zm0-68.541c-14.636 0-26.544 11.908-26.544 26.544s11.908 26.544 26.544 26.544 26.544-11.908 26.544-26.544-11.907-26.544-26.544-26.544z" fill="#c4e6d5"/></g><g><path d="m400.589 147.418c-9.848 0-19.291-3.424-26.924-9.829-8.594-7.211-13.864-17.336-14.842-28.512-.978-11.175 2.455-22.062 9.666-30.655 7.21-8.594 17.336-13.864 28.511-14.842 11.168-.977 22.061 2.455 30.655 9.665 8.594 7.211 13.864 17.336 14.842 28.512v-.001c.978 11.175-2.455 22.062-9.665 30.656-7.211 8.593-17.337 13.864-28.512 14.842-1.248.109-2.494.164-3.731.164zm.116-68.547c-.783 0-1.569.034-2.359.103-7.063.618-13.463 3.949-18.02 9.381-4.557 5.431-6.727 12.313-6.109 19.376s3.949 13.463 9.38 18.021c5.431 4.557 12.307 6.727 19.376 6.109 7.062-.618 13.463-3.949 18.02-9.381 4.557-5.431 6.727-12.313 6.109-19.376 0 0 0 0 0-.001-.618-7.063-3.949-13.463-9.38-18.02-4.824-4.048-10.792-6.212-17.017-6.212z" fill="#b3dafe"/></g><path d="m302.791 24.069h-32.122c7.102 0 12.86 5.758 12.86 12.86v447.757c0 7.102-5.758 12.86-12.86 12.86h32.122c7.102 0 12.86-5.758 12.86-12.86v-447.757c0-7.102-5.757-12.86-12.86-12.86z" fill="#53a143"/><path d="m426.872 17.228c7.075-.619 13.313 4.615 13.932 11.69l39.024 446.053c.572 6.535-3.854 12.345-10.109 13.684l30.541-2.672c7.075-.619 12.309-6.856 11.69-13.932l-39.024-446.053c-.619-7.075-6.857-12.309-13.932-11.69z" fill="#26a6fe"/></g></svg>