<?xml version="1.0" encoding="iso-8859-1"?>
<!-- Generator: Adobe Illustrator 19.0.0, SVG Export Plug-In . SVG Version: 6.00 Build 0)  -->
<svg version="1.1" id="Capa_1" xmlns="http://www.w3.org/2000/svg" xmlns:xlink="http://www.w3.org/1999/xlink" x="0px" y="0px"
	 viewBox="0 0 512 512" style="enable-background:new 0 0 512 512;" xml:space="preserve">
<path style="fill:#00EED0;" d="M512,210v256c0,24.899-20.099,46-45,46H45c-24.901,0-45-21.101-45-46V210l33.6-15h449.599L512,210z"
	/>
<path style="fill:#00CCB2;" d="M512,210v256c0,24.899-20.099,46-45,46H256V195h227.199L512,210z"/>
<path style="fill:#FF4588;" d="M354.8,332.1L256,273.3l-52.2-31.2c-4.801-2.701-10.501-2.701-15.3-0.3
	c-4.501,2.699-7.5,7.8-7.5,13.2v180c0,5.4,2.999,10.499,7.5,13.2c4.799,2.399,10.499,2.399,15.3-0.3l52.2-31.2l98.8-58.801
	c4.499-2.701,7.2-7.5,7.2-12.9S359.299,334.799,354.8,332.1z"/>
<path style="fill:#FC1A60;" d="M362,345c0,5.4-2.701,10.199-7.2,12.9L256,416.7V273.3l98.8,58.801
	C359.299,334.799,362,339.6,362,345z"/>
<path style="fill:#664B34;" d="M512,45v60H148.001l-16-22.5l-39.6-59.099C89.399,18.6,89.099,12.9,91.8,7.8
	C94.501,2.999,99.6,0,105,0h362C491.901,0,512,20.099,512,45z"/>
<path style="fill:#C7E8FF;" d="M164.052,75l-31.117-45H467c8.276,0,15,6.724,15,15v30H164.052z"/>
<path style="fill:#59422D;" d="M512,105v105H105c-5.4,0-10.499-3.001-13.2-7.8c-2.701-5.099-2.401-10.8,0.601-15.601l55.6-81.599
	H512z"/>
<polygon style="fill:#83C9FF;" points="132.891,180 164.022,135 482,135 482,180 "/>
<g>
	<path style="fill:#664B34;" d="M302,105c0,2.999-1.601,6-3.401,8.401l-9.6,14.399L256,177.299L234.101,210h-36l12.9-19.501
		l42.001-62.699l2.999-4.801l12-17.999L256,87.001l-2.999-4.501L211,19.501L197.8,0h36.301L256,32.701L288.999,82.2l9.6,14.399
		C300.399,99,302,102.001,302,105z"/>
	<path style="fill:#664B34;" d="M392,105c0,3-0.6,6-2.4,8.4L377,132.3l-42,63l-9.9,14.7h-37l9.9-14.7l19-27.3l42-63l-42-63l-19-27
		l-9.9-15h37l9.9,15l42,62.7l12.6,18.9C391.4,99,392,102,392,105z"/>
	<path style="fill:#664B34;" d="M482,105c0,3-0.6,6-2.4,8.4L440,172.8l-18,27l-6.9,10.2h-36l24.9-37.2l18-27.3l27-40.5l-45-67.5
		L379.1,0h36l6.9,10.5l18,27l39.6,59.1C481.4,99,482,102,482,105z"/>
	<path style="fill:#664B34;" d="M144.027,210H0V45C0,20.147,20.147,0,45,0h99.027l64.453,96.68c3.359,5.038,3.359,11.602,0,16.641
		L144.027,210z"/>
</g>
<g>
	<path style="fill:#59422D;" d="M0,210h144.027l64.453-96.68c1.679-2.52,2.52-5.42,2.52-8.32H0V210z"/>
	<path style="fill:#59422D;" d="M256,122.999l-2.999,4.801L211,190.499L198.1,210h36l21.9-32.701l32.999-49.499l9.6-14.399
		C300.399,111,302,107.999,302,105h-33.999L256,122.999z"/>
</g>
<path style="fill:#83C9FF;" d="M90,75c-16.538,0-30,13.462-30,30s13.462,30,30,30s30-13.462,30-30S106.538,75,90,75z"/>
<path style="fill:#C7E8FF;" d="M90,135c16.538,0,30-13.462,30-30H60C60,121.538,73.462,135,90,135z"/>
<g>
	<path style="fill:#59422D;" d="M392,105c0,3-0.6,6-2.4,8.4L377,132.3l-42,63l-9.9,14.7h-37l9.9-14.7l19-27.3l42-63H392z"/>
	<path style="fill:#59422D;" d="M482,105c0,3-0.6,6-2.4,8.4L440,172.8l-18,27l-6.9,10.2h-36l24.9-37.2l18-27.3l27-40.5H482z"/>
</g>
<g>
</g>
<g>
</g>
<g>
</g>
<g>
</g>
<g>
</g>
<g>
</g>
<g>
</g>
<g>
</g>
<g>
</g>
<g>
</g>
<g>
</g>
<g>
</g>
<g>
</g>
<g>
</g>
<g>
</g>
</svg>
