<svg height="512pt" viewBox="-40 0 512 512" width="512pt" xmlns="http://www.w3.org/2000/svg"><path d="m277 0h-242v512h362v-392l-85-30zm0 0" fill="#f3eee9"/><path d="m277 0h-61v512h181v-392l-85-30zm0 0" fill="#e9dfda"/><path d="m277 120h120l-120-120zm0 0" fill="#dad0cb"/><path d="m0 195h432v226h-432zm0 0" fill="#ff4b00"/><path d="m216 195h216v226h-216zm0 0" fill="#dd3400"/><path d="m102.5 242h-44.5v136h30v-45h14.5c25.089844 0 45.5-20.410156 45.5-45.5s-20.410156-45.5-45.5-45.5zm0 61h-14.5v-31h14.5c8.546875 0 15.5 6.953125 15.5 15.5s-6.953125 15.5-15.5 15.5zm0 0" fill="#fff3f3"/><path d="m208 242h-30v136h30c33.085938 0 60-26.914062 60-60v-16c0-33.085938-26.914062-60-60-60zm30 76c0 16.542969-13.457031 30-30 30v-76c16.542969 0 30 13.457031 30 30zm0 0" fill="#fff3f3"/><g fill="#e9dfda"><path d="m216 242.550781v30.539063c12.667969 3.511718 22 15.136718 22 28.910156v16c0 13.769531-9.332031 25.394531-22 28.90625v30.542969c29.3125-3.925781 52-29.082031 52-59.453125v-16c0-30.367188-22.6875-55.519532-52-59.445313zm0 0"/><path d="m375 272v-30h-75v136h30v-41.5h30v-30h-30v-34.5zm0 0"/></g></svg>