<?xml version="1.0" standalone="no"?>
<!DOCTYPE svg PUBLIC "-//W3C//DTD SVG 20010904//EN"
 "http://www.w3.org/TR/2001/REC-SVG-20010904/DTD/svg10.dtd">
<svg version="1.0" xmlns="http://www.w3.org/2000/svg"
 width="96.000000pt" height="96.000000pt" viewBox="0 0 96.000000 96.000000"
 preserveAspectRatio="xMidYMid meet">

<g transform="translate(0.000000,96.000000) scale(0.100000,-0.100000)"
fill="#000000" stroke="none">
<path d="M60 480 l0 -320 420 0 420 0 0 320 0 320 -420 0 -420 0 0 -320z m140
240 l0 -40 -40 0 -40 0 0 40 0 40 40 0 40 0 0 -40z m160 0 l0 -40 -40 0 -40 0
0 40 0 40 40 0 40 0 0 -40z m160 0 l0 -40 -40 0 -40 0 0 40 0 40 40 0 40 0 0
-40z m160 0 l0 -40 -40 0 -40 0 0 40 0 40 40 0 40 0 0 -40z m160 0 l0 -40 -40
0 -40 0 0 40 0 40 40 0 40 0 0 -40z m-297 -198 c37 -25 66 -49 65 -54 -2 -5
-45 -32 -96 -59 l-92 -50 0 121 0 122 28 -18 c15 -9 58 -38 95 -62z m-343
-282 l0 -40 -40 0 -40 0 0 40 0 40 40 0 40 0 0 -40z m160 0 l0 -40 -40 0 -40
0 0 40 0 40 40 0 40 0 0 -40z m160 0 l0 -40 -40 0 -40 0 0 40 0 40 40 0 40 0
0 -40z m160 0 l0 -40 -40 0 -40 0 0 40 0 40 40 0 40 0 0 -40z m160 0 l0 -40
-40 0 -40 0 0 40 0 40 40 0 40 0 0 -40z"/>
</g>
</svg>
